<?xml version="1.0" encoding="UTF-8"?>
<svg version="1.1" xmlns="http://www.w3.org/2000/svg" width="512" height="512">
<path d="M0 0 C1.43661437 0.00138269 1.43661437 0.00138269 2.90225124 0.00279331 C3.99517766 0.00141582 5.08810408 0.00003832 6.21414948 -0.00138092 C7.42843848 0.00221719 8.64272749 0.0058153 9.89381313 0.00952244 C11.18251781 0.0094019 12.47122248 0.00928137 13.79897881 0.00915718 C17.29624909 0.0089307 20.7934854 0.01474157 24.29074764 0.02176762 C27.56814387 0.02744747 30.84553854 0.02772991 34.12293911 0.02844334 C43.71836193 0.03369815 53.31377839 0.0476592 62.90919399 0.06054783 C84.33856899 0.08117283 105.76794399 0.10179783 127.84669399 0.12304783 C127.84669399 43.35304783 127.84669399 86.58304783 127.84669399 131.12304783 C84.61669399 131.12304783 41.38669399 131.12304783 -3.15330601 131.12304783 C-3.17393101 109.69367283 -3.19455601 88.26429783 -3.21580601 66.18554783 C-3.22491001 59.40773777 -3.23401402 52.62992771 -3.2433939 45.64672947 C-3.2479105 37.39929295 -3.2479105 37.39929295 -3.24874973 33.54393101 C-3.25028994 30.83895667 -3.25344726 28.13402822 -3.25888157 25.42906284 C-3.26698304 21.34275524 -3.2672136 17.25648257 -3.2668314 13.17016697 C-3.27042951 11.95587796 -3.27402761 10.74158895 -3.27773476 9.49050331 C-3.27635726 8.39757689 -3.27497976 7.30465048 -3.27356052 6.17860508 C-3.27448232 5.22086217 -3.27540411 4.26311926 -3.27635384 3.27635384 C-3.10989913 0.36343849 -2.91291535 0.1664547 0 0 Z " fill="#FFDA6A" transform="translate(217.15330600738525,189.87695217132568)"/>
<path d="M0 0 C0.68622438 -0.00382555 1.37244877 -0.00765109 2.07946783 -0.01159257 C4.36625454 -0.02186601 6.65278751 -0.0179413 8.93959045 -0.01396179 C10.58427156 -0.01831139 12.22895063 -0.02349536 13.87362671 -0.02944946 C18.3322998 -0.04282362 22.79088805 -0.04341993 27.24957728 -0.04088616 C30.97473251 -0.03981545 34.69987063 -0.04470236 38.42502218 -0.04949158 C47.21439653 -0.06058114 56.00372813 -0.06102717 64.79310608 -0.05497742 C73.85448248 -0.04893628 82.91570366 -0.06125346 91.97705358 -0.08254749 C99.76321684 -0.1001707 107.54933071 -0.10616373 115.33551317 -0.10290974 C119.98305614 -0.10109801 124.63048836 -0.10372222 129.27801323 -0.11762428 C133.64882768 -0.13020984 138.01940032 -0.12825166 142.39021111 -0.11521339 C143.99177126 -0.11284971 145.59334848 -0.11557486 147.19488907 -0.12383652 C149.38630857 -0.13432363 151.57691957 -0.12618848 153.76831055 -0.11352539 C155.60527701 -0.113777 155.60527701 -0.113777 157.4793539 -0.1140337 C164.06540473 0.59755307 168.60534904 3.17400441 172.94764709 8.26069641 C175.29456216 11.8679848 175.20145319 15.02561384 175.20834351 19.26908875 C175.21216905 19.97472761 175.2159946 20.68036647 175.21993607 21.40738833 C175.23025463 23.7718155 175.22627614 26.13599932 175.2223053 28.5004425 C175.22665244 30.19571152 175.2318356 31.89097856 175.23779297 33.58624268 C175.2511948 38.1916558 175.25176026 42.79698692 175.24922967 47.40241575 C175.24816064 51.24686044 175.25304165 55.09128849 175.25783509 58.93572962 C175.26893464 68.00597858 175.26936534 77.07618613 175.26332092 86.1464386 C175.25728144 95.50317064 175.26959047 104.8597523 175.29089099 114.21645868 C175.30850614 122.24969739 175.31450844 130.28288823 175.31125325 138.31614554 C175.30943992 143.11403276 175.31208146 147.91181273 175.32596779 152.70968246 C175.33853988 157.22245901 175.33660789 161.73500119 175.3235569 166.24777412 C175.32119012 167.90296699 175.32392945 169.55817631 175.33218002 171.2133503 C175.34264101 173.47528428 175.33455266 175.73643095 175.3218689 177.99833679 C175.32203664 179.26337225 175.32220438 180.52840771 175.3223772 181.83177757 C174.84048187 186.24129773 173.45043161 189.61311234 170.44764709 192.90522766 C165.44776089 196.79836822 162.32355946 197.38701061 156.07296753 197.41459656 C155.36959422 197.41897881 154.66622092 197.42336107 153.94153327 197.42787611 C151.57874103 197.44125722 149.21598608 197.44744143 146.85316467 197.4535675 C145.16128877 197.46146906 143.46941456 197.46973805 141.77754211 197.47834778 C136.21577055 197.50456329 130.65399149 197.51987568 125.09217834 197.53413391 C123.17713097 197.53949392 121.26208364 197.54487143 119.34703636 197.55026627 C111.38021529 197.57189495 103.41339624 197.59063116 95.44655323 197.60188866 C84.03185624 197.6181245 72.61749983 197.65129357 61.20293123 197.7082895 C53.17563587 197.7470041 45.14843155 197.76652319 37.12104529 197.77180922 C32.32743752 197.7754608 27.53419305 197.78746137 22.74068642 197.81991196 C18.22864914 197.85001907 13.71719446 197.85629507 9.20507812 197.8445282 C7.55231745 197.84430768 5.89952953 197.85259488 4.24686241 197.87018204 C-12.1593228 198.03521688 -12.1593228 198.03521688 -18.05235291 192.26069641 C-21.88698264 187.18908934 -22.17765496 182.68938267 -22.1927948 176.45558167 C-22.19576592 175.7717717 -22.19873704 175.08796173 -22.2017982 174.38343024 C-22.21046747 172.09283206 -22.21199195 169.80228625 -22.21348572 167.51167297 C-22.21811517 165.86891061 -22.22314 164.22614932 -22.22853088 162.58338928 C-22.24164518 158.12042182 -22.24809802 153.65746939 -22.25254154 149.19448566 C-22.25547401 146.40502788 -22.25957916 143.61557419 -22.26404572 140.82611847 C-22.27771848 132.09519477 -22.28738605 123.36428046 -22.29124761 114.6333468 C-22.29572708 104.56111751 -22.31327075 94.48902402 -22.3422482 84.41683602 C-22.36387909 76.6273077 -22.37395265 68.83781753 -22.37528872 61.0482595 C-22.3763358 56.39785016 -22.38222282 51.74756852 -22.40010834 47.09719086 C-22.41661321 42.72066843 -22.41873282 38.34436934 -22.40996933 33.96782684 C-22.40920023 32.36507061 -22.41352487 30.76230224 -22.42342758 29.15957642 C-22.52758825 11.24513694 -22.52758825 11.24513694 -17.74197769 5.75831985 C-12.46479521 0.93609439 -6.92703702 0.01161536 0 0 Z M1.94764709 24.26069641 C1.94764709 73.76069641 1.94764709 123.26069641 1.94764709 174.26069641 C51.44764709 174.26069641 100.94764709 174.26069641 151.94764709 174.26069641 C151.94764709 124.76069641 151.94764709 75.26069641 151.94764709 24.26069641 C102.44764709 24.26069641 52.94764709 24.26069641 1.94764709 24.26069641 Z " fill="#FFDA6A" transform="translate(203.05235290527344,156.7393035888672)"/>
<path d="M0 0 C0 3.96 0 7.92 0 12 C-2.77627808 12.03758423 -2.77627808 12.03758423 -5.60864258 12.07592773 C-11.76335005 12.16024503 -17.9179917 12.24849017 -24.07260609 12.33933926 C-27.79959795 12.39421314 -31.52659797 12.44757093 -35.25366211 12.49731445 C-38.85879635 12.54548891 -42.46384909 12.59784096 -46.0688839 12.65294075 C-47.43577702 12.67312692 -48.80269226 12.6918749 -50.16962624 12.70907402 C-65.01189387 12.16215474 -65.01189387 12.16215474 -79 16 C-81.84112719 20.41818588 -81.30701045 25.76243966 -81.31884766 30.83911133 C-81.32889328 31.82495209 -81.3389389 32.81079285 -81.34928894 33.82650757 C-81.38012873 37.07834298 -81.39715848 40.33009602 -81.4140625 43.58203125 C-81.43277348 45.83933725 -81.45234684 48.09663625 -81.4727478 50.35392761 C-81.52408222 56.29027176 -81.56370108 62.22663858 -81.60089111 68.16308594 C-81.64092244 74.22271338 -81.69201879 80.28224638 -81.7421875 86.34179688 C-81.83896237 98.22779824 -81.92336228 110.11385293 -82 122 C-81.2069043 122.30035156 -80.41380859 122.60070312 -79.59667969 122.91015625 C-75.4229074 124.66191626 -73.02296201 127.95407599 -71 132 C-70.2765242 137.95264898 -69.98624964 143.44282751 -73.4375 148.5625 C-76.97902821 152.53531502 -80.71992721 154.40768414 -86 155 C-91.16881432 154.80001611 -94.84667349 153.90793789 -98.9375 150.6875 C-99.9584375 149.3571875 -99.9584375 149.3571875 -101 148 C-101.598125 147.278125 -102.19625 146.55625 -102.8125 145.8125 C-105.05945421 140.49076635 -104.71162732 135.09534711 -102.875 129.6875 C-100.55657114 126.36441863 -98.28417332 124.37578496 -95 122 C-94.34 122 -93.68 122 -93 122 C-93.03029297 121.25508301 -93.06058594 120.51016602 -93.09179688 119.74267578 C-93.91204627 98.43827519 -94.18584646 77.12245775 -94.28710938 55.80389404 C-94.30192284 52.81533926 -94.32630856 49.82709685 -94.35888672 46.83868408 C-94.39733769 43.25309618 -94.41544265 39.66793451 -94.41895103 36.0821476 C-94.42558614 34.10880876 -94.45185317 32.13556646 -94.47871399 30.16239929 C-94.45861145 21.76259014 -93.26182599 15.58208889 -88.359375 8.6953125 C-87.82828125 8.17710937 -87.2971875 7.65890625 -86.75 7.125 C-86.22921875 6.59132813 -85.7084375 6.05765625 -85.171875 5.5078125 C-77.32823904 0.06241055 -68.73742604 0.52735366 -59.58984375 0.48828125 C-58.0934556 0.4714015 -56.59708134 0.45324693 -55.10072327 0.43388367 C-51.17935574 0.38658189 -47.25804436 0.35666344 -43.33648682 0.33044434 C-39.35636925 0.3006732 -35.37645317 0.25402083 -31.39648438 0.20898438 C-20.93121894 0.09463783 -10.46599848 -0.00942118 0 0 Z " fill="#FFDA6A" transform="translate(172,302)"/>
<path d="M0 0 C2.12584664 2.32514477 2.91756359 4.26395522 4 7.1875 C5.01984985 7.17178955 5.01984985 7.17178955 6.06030273 7.15576172 C9.18599649 7.11379897 12.31163066 7.08804709 15.4375 7.0625 C16.50677734 7.04574219 17.57605469 7.02898437 18.67773438 7.01171875 C27.98356841 6.95480233 35.80272829 7.38727129 43.20703125 13.40234375 C48.24668721 18.42004043 51.0680285 24.00451501 51.2109375 31.1171875 C51.23929687 32.07753906 51.26765625 33.03789062 51.296875 34.02734375 C51.34875257 36.04278732 51.39308451 38.05843993 51.4296875 40.07421875 C51.5953343 47.13298688 51.5953343 47.13298688 55 53.1875 C59.48127644 57.10861688 63.57609987 57.34561018 69.31713867 57.39282227 C70.05884811 57.40272186 70.80055756 57.41262146 71.56474304 57.42282104 C74.01578583 57.45440257 76.466848 57.47918021 78.91796875 57.50390625 C80.61762495 57.52447867 82.31727607 57.54547522 84.016922 57.56687927 C88.49014163 57.6220702 92.96340721 57.67149262 97.43670654 57.71972656 C102.00146574 57.76996332 106.56615823 57.82563804 111.13085938 57.88085938 C120.08718259 57.98840452 129.04356373 58.0898576 138 58.1875 C138 61.8175 138 65.4475 138 69.1875 C127.57715422 69.28035808 117.15440756 69.35134514 106.73123169 69.39474869 C101.89082177 69.41558485 97.05069577 69.44382966 92.21044922 69.48925781 C87.53552476 69.53285758 82.86087266 69.55666696 78.1857605 69.56700897 C76.40603348 69.57437504 74.62632064 69.58875922 72.84671021 69.61042023 C70.34540094 69.63964278 67.84520368 69.64344825 65.34375 69.64160156 C64.61510239 69.65598267 63.88645477 69.67036377 63.13572693 69.68518066 C56.73698807 69.63437598 51.71315238 67.4300525 46.79296875 63.36328125 C46.26316406 62.74839844 45.73335938 62.13351563 45.1875 61.5 C44.37345703 60.59701172 44.37345703 60.59701172 43.54296875 59.67578125 C38.79049709 52.01166873 38.56709906 44.15813567 38.56054688 35.38476562 C38.43833561 29.8768305 37.86064623 26.44546831 34 22.1875 C30.29800321 20.342872 27.15223423 19.89987644 23.04296875 19.7734375 C21.93115234 19.73476562 20.81933594 19.69609375 19.67382812 19.65625 C18.52333984 19.6253125 17.37285156 19.594375 16.1875 19.5625 C15.01767578 19.52382812 13.84785156 19.48515625 12.64257812 19.4453125 C9.76187436 19.3512487 6.88117346 19.26560123 4 19.1875 C3.69892334 19.9805957 3.39784668 20.77369141 3.08764648 21.59082031 C1.48173244 25.42482746 -0.66953912 26.74063078 -4 29.1875 C-9.1671159 30.90987197 -14.10599758 30.84311622 -19.25 29.0625 C-23.08084349 26.45056126 -25.90161815 23.38426371 -28 19.1875 C-28.72218508 12.04852291 -28.44960235 6.92514514 -24 1.1875 C-16.49420794 -4.88101273 -8.22170992 -4.96728307 0 0 Z " fill="#FFDA6A" transform="translate(34,136.8125)"/>
<path d="M0 0 C4.90331294 2.27653815 7.5537698 5.19814071 10 10 C11.61804054 16.07319327 11.19752962 20.45761533 8 26 C3.98039216 30.50980392 3.98039216 30.50980392 1 32 C0.84717604 38.95568512 0.74250328 45.91093334 0.67041016 52.86791992 C0.64033961 55.23169128 0.59947154 57.59535199 0.54736328 59.95874023 C0.47412262 63.36730318 0.44044475 66.77438423 0.4140625 70.18359375 C0.38309479 71.23083115 0.35212708 72.27806854 0.32022095 73.35704041 C0.31685558 80.78570659 2.08352154 85.40632323 7 91 C9.56971319 93.46159302 12.26347728 95.72756593 15 98 C23.51314378 105.63761259 31.20501754 114.18883196 32 126 C32.11694889 129.02267903 32.09765263 131.97276852 32 135 C28.04 135 24.08 135 20 135 C19.83723958 132.33072917 19.67447917 129.66145833 19.51171875 126.9921875 C17.82125375 117.10748377 9.19084997 109.55725027 1.8125 103.375 C-5.31343835 97.33093488 -11.32629012 89.90090845 -12.26213074 80.31495667 C-12.34553689 77.22646287 -12.33749582 74.15179502 -12.29296875 71.0625 C-12.28872391 69.94182129 -12.28447906 68.82114258 -12.28010559 67.66650391 C-12.26340311 64.11075126 -12.22576568 60.55557941 -12.1875 57 C-12.17244231 54.57943531 -12.1587558 52.15886167 -12.14648438 49.73828125 C-12.1135272 43.82532492 -12.06341202 37.91270397 -12 32 C-12.7930957 31.69892334 -13.58619141 31.39784668 -14.40332031 31.08764648 C-18.23732746 29.48173244 -19.55313078 27.33046088 -22 24 C-23.72237197 18.8328841 -23.65561622 13.89400242 -21.875 8.75 C-16.16508512 0.37545818 -9.7188712 -0.90319353 0 0 Z " fill="#FFDA6A" transform="translate(183,13)"/>
<path d="M0 0 C3.5 0.25 3.5 0.25 5.5 2.25 C5.74050903 4.31277466 5.74050903 4.31277466 5.72705078 6.88330078 C5.72689972 7.84414581 5.72674866 8.80499084 5.72659302 9.79495239 C5.71627045 10.83457123 5.70594788 11.87419006 5.6953125 12.9453125 C5.6924826 14.00789276 5.68965271 15.07047302 5.68673706 16.16525269 C5.67551639 19.56861499 5.65040837 22.97171686 5.625 26.375 C5.61497264 28.67838162 5.60584637 30.98176736 5.59765625 33.28515625 C5.57557093 38.94019345 5.54207489 44.59507813 5.5 50.25 C6.18102783 50.23428955 6.86205566 50.2185791 7.5637207 50.20239258 C10.64656281 50.14006778 13.72927244 50.10101742 16.8125 50.0625 C17.88435547 50.03736328 18.95621094 50.01222656 20.06054688 49.98632812 C21.08857422 49.97666016 22.11660156 49.96699219 23.17578125 49.95703125 C24.12364502 49.9413208 25.07150879 49.92561035 26.0480957 49.90942383 C28.5 50.25 28.5 50.25 30.3085022 51.28527832 C32.16917843 54.35344254 31.91669266 57.4955158 31.88818359 60.97851562 C31.89344055 61.76417404 31.89869751 62.54983246 31.90411377 63.35929871 C31.91732666 65.95848421 31.90857134 68.55705818 31.8984375 71.15625 C31.90045787 72.96081663 31.903369 74.76538246 31.90713501 76.56994629 C31.9115601 80.35286224 31.90512139 84.13556576 31.89111328 87.91845703 C31.87402125 92.77106892 31.88386144 97.62318306 31.90183067 102.47577667 C31.91266353 106.2023698 31.90922447 109.92884463 31.9014473 113.65544128 C31.89944391 115.44484007 31.90190942 117.23424955 31.90888596 119.02363586 C31.91649232 121.52320873 31.90490821 124.02197192 31.88818359 126.52148438 C31.89729263 127.63435066 31.89729263 127.63435066 31.90658569 128.7696991 C31.87088763 131.64485927 31.81864823 133.74782408 30.25520325 136.21174622 C28.02834083 137.52900012 26.61269581 137.61229156 24.02856445 137.59057617 C23.12785721 137.59034958 22.22714996 137.59012299 21.29914856 137.58988953 C19.84589424 137.56666374 19.84589424 137.56666374 18.36328125 137.54296875 C17.36870407 137.53872391 16.37412689 137.53447906 15.34941101 137.53010559 C12.17016625 137.51330153 8.99155344 137.47564576 5.8125 137.4375 C3.65821227 137.42245541 1.50391462 137.40876662 -0.65039062 137.39648438 C-5.93383755 137.36339227 -11.2168116 137.31159771 -16.5 137.25 C-16.5 133.62 -16.5 129.99 -16.5 126.25 C-4.62 126.25 7.26 126.25 19.5 126.25 C19.5 104.8 19.5 83.35 19.5 61.25 C11.91 61.25 4.32 61.25 -3.5 61.25 C-6.12414755 58.62585245 -5.75298097 57.48018938 -5.75878906 53.82226562 C-5.76509338 52.68768921 -5.77139771 51.55311279 -5.77789307 50.38415527 C-5.7738446 49.15394653 -5.76979614 47.92373779 -5.765625 46.65625 C-5.76753845 45.39864868 -5.7694519 44.14104736 -5.77142334 42.84533691 C-5.77278649 40.18207125 -5.77008006 37.5191707 -5.76074219 34.85595703 C-5.74934752 31.43928606 -5.75590748 28.02292928 -5.76788712 24.60626984 C-5.77684454 21.35208521 -5.77057628 18.09793873 -5.765625 14.84375 C-5.77169769 12.99843689 -5.77169769 12.99843689 -5.77789307 11.11584473 C-5.76843658 9.4139801 -5.76843658 9.4139801 -5.75878906 7.67773438 C-5.75640228 6.17454651 -5.75640228 6.17454651 -5.75396729 4.64099121 C-5.32030203 0.55822197 -3.94852132 0.28203724 0 0 Z " fill="#FFD96A" transform="translate(404.5,46.75)"/>
<path d="M0 0 C3.63 0 7.26 0 11 0 C11.09912916 7.68632272 11.17159374 15.37227046 11.21972656 23.05908203 C11.23979933 25.67210373 11.26706358 28.28508075 11.30175781 30.89794922 C11.35046435 34.66124522 11.37301311 38.42394549 11.390625 42.1875 C11.41127014 43.34926758 11.43191528 44.51103516 11.45318604 45.70800781 C11.45571577 54.92299458 9.37189334 61.09711555 3 68 C0.9937231 69.75396621 -1.03070222 71.47412234 -3.09765625 73.15625 C-8.0058632 77.91328015 -8.4478847 82.22183909 -8.55664062 88.77539062 C-8.55857422 89.86013672 -8.56050781 90.94488281 -8.5625 92.0625 C-8.59923828 93.15111328 -8.63597656 94.23972656 -8.67382812 95.36132812 C-8.69046235 98.36473003 -8.63243438 101.06293673 -8 104 C-5.25324287 106.7155431 -5.25324287 106.7155431 -2 108 C1.42883752 112.13825218 2.13166669 116.74211007 2 122 C0.85181192 128.23142853 -1.90379667 131.42181468 -7 135 C-11.18365063 137.09182531 -16.44407619 136.42935408 -21 136 C-25.47870656 133.84062362 -28.18198188 131.07047061 -31 127 C-32.72237197 121.8328841 -32.65561622 116.89400242 -30.875 111.75 C-28.5677584 108.36604565 -26.31802118 106.40027064 -23 104 C-22.34 104 -21.68 104 -21 104 C-21.01571045 103.28457031 -21.0314209 102.56914062 -21.04760742 101.83203125 C-21.11040747 98.55476961 -21.14913303 95.2776351 -21.1875 92 C-21.22520508 90.31197266 -21.22520508 90.31197266 -21.26367188 88.58984375 C-21.34451602 79.37361078 -20.39775984 72.88019899 -13.75 66 C-12.96109375 65.16339844 -12.1721875 64.32679688 -11.359375 63.46484375 C-10.19148438 62.24474609 -10.19148438 62.24474609 -9 61 C-7.65672282 59.52985775 -6.32234201 58.05150081 -5 56.5625 C-4.443125 55.94503906 -3.88625 55.32757813 -3.3125 54.69140625 C-0.9464411 51.64228868 -0.86018453 48.78475117 -0.79467773 45.06958008 C-0.77473251 44.06876907 -0.75478729 43.06795807 -0.73423767 42.03681946 C-0.70916893 40.4195118 -0.70916893 40.4195118 -0.68359375 38.76953125 C-0.66281265 37.66397385 -0.64203156 36.55841644 -0.62062073 35.4193573 C-0.55517668 31.8838021 -0.49626397 28.34817194 -0.4375 24.8125 C-0.3943099 22.41730992 -0.35069546 20.02212745 -0.30664062 17.62695312 C-0.19950048 11.75137912 -0.09821832 5.87572964 0 0 Z " fill="#FFDA6A" transform="translate(339,364)"/>
<path d="M0 0 C6.0505912 -0.07416805 12.10091765 -0.12861087 18.15185547 -0.16479492 C20.21017059 -0.1798795 22.26845358 -0.20034987 24.32666016 -0.22631836 C27.28556244 -0.26271585 30.24403967 -0.27972966 33.203125 -0.29296875 C34.12305237 -0.30845261 35.04297974 -0.32393646 35.99078369 -0.33988953 C42.34557306 -0.34156274 42.34557306 -0.34156274 45.54980469 1.33081055 C48.1176439 4.28641941 48.12313861 7.09908165 48.11352539 10.83862305 C48.11344986 11.8194133 48.11337433 12.80020355 48.11329651 13.81071472 C48.10813522 14.86704605 48.10297394 15.92337738 48.09765625 17.01171875 C48.0962413 18.09508011 48.09482635 19.17844147 48.09336853 20.29463196 C48.08776559 23.75894925 48.07521258 27.2232022 48.0625 30.6875 C48.05748538 33.03450428 48.05292241 35.38150956 48.04882812 37.72851562 C48.03779521 43.48569908 48.0210542 49.24284494 48 55 C49.1175341 54.98334541 49.1175341 54.98334541 50.25764465 54.96635437 C57.27622401 54.86620026 64.29455622 54.7900602 71.31364918 54.74093914 C74.92238133 54.71483606 78.53052348 54.67942778 82.13891602 54.62280273 C85.62081896 54.56850413 89.10215424 54.53858482 92.58444786 54.52561378 C94.56054298 54.51186822 96.53640941 54.47283075 98.51216125 54.43351746 C99.71317978 54.4331398 100.9141983 54.43276215 102.15161133 54.43237305 C103.21084305 54.42126999 104.27007477 54.41016693 105.36140442 54.39872742 C108 55 108 55 109.91239929 57.36360168 C111 60 111 60 110.25 62.75 C109 65 109 65 108 66 C105.83280414 66.10483132 103.66215113 66.13856845 101.49243164 66.14526367 C100.81274826 66.14862228 100.13306488 66.1519809 99.43278503 66.15544128 C97.17522376 66.16497745 94.91773644 66.16689573 92.66015625 66.16796875 C91.09695911 66.17117951 89.53376229 66.17454344 87.9705658 66.17805481 C84.68943586 66.18405278 81.4083323 66.18589403 78.12719727 66.18530273 C73.91574556 66.18520108 69.70446233 66.19885364 65.49305058 66.21607494 C62.26321125 66.2271751 59.0334129 66.22922256 55.80355644 66.22869301 C54.2505682 66.22987612 52.69757901 66.2343163 51.14460945 66.24202538 C48.97527277 66.25178539 46.80630508 66.24896328 44.63696289 66.24291992 C43.40087784 66.24434494 42.16479279 66.24576996 40.89125061 66.24723816 C38 66 38 66 36 64 C35.75949097 61.78536987 35.75949097 61.78536987 35.77294922 58.99951172 C35.77310028 57.95858368 35.77325134 56.91765564 35.77340698 55.84518433 C35.78889084 54.1545134 35.78889084 54.1545134 35.8046875 52.4296875 C35.8075174 51.27832306 35.81034729 50.12695862 35.81326294 48.94070435 C35.82448592 45.25203188 35.84959444 41.56359947 35.875 37.875 C35.88502706 35.37890975 35.89415338 32.8828157 35.90234375 30.38671875 C35.92273322 24.25764491 35.96187849 18.12909215 36 12 C24.12 12 12.24 12 0 12 C0 8.04 0 4.08 0 0 Z " fill="#FFDA6A" transform="translate(388,302)"/>
<path d="M0 0 C2.375 0.8125 2.375 0.8125 4.375 2.8125 C4.63569641 5.46250916 4.63569641 5.46250916 4.6496582 8.86694336 C4.66395622 10.77418434 4.66395622 10.77418434 4.67854309 12.71995544 C4.67828167 14.11408516 4.67734465 15.50821489 4.67578125 16.90234375 C4.67966688 18.32719549 4.68400127 19.75204607 4.68876648 21.17689514 C4.69623454 24.16541292 4.69593334 27.15381259 4.69067383 30.14233398 C4.68487989 33.97375674 4.70180497 37.80469598 4.7250185 41.63603878 C4.73974504 44.57942028 4.74062902 47.52268507 4.73750877 50.46609688 C4.73802259 51.87870809 4.74327161 53.29132573 4.75332069 54.70390129 C4.7656447 56.67878413 4.75696515 58.6537644 4.74731445 60.62866211 C4.74794388 61.75292099 4.7485733 62.87717987 4.7492218 64.0355072 C4.375 66.8125 4.375 66.8125 1.375 69.8125 C-3.905 69.8125 -9.185 69.8125 -14.625 69.8125 C-14.625 93.5725 -14.625 117.3325 -14.625 141.8125 C-18.585 141.8125 -22.545 141.8125 -26.625 141.8125 C-26.71759624 131.30329955 -26.78871219 120.79419581 -26.83224869 110.28467083 C-26.85314192 105.40488485 -26.88149113 100.52537753 -26.92675781 95.64575195 C-26.97015381 90.93843146 -26.99412402 86.23137934 -27.00450897 81.52387428 C-27.0119116 79.72605983 -27.02636696 77.92826041 -27.04792023 76.13055992 C-27.0768718 73.61625568 -27.08095956 71.10306659 -27.07910156 68.58862305 C-27.09348267 67.84199905 -27.10786377 67.09537506 -27.12268066 66.3261261 C-27.09675126 63.09278678 -27.05811423 61.28988594 -24.83978271 58.84480286 C-21.43259193 57.25672256 -18.04898339 57.49842283 -14.375 57.625 C-13.25738281 57.64530273 -13.25738281 57.64530273 -12.1171875 57.66601562 C-10.28614584 57.70122796 -8.45547831 57.75503149 -6.625 57.8125 C-6.63388245 57.13011765 -6.64276489 56.44773529 -6.6519165 55.74467468 C-6.74026393 48.65612141 -6.80068205 41.56772395 -6.84472656 34.47875977 C-6.86486848 31.83155975 -6.89218355 29.18440437 -6.92675781 26.53735352 C-6.97516051 22.73703005 -6.9979433 18.93729369 -7.015625 15.13671875 C-7.04659271 13.35535774 -7.04659271 13.35535774 -7.07818604 11.53800964 C-7.07848816 10.43709488 -7.07879028 9.33618011 -7.07910156 8.2019043 C-7.08798401 7.23149704 -7.09686646 6.26108978 -7.10601807 5.26127625 C-6.625 2.8125 -6.625 2.8125 -4.76068115 0.96394348 C-2.625 -0.1875 -2.625 -0.1875 0 0 Z " fill="#FFDA6A" transform="translate(345.625,6.1875)"/>
<path d="M0 0 C4.30505869 1.27472482 6.67243993 3.58005119 9.4375 7.125 C11.67279236 11.60521961 11.65548986 16.11214967 11 21 C9.20646165 26.28097404 6.39000798 28.79895251 2 32 C-2.35049665 33.45016555 -6.45334185 33.51070107 -11 33 C-14.61614497 31.19192751 -16.49195053 29.78613122 -18.68243408 26.39668274 C-21.32103359 23.66800699 -22.7806138 23.39952985 -26.51112366 23.31443787 C-27.59761452 23.32737633 -27.59761452 23.32737633 -28.70605469 23.34057617 C-29.86272896 23.32485062 -29.86272896 23.32485062 -31.04277039 23.30880737 C-33.58621444 23.28005423 -36.12829752 23.28634873 -38.671875 23.29296875 C-40.43737494 23.27985378 -42.20285988 23.26455018 -43.96832275 23.24714661 C-48.61098122 23.20725979 -53.25324752 23.19710382 -57.89605713 23.19311523 C-62.63525314 23.1837907 -67.37421806 23.14638145 -72.11328125 23.11132812 C-81.40884334 23.04671488 -90.70423301 23.01350546 -100 23 C-100 19.04 -100 15.08 -100 11 C-73.93 11 -47.86 11 -21 11 C-20.67 9.68 -20.34 8.36 -20 7 C-13.68997995 0.02576732 -9.16067829 -0.93742692 0 0 Z " fill="#FFDA6A" transform="translate(488,238)"/>
<path d="M0 0 C3.96 0 7.92 0 12 0 C12.06800516 7.42407057 12.1229475 14.84796852 12.15543652 22.27228546 C12.17103628 25.72037914 12.19216893 29.16824712 12.22631836 32.61621094 C12.26540455 36.58786235 12.27975629 40.55942505 12.29296875 44.53125 C12.30845261 45.75863892 12.32393646 46.98602783 12.33988953 48.25061035 C12.34132146 55.58490438 12.14780257 62.05190865 7.38671875 68.0234375 C6.82597656 68.46945312 6.26523438 68.91546875 5.6875 69.375 C4.85798828 70.06722656 4.85798828 70.06722656 4.01171875 70.7734375 C-1.11623972 73.89999859 -6.26623904 74.29127021 -12.13671875 74.30859375 C-13.69857184 74.33372911 -15.26042071 74.35912745 -16.82226562 74.38476562 C-19.26472086 74.41360479 -21.70710356 74.43764968 -24.1496582 74.45629883 C-26.52070038 74.4779034 -28.89094978 74.51730509 -31.26171875 74.55859375 C-31.99299484 74.55870956 -32.72427094 74.55882538 -33.47770691 74.5589447 C-36.30210673 74.61425549 -38.48943085 74.70101692 -40.95825195 76.14672852 C-42.46967082 78.83554516 -42.38637675 81.02062289 -42.40625 84.09375 C-42.42816406 85.28871094 -42.45007813 86.48367188 -42.47265625 87.71484375 C-42.48167969 88.96394531 -42.49070313 90.21304688 -42.5 91.5 C-42.51783507 93.96888336 -42.54848025 96.43771728 -42.59375 98.90625 C-42.60438477 100.55077148 -42.60438477 100.55077148 -42.61523438 102.22851562 C-43 105 -43 105 -44.30273438 106.85742188 C-47.15089758 108.77476995 -49.69323483 108.36073802 -53 108 C-56.34722504 102.97916244 -55.32736007 97.1464754 -55.3125 91.25 C-55.32861328 89.98671875 -55.34472656 88.7234375 -55.36132812 87.421875 C-55.3684115 73.93513476 -55.3684115 73.93513476 -50.3515625 68.07421875 C-49.78179687 67.61660156 -49.21203125 67.15898437 -48.625 66.6875 C-48.06039062 66.21699219 -47.49578125 65.74648438 -46.9140625 65.26171875 C-42.09600307 62.08573263 -37.64662869 61.71881577 -31.99609375 61.7265625 C-30.43553956 61.70628442 -28.87499272 61.68543386 -27.31445312 61.6640625 C-24.86980945 61.64142463 -22.42545678 61.62497128 -19.98071289 61.61914062 C-17.61031434 61.60962191 -15.24120362 61.57587126 -12.87109375 61.5390625 C-11.77721596 61.54663071 -11.77721596 61.54663071 -10.66123962 61.55435181 C-7.41316763 61.49139569 -5.4247908 61.32521589 -2.80989075 59.32327271 C-0.56471314 56.44124247 -0.48617345 54.93759935 -0.45410156 51.31347656 C-0.43438293 50.17259583 -0.41466431 49.03171509 -0.39434814 47.85626221 C-0.39250519 46.01702179 -0.39250519 46.01702179 -0.390625 44.140625 C-0.37408875 42.88111023 -0.35755249 41.62159546 -0.34051514 40.32391357 C-0.30017166 36.98317327 -0.27685176 33.64319576 -0.26177979 30.30230713 C-0.24219495 26.89018257 -0.20022668 23.47834085 -0.16015625 20.06640625 C-0.08614912 13.37763528 -0.03664901 6.68907579 0 0 Z " fill="#FFDA6A" transform="translate(203,364)"/>
<path d="M0 0 C1.30880127 0.00094414 1.30880127 0.00094414 2.64404297 0.00190735 C3.6351709 -0.00432144 4.62629883 -0.01055023 5.64746094 -0.01696777 C7.25065186 -0.00315315 7.25065186 -0.00315315 8.88623047 0.01094055 C9.98467285 0.01044205 11.08311523 0.00994354 12.21484375 0.00942993 C14.53826709 0.01177143 16.86169292 0.02150432 19.18505859 0.03804016 C22.74713761 0.06162848 26.30846824 0.05860196 29.87060547 0.05195618 C32.12581828 0.05753293 34.38102793 0.0646428 36.63623047 0.07344055 C37.70502441 0.07252914 38.77381836 0.07161774 39.875 0.07067871 C40.86612793 0.08021072 41.85725586 0.08974274 42.87841797 0.0995636 C43.75095215 0.10417099 44.62348633 0.10877838 45.52246094 0.11352539 C47.76123047 0.3742218 47.76123047 0.3742218 50.76123047 2.3742218 C51.73991199 5.23498318 51.98258158 6.76124949 50.94873047 9.6242218 C49.76123047 11.3742218 49.76123047 11.3742218 47.76123047 12.3742218 C44.69880726 12.46133955 41.65936582 12.4897064 38.59716797 12.47187805 C37.68996002 12.4704631 36.78275208 12.46904816 35.84805298 12.46759033 C32.94407891 12.46198276 30.04018132 12.44942898 27.13623047 12.4367218 C25.17008575 12.43170778 23.20393982 12.4271447 21.23779297 12.42304993 C16.41224257 12.41201087 11.58674949 12.39474115 6.76123047 12.3742218 C6.77694092 13.17118469 6.79265137 13.96814758 6.80883789 14.78926086 C6.87120635 18.40084231 6.91022786 22.01231042 6.94873047 25.6242218 C6.97386719 26.87847961 6.99900391 28.13273743 7.02490234 29.42500305 C7.03457031 30.63027649 7.04423828 31.83554993 7.05419922 33.0773468 C7.06990967 34.18755188 7.08562012 35.29775696 7.10180664 36.44160461 C6.70359865 39.87047515 6.25017049 41.00219605 3.76123047 43.3742218 C1.17936144 43.75682161 -0.97598502 43.88133625 -3.5559082 43.82832336 C-4.29761765 43.82890747 -5.03932709 43.82949158 -5.80351257 43.83009338 C-8.25506397 43.82730667 -10.70539933 43.79618886 -13.15673828 43.7648468 C-14.85638261 43.75738646 -16.55603553 43.75169255 -18.25569153 43.74769592 C-22.72919462 43.73242323 -27.20217823 43.69312765 -31.67547607 43.64888 C-36.24012219 43.60796237 -40.80485225 43.58969243 -45.36962891 43.5695343 C-54.32623736 43.52663472 -63.28246025 43.45836384 -72.23876953 43.3742218 C-72.23876953 39.7442218 -72.23876953 36.1142218 -72.23876953 32.3742218 C-50.12876953 32.3742218 -28.01876953 32.3742218 -5.23876953 32.3742218 C-5.23876953 22.8042218 -5.23876953 13.2342218 -5.23876953 3.3742218 C-2.23876953 0.3742218 -2.23876953 0.3742218 0 0 Z " fill="#FFDA6A" transform="translate(460.23876953125,162.6257781982422)"/>
<path d="M0 0 C4.75982924 2.62772498 7.04616381 6.26349144 8.75 11.375 C9.17141936 16.8534517 8.424874 20.56022681 5.75 25.375 C3.8563618 27.37973164 2.03317857 28.77191717 -0.25 30.375 C-0.91 30.375 -1.57 30.375 -2.25 30.375 C-2.18091287 34.55648877 -2.09284758 38.73702754 -1.98754883 42.91772461 C-1.95439443 44.33851202 -1.92633308 45.75942813 -1.90356445 47.18041992 C-1.86984153 49.2289082 -1.81752255 51.2762272 -1.76171875 53.32421875 C-1.73553467 54.55487061 -1.70935059 55.78552246 -1.68237305 57.0534668 C-1.21681936 60.62989697 -0.43170401 62.52924343 1.75 65.375 C7.01951686 68.35513875 11.71004366 68.88322753 17.6875 69.0625 C18.46673828 69.09666016 19.24597656 69.13082031 20.04882812 69.16601562 C21.94874393 69.2476071 23.84934403 69.31299885 25.75 69.375 C25.75 73.005 25.75 76.635 25.75 80.375 C22.24915355 80.48364696 18.75172828 80.56262825 15.25 80.625 C14.26773438 80.65851563 13.28546875 80.69203125 12.2734375 80.7265625 C4.21314165 80.83403311 -1.02063008 79.24555104 -7.0625 73.875 C-8.1453125 72.6375 -8.1453125 72.6375 -9.25 71.375 C-9.806875 70.75625 -10.36375 70.1375 -10.9375 69.5 C-14.07785136 64.4156216 -14.495508 58.97668213 -14.4453125 53.12890625 C-14.4424826 52.47292953 -14.43965271 51.81695282 -14.43673706 51.14109802 C-14.42565984 49.07303591 -14.40058063 47.00542827 -14.375 44.9375 C-14.36495402 43.52409485 -14.35583102 42.11068283 -14.34765625 40.69726562 C-14.32576184 37.25636606 -14.29132051 33.81572748 -14.25 30.375 C-15.18839722 30.17463135 -15.18839722 30.17463135 -16.14575195 29.97021484 C-18.80516705 29.21796354 -19.69939112 28.1179013 -21.4375 26 C-21.94667969 25.39414063 -22.45585938 24.78828125 -22.98046875 24.1640625 C-25.73745711 20.27882967 -25.83021916 15.95954859 -25.25 11.375 C-23.40337674 5.5396705 -20.73425857 2.29215881 -15.25 -0.625 C-9.85269529 -2.42410157 -5.14951716 -2.31968904 0 0 Z " fill="#FFDA6A" transform="translate(146.25,103.625)"/>
<path d="M0 0 C1.670625 0.37125 1.670625 0.37125 3.375 0.75 C4.96288839 3.92577678 4.52225469 7.3522416 4.52026367 10.83984375 C4.52362228 11.67573029 4.5269809 12.51161682 4.53044128 13.37283325 C4.53996438 16.14440382 4.54189496 18.91591408 4.54296875 21.6875 C4.54617996 23.60799179 4.54954393 25.52848334 4.55305481 27.44897461 C4.55904918 31.47738208 4.56089435 35.50576807 4.56030273 39.53417969 C4.560201 44.70628918 4.57386375 49.87826175 4.59107494 55.05033875 C4.60217006 59.01705564 4.60422273 62.98373914 4.60369301 66.95046997 C4.60487649 68.85792514 4.6093187 70.76538108 4.61702538 72.67282104 C4.62677688 75.33536499 4.62396672 77.99760789 4.61791992 80.66015625 C4.62353943 81.45398712 4.62915894 82.24781799 4.63494873 83.06570435 C4.60331667 88.52168333 4.60331667 88.52168333 2.375 90.75 C-0.20603306 90.92502995 -2.67808163 90.98162279 -5.2578125 90.9453125 C-6.38556595 90.94106766 -6.38556595 90.94106766 -7.53610229 90.93673706 C-9.94089578 90.92552874 -12.34531881 90.90042352 -14.75 90.875 C-16.37890088 90.86497102 -18.00780758 90.85584503 -19.63671875 90.84765625 C-23.63307055 90.82728748 -27.6286199 90.78814149 -31.625 90.75 C-31.625 99.66 -31.625 108.57 -31.625 117.75 C-35.255 117.75 -38.885 117.75 -42.625 117.75 C-42.67436158 112.65968245 -42.71070105 107.56950357 -42.73486328 102.47900391 C-42.74493376 100.74655735 -42.75859089 99.01412784 -42.77587891 97.28173828 C-42.80008162 94.79455361 -42.81147239 92.30759325 -42.8203125 89.8203125 C-42.83063507 89.04317902 -42.84095764 88.26604553 -42.85159302 87.46536255 C-42.85199271 85.55874507 -42.7473214 83.65268964 -42.625 81.75 C-40.625 79.75 -40.625 79.75 -37.27685547 79.52294922 C-35.84859367 79.52326625 -34.42030788 79.53458639 -32.9921875 79.5546875 C-31.86443405 79.55893234 -31.86443405 79.55893234 -30.71389771 79.56326294 C-28.30910422 79.57447126 -25.90468119 79.59957648 -23.5 79.625 C-21.87109912 79.63502898 -20.24219242 79.64415497 -18.61328125 79.65234375 C-14.61704444 79.67441265 -10.62108506 79.70894649 -6.625 79.75 C-6.63166183 78.77725128 -6.63832367 77.80450256 -6.64518738 76.80227661 C-6.70591721 67.64949366 -6.75093342 58.49675141 -6.78043652 49.34381294 C-6.79611411 44.63781483 -6.81739036 39.93197895 -6.85131836 35.22607422 C-6.88383745 30.6873502 -6.90183723 26.14878252 -6.90963173 21.60995102 C-6.91518868 19.87552299 -6.92603963 18.14110383 -6.94219017 16.4067421 C-6.96386587 13.98337342 -6.96697113 11.56065653 -6.96557617 9.13720703 C-6.976362 8.41503998 -6.98714783 7.69287292 -6.9982605 6.94882202 C-6.98576355 4.95169067 -6.98576355 4.95169067 -6.625 1.75 C-3.625 -0.25 -3.625 -0.25 0 0 Z " fill="#FFDA6A" transform="translate(381.625,30.25)"/>
<path d="M0 0 C1.05267563 0.00424484 1.05267563 0.00424484 2.12661743 0.00857544 C4.34761278 0.01968738 6.56819095 0.04477416 8.7890625 0.0703125 C10.30337955 0.08035396 11.81770299 0.08947777 13.33203125 0.09765625 C17.02617508 0.11959696 20.72007801 0.15406375 24.4140625 0.1953125 C24.4140625 4.1553125 24.4140625 8.1153125 24.4140625 12.1953125 C23.46039795 12.20989502 22.5067334 12.22447754 21.52416992 12.23950195 C17.98472665 12.29749042 14.44591926 12.37472208 10.90698242 12.45776367 C9.37551191 12.49101068 7.84391894 12.51904343 6.31225586 12.54174805 C4.10998363 12.57529968 1.90883338 12.6276116 -0.29296875 12.68359375 C-0.97744583 12.68998367 -1.66192291 12.6963736 -2.36714172 12.70295715 C-5.03051507 12.78527469 -7.15099556 12.96065613 -9.5168457 14.23706055 C-11.22232594 17.36098313 -11.0128194 20.56969449 -10.984375 24.0390625 C-10.98724518 24.80456421 -10.99011536 25.57006592 -10.99307251 26.35876465 C-10.9951125 27.97600037 -10.98958713 29.5932608 -10.97705078 31.21044922 C-10.96099508 33.68643341 -10.97690047 36.16078535 -10.99609375 38.63671875 C-10.99411131 40.20833694 -10.9902676 41.77995411 -10.984375 43.3515625 C-10.99044769 44.09224976 -10.99652039 44.83293701 -11.0027771 45.59606934 C-10.96277506 48.51830558 -10.92622399 50.66796335 -9.31665039 53.16235352 C-7.21924342 54.41417026 -5.93189677 54.56392888 -3.49609375 54.56640625 C-2.31950195 54.59250977 -2.31950195 54.59250977 -1.11914062 54.61914062 C0.52407164 54.6282335 2.16730997 54.63346043 3.81054688 54.63476562 C9.83105633 54.7779935 9.83105633 54.7779935 12.984375 57.03515625 C14.4140625 59.1953125 14.4140625 59.1953125 14.3515625 62.3203125 C13.4140625 65.1953125 13.4140625 65.1953125 10.4140625 67.1953125 C7.4760813 67.41907566 4.66345754 67.51968354 1.7265625 67.5078125 C0.94861328 67.52392578 0.17066406 67.54003906 -0.63085938 67.55664062 C-7.13368775 67.56206417 -12.80630586 66.56014491 -17.86328125 62.2578125 C-18.41113281 61.5771875 -18.95898438 60.8965625 -19.5234375 60.1953125 C-20.08933594 59.5146875 -20.65523438 58.8340625 -21.23828125 58.1328125 C-24.16265583 53.92849427 -23.76356878 49.49359068 -23.7890625 44.58203125 C-23.79476257 43.73486038 -23.80046265 42.88768951 -23.80633545 42.0148468 C-23.81577952 40.22190599 -23.82231708 38.42894787 -23.82617188 36.63598633 C-23.83586413 33.90349742 -23.86688712 31.17176512 -23.8984375 28.43945312 C-23.90496928 26.69531695 -23.91021907 24.95117542 -23.9140625 23.20703125 C-23.9264093 22.39433273 -23.9387561 21.58163422 -23.95147705 20.74430847 C-23.92912421 15.00416619 -22.89141264 10.80781218 -18.97265625 6.3671875 C-18.41191406 5.89796875 -17.85117188 5.42875 -17.2734375 4.9453125 C-16.72042969 4.46578125 -16.16742188 3.98625 -15.59765625 3.4921875 C-10.63807585 0.29494343 -5.7843245 -0.0462746 0 0 Z " fill="#FFDA6A" transform="translate(147.5859375,326.8046875)"/>
<path d="M0 0 C2.91722548 -0.08103404 5.83219516 -0.14051081 8.75 -0.1875 C9.575 -0.21263672 10.4 -0.23777344 11.25 -0.26367188 C12.04921875 -0.27333984 12.8484375 -0.28300781 13.671875 -0.29296875 C14.4050293 -0.3086792 15.13818359 -0.32438965 15.89355469 -0.34057617 C18.89737912 0.14509085 19.92066447 0.7157924 22 3 C22.62997663 6.23716289 22.54567786 9.45938134 22.51757812 12.74804688 C22.5245874 13.74828384 22.53159668 14.74852081 22.53881836 15.77906799 C22.55645496 19.09257592 22.54475512 22.40523306 22.53125 25.71875 C22.53394327 28.01656255 22.53782431 30.31437398 22.54284668 32.61218262 C22.54874943 37.43085569 22.5401535 42.24923243 22.52148438 47.06787109 C22.49869476 53.25230241 22.51181363 59.43603943 22.53577423 65.62044525 C22.55021103 70.36616267 22.54563588 75.1117148 22.53526306 79.85743713 C22.53258993 82.13806744 22.53588603 84.41871263 22.54518127 86.69932556 C22.55531171 89.88394057 22.53989409 93.06742275 22.51757812 96.25195312 C22.52567505 97.19958023 22.53377197 98.14720734 22.54211426 99.12355042 C22.45938651 105.4784815 22.45938651 105.4784815 20.13171387 108.12097168 C17.33032389 109.276146 15.83901199 108.97124094 13 108 C10.34553943 105.34553943 10.76366543 103.39597631 10.75115967 99.78579712 C10.75835022 98.91401825 10.76554077 98.04223938 10.77294922 97.14404297 C10.77265717 96.22691528 10.77236511 95.3097876 10.77206421 94.36486816 C10.77346107 91.32387941 10.78903899 88.28313362 10.8046875 85.2421875 C10.80841636 83.13754409 10.81126393 81.03289894 10.81326294 78.92825317 C10.82090936 73.38140086 10.8405665 67.83465283 10.8626709 62.2878418 C10.88310763 56.63071097 10.89226 50.97356333 10.90234375 45.31640625 C10.92381144 34.21089161 10.95795952 23.10545447 11 12 C7.37 12 3.74 12 0 12 C0 8.04 0 4.08 0 0 Z " fill="#FFD96A" transform="translate(388,327)"/>
<path d="M0 0 C3.30040999 0.55006833 4.01985529 0.9185834 6 3.5 C6.36914349 5.5089674 6.36914349 5.5089674 6.36076355 7.8469696 C6.36488754 8.73457977 6.36901154 9.62218994 6.3732605 10.53669739 C6.36247467 11.50773911 6.35168884 12.47878082 6.34057617 13.47924805 C6.34101425 14.50381104 6.34145233 15.52837402 6.34190369 16.58398438 C6.33981059 19.97675511 6.31645451 23.36903414 6.29296875 26.76171875 C6.28737466 29.11155426 6.28310368 31.46139326 6.28010559 33.81123352 C6.26864214 40.00092196 6.23916186 46.19039976 6.20599365 52.38000488 C6.1753252 58.69406281 6.16160714 65.00815471 6.14648438 71.32226562 C6.11429376 83.71493638 6.06307915 96.10745069 6 108.5 C2.04 108.5 -1.92 108.5 -6 108.5 C-6.06948378 95.15685493 -6.12280316 81.81375284 -6.15543652 68.47046375 C-6.17109819 62.27475918 -6.19234593 56.0791783 -6.22631836 49.88354492 C-6.25889345 43.9053952 -6.27684923 37.92736454 -6.28463173 31.94913292 C-6.29017853 29.66734632 -6.30100992 27.38556631 -6.31719017 25.10383034 C-6.33893946 21.90997821 -6.34196792 18.71661924 -6.34057617 15.52270508 C-6.351362 14.57755539 -6.36214783 13.6324057 -6.3732605 12.65861511 C-6.31847007 1.05307834 -6.31847007 1.05307834 0 0 Z " fill="#FFD96A" transform="translate(231,39.5)"/>
<path d="M0 0 C1.1253289 0.01078583 1.1253289 0.01078583 2.27339172 0.02178955 C3.45888863 0.02135147 3.45888863 0.02135147 4.66833496 0.02090454 C7.28728621 0.02230071 9.90595487 0.03787528 12.52485657 0.05352783 C14.33803655 0.05725694 16.15121853 0.0601044 17.96440125 0.06210327 C22.74187258 0.06974776 27.51922274 0.08940321 32.29664612 0.11151123 C37.16957459 0.13195213 42.0425226 0.14110122 46.91548157 0.15118408 C56.48063904 0.17264836 66.04570649 0.20679411 75.61079407 0.24884033 C75.61079407 4.20884033 75.61079407 8.16884033 75.61079407 12.24884033 C65.24924932 12.34149106 54.887803 12.4125803 44.5259285 12.45608902 C39.71455003 12.47697034 34.90345482 12.50529787 30.09223938 12.55059814 C25.44975244 12.59403655 20.80753806 12.61797334 16.16486359 12.6283493 C14.39299477 12.63574429 12.621141 12.65018496 10.84938812 12.67176056 C8.36881185 12.70076849 5.88936402 12.70479752 3.40864563 12.70294189 C2.67496765 12.717323 1.94128967 12.7317041 1.18537903 12.746521 C-2.24021601 12.71876486 -4.09059152 12.46821576 -6.88438416 10.41577148 C-8.38920593 8.24884033 -8.38920593 8.24884033 -8.26420593 5.12384033 C-6.74929182 0.14626539 -4.89531082 0.01966813 0 0 Z " fill="#FFDA6A" transform="translate(96.38920593261719,248.75115966796875)"/>
<path d="M0 0 C2.61350777 3.53618393 2.26882068 7.49843989 2.22705078 11.70605469 C2.22734283 12.47717087 2.22763489 13.24828705 2.22793579 14.04277039 C2.22654493 16.5859206 2.21099527 19.1287761 2.1953125 21.671875 C2.1915815 23.43735596 2.18873494 25.20283899 2.18673706 26.96832275 C2.17910743 31.61095922 2.15946467 36.25347019 2.1373291 40.89605713 C2.11685626 45.63511457 2.10773226 50.37419232 2.09765625 55.11328125 C2.07621817 64.40890925 2.04209027 73.70444418 2 83 C-1.96 83 -5.92 83 -10 83 C-10.09259624 72.49079955 -10.16371219 61.98169581 -10.20724869 51.47217083 C-10.22814192 46.59238485 -10.25649113 41.71287753 -10.30175781 36.83325195 C-10.34515381 32.12593146 -10.36912402 27.41887934 -10.37950897 22.71137428 C-10.3869116 20.91355983 -10.40136696 19.11576041 -10.42292023 17.31805992 C-10.4518718 14.80375568 -10.45595956 12.29056659 -10.45410156 9.77612305 C-10.46848267 9.02949905 -10.48286377 8.28287506 -10.49768066 7.5136261 C-10.47142658 4.23979977 -10.43221064 2.4691924 -8.16693115 0.01008606 C-5.05579948 -1.44012648 -3.22001241 -1.05000405 0 0 Z " fill="#FFDA6A" transform="translate(284,65)"/>
<path d="M0 0 C3.96 0 7.92 0 12 0 C12.06953295 10.08353889 12.12282804 20.16702067 12.15543652 30.25075054 C12.17108754 34.93312236 12.19231556 39.61533006 12.22631836 44.29760742 C12.25893186 48.81689376 12.27685725 53.33602231 12.28463173 57.85541725 C12.29017166 59.57899268 12.30098984 61.30255954 12.31719017 63.02606773 C12.33899113 65.4416401 12.34196585 67.85656176 12.34057617 70.2722168 C12.35675491 71.33928864 12.35675491 71.33928864 12.3732605 72.42791748 C12.34630095 76.7632703 11.76186557 79.60486072 9 83 C5.91464818 83.5142253 4.0235562 83.64561737 1.33378601 81.94902039 C-0.7260233 78.93908453 -0.39205176 75.8343262 -0.34057617 72.31567383 C-0.34101425 71.5349501 -0.34145233 70.75422638 -0.34190369 69.94984436 C-0.33981324 67.36865247 -0.3164706 64.7881097 -0.29296875 62.20703125 C-0.28737369 60.41770279 -0.28310317 58.62836973 -0.28010559 56.83903503 C-0.26864968 52.12890948 -0.23917611 47.41906134 -0.20599365 42.70904541 C-0.17530883 37.90307366 -0.16160365 33.09705709 -0.14648438 28.29101562 C-0.1143071 18.86055518 -0.06310175 9.43030066 0 0 Z " fill="#FFDA6A" transform="translate(274,364)"/>
<path d="M0 0 C1.08089401 0.00022659 2.16178802 0.00045319 3.2754364 0.00068665 C4.44113663 0.0161705 5.60683685 0.03165436 6.80786133 0.04760742 C8.00220291 0.05185226 9.19654449 0.05609711 10.42707825 0.06047058 C14.24824402 0.07728658 18.06888574 0.11494524 21.88989258 0.15307617 C24.4777756 0.16811918 27.06566687 0.18180825 29.65356445 0.1940918 C36.00337628 0.22719984 42.35279553 0.27900317 48.70239258 0.34057617 C48.70239258 4.30057617 48.70239258 8.26057617 48.70239258 12.34057617 C41.06691625 12.41461854 33.43164794 12.46912774 25.79589844 12.50537109 C23.19722861 12.52047681 20.59858434 12.54096251 18 12.56689453 C14.269223 12.6031986 10.53878245 12.62028475 6.80786133 12.63354492 C5.05931099 12.65677071 5.05931099 12.65677071 3.2754364 12.6804657 C2.19454239 12.68069229 1.11364838 12.68091888 0 12.68115234 C-0.95264236 12.68781418 -1.90528473 12.69447601 -2.88679504 12.70133972 C-5.29760742 12.34057617 -5.29760742 12.34057617 -7.10527039 11.00679016 C-8.95757074 8.41832006 -8.68332136 6.42628765 -8.29760742 3.34057617 C-5.93568372 0.03994037 -3.92276777 -0.02743194 0 0 Z " fill="#FFDA6B" transform="translate(123.297607421875,273.659423828125)"/>
<path d="M0 0 C1.08089401 0.00022659 2.16178802 0.00045319 3.2754364 0.00068665 C4.44113663 0.0161705 5.60683685 0.03165436 6.80786133 0.04760742 C8.00220291 0.05185226 9.19654449 0.05609711 10.42707825 0.06047058 C14.24824402 0.07728658 18.06888574 0.11494524 21.88989258 0.15307617 C24.4777756 0.16811918 27.06566687 0.18180825 29.65356445 0.1940918 C36.00337628 0.22719984 42.35279553 0.27900317 48.70239258 0.34057617 C48.70239258 4.30057617 48.70239258 8.26057617 48.70239258 12.34057617 C41.22764257 12.41468519 33.75310603 12.46915954 26.27807617 12.50537109 C23.73474401 12.52046553 21.19143791 12.54094306 18.64819336 12.56689453 C14.99431937 12.60324794 11.34078929 12.62029615 7.68676758 12.63354492 C5.97876984 12.65677071 5.97876984 12.65677071 4.23626709 12.6804657 C3.17546936 12.68069229 2.11467163 12.68091888 1.02172852 12.68115234 C0.08907166 12.68781418 -0.84358521 12.69447601 -1.80450439 12.70133972 C-4.79030376 12.26928073 -6.15721969 11.44475636 -8.29760742 9.34057617 C-8.75219011 6.22343771 -8.97983667 4.29083432 -7.10136414 1.67436218 C-4.64360518 -0.1430251 -3.04075115 -0.02126399 0 0 Z " fill="#FFD96A" transform="translate(123.297607421875,223.659423828125)"/>
<path d="M0 0 C2.94759143 2.99831191 3.37006992 5.1902111 3.34057617 9.31933594 C3.34034958 10.38013367 3.34012299 11.4409314 3.33988953 12.53387451 C3.32440567 13.67253967 3.30892181 14.81120483 3.29296875 15.984375 C3.28872391 17.15510559 3.28447906 18.32583618 3.28010559 19.53204346 C3.26331175 23.27159616 3.22565704 27.01061015 3.1875 30.75 C3.17245413 33.28514847 3.15876556 35.82030538 3.14648438 38.35546875 C3.11340572 44.5705201 3.06161745 50.78516871 3 57 C-0.96 57 -4.92 57 -9 57 C-9.07404236 49.36452367 -9.12855157 41.72925536 -9.16479492 34.09350586 C-9.17990063 31.49483603 -9.20038634 28.89619177 -9.22631836 26.29760742 C-9.26262243 22.56683042 -9.27970858 18.83638987 -9.29296875 15.10546875 C-9.30845261 13.93976852 -9.32393646 12.7740683 -9.33988953 11.57304382 C-9.34011612 10.49214981 -9.34034271 9.4112558 -9.34057617 8.29760742 C-9.34723801 7.34496506 -9.35389984 6.39232269 -9.36076355 5.41081238 C-9 3 -9 3 -7.66621399 1.19624329 C-5.04974186 -0.68222925 -3.11713847 -0.45458269 0 0 Z " fill="#FFDA6A" transform="translate(308,91)"/>
<path d="M0 0 C3.96 0 7.92 0 12 0 C12.0988118 7.47473278 12.1714432 14.94908612 12.21972656 22.42431641 C12.23985272 24.96767803 12.26715637 27.51099333 12.30175781 30.05419922 C12.3502297 33.70812404 12.37295916 37.36143756 12.390625 41.015625 C12.41127014 42.15429016 12.43191528 43.29295532 12.45318604 44.46612549 C12.45348816 45.52692322 12.45379028 46.58772095 12.45410156 47.68066406 C12.46298401 48.61332092 12.47186646 49.54597778 12.48101807 50.50689697 C11.84868028 53.78428583 10.61998893 54.99325807 8 57 C4.3014996 56.85205998 2.64194427 56.64194427 0 54 C-0.24050903 51.70944214 -0.24050903 51.70944214 -0.22705078 48.81591797 C-0.22689972 47.73494843 -0.22674866 46.65397888 -0.22659302 45.54025269 C-0.21627045 44.36939117 -0.20594788 43.19852966 -0.1953125 41.9921875 C-0.1924826 40.79643097 -0.18965271 39.60067444 -0.18673706 38.36868286 C-0.17551305 34.53735481 -0.15040431 30.70625778 -0.125 26.875 C-0.11497308 24.28255545 -0.10584673 21.69010725 -0.09765625 19.09765625 C-0.07556643 12.73168138 -0.04102133 6.3658799 0 0 Z " fill="#FFDA6A" transform="translate(299,364)"/>
<path d="M0 0 C7.47473278 -0.0988118 14.94908612 -0.1714432 22.42431641 -0.21972656 C24.96767803 -0.23985272 27.51099333 -0.26715637 30.05419922 -0.30175781 C33.70812404 -0.3502297 37.36143756 -0.37295916 41.015625 -0.390625 C42.72362274 -0.42159271 42.72362274 -0.42159271 44.46612549 -0.45318604 C46.05732208 -0.45363922 46.05732208 -0.45363922 47.68066406 -0.45410156 C48.61332092 -0.46298401 49.54597778 -0.47186646 50.50689697 -0.48101807 C53.78420889 0.15130488 54.9904776 1.38254123 57 4 C56.9375 7.125 56.9375 7.125 56 10 C52.67424478 12.21717015 51.6639376 12.24543438 47.79418945 12.22705078 C46.73331619 12.22689972 45.67244293 12.22674866 44.579422 12.22659302 C43.43559555 12.21627045 42.2917691 12.20594788 41.11328125 12.1953125 C39.94113571 12.1924826 38.76899017 12.18965271 37.56132507 12.18673706 C33.81161357 12.17552753 30.06213951 12.15042128 26.3125 12.125 C23.7727899 12.11497121 21.23307607 12.10584519 18.69335938 12.09765625 C12.46214787 12.07558563 6.23111421 12.04105026 0 12 C0 8.04 0 4.08 0 0 Z " fill="#FFDA6B" transform="translate(388,274)"/>
<path d="M0 0 C7.63545943 -0.09872293 15.2705491 -0.17140085 22.90649414 -0.21972656 C25.50519276 -0.23986774 28.10384593 -0.26718228 30.70239258 -0.30175781 C34.43321942 -0.35016388 38.1634482 -0.37294401 41.89453125 -0.390625 C43.06023148 -0.41127014 44.2259317 -0.43191528 45.42695618 -0.45318604 C46.50785019 -0.45348816 47.5887442 -0.45379028 48.70239258 -0.45410156 C50.13135612 -0.46742523 50.13135612 -0.46742523 51.58918762 -0.48101807 C54 0 54 0 55.83500671 1.83306885 C57 4 57 4 56.9375 7.125 C56 10 56 10 54.26812744 11.16549683 C51.62345382 12.13854115 49.58925592 12.24072454 46.77246094 12.22705078 C45.73168396 12.22689972 44.69090698 12.22674866 43.61859131 12.22659302 C41.94340424 12.21110916 41.94340424 12.21110916 40.234375 12.1953125 C39.08584045 12.1924826 37.93730591 12.18965271 36.75396729 12.18673706 C33.08587219 12.17554263 29.4180213 12.15043904 25.75 12.125 C23.26302436 12.11496926 20.77604489 12.10584358 18.2890625 12.09765625 C12.19261425 12.07560564 6.09634853 12.04108052 0 12 C0 8.04 0 4.08 0 0 Z " fill="#FFDA6A" transform="translate(388,224)"/>
<path d="M0 0 C2 2 2 2 2.24050903 4.32852173 C2.23606781 5.3011496 2.23162659 6.27377747 2.22705078 7.27587891 C2.22682419 8.92736435 2.22682419 8.92736435 2.22659302 10.61221313 C2.21627045 11.80494843 2.20594788 12.99768372 2.1953125 14.2265625 C2.1924826 15.44451508 2.18965271 16.66246765 2.18673706 17.91732788 C2.17551256 21.81998383 2.15040372 25.72241303 2.125 29.625 C2.11497314 32.26562169 2.10584678 34.90624697 2.09765625 37.546875 C2.07556578 44.03133781 2.04102034 50.51563042 2 57 C-1.63 57 -5.26 57 -9 57 C-9.07397857 49.20379736 -9.12852103 41.40779755 -9.16479492 33.61132812 C-9.17991145 30.95732059 -9.20040495 28.30333814 -9.22631836 25.64941406 C-9.26257521 21.841734 -9.27969763 18.03438325 -9.29296875 14.2265625 C-9.30845261 13.03382721 -9.32393646 11.84109192 -9.33988953 10.61221313 C-9.34011612 9.51122284 -9.34034271 8.41023254 -9.34057617 7.27587891 C-9.34723801 6.30325104 -9.35389984 5.33062317 -9.36076355 4.32852173 C-9.24171158 3.56010956 -9.12265961 2.79169739 -9 2 C-5.54754176 -0.30163882 -4.05261287 -0.34490322 0 0 Z " fill="#FFDA6A" transform="translate(258,91)"/>
<path d="M0 0 C3.63 0 7.26 0 11 0 C11.02466033 7.65380618 11.04284104 15.3075894 11.05493164 22.96142578 C11.0599703 25.56689863 11.0668013 28.17236863 11.07543945 30.77783203 C11.08752544 34.51595764 11.09323288 38.25404597 11.09765625 41.9921875 C11.10281754 43.16304901 11.10797882 44.33391052 11.11329651 45.54025269 C11.11337204 46.62122223 11.11344757 47.70219177 11.11352539 48.81591797 C11.115746 49.77078094 11.11796661 50.72564392 11.12025452 51.70944214 C11 54 11 54 10 56 C6.74894537 56.93919356 4.87854936 57.46831717 1.8291626 55.84281921 C0 54 0 54 -0.48101807 51.58918762 C-0.47213562 50.63654526 -0.46325317 49.68390289 -0.45410156 48.70239258 C-0.45379944 47.62149857 -0.45349731 46.54060455 -0.45318604 45.42695618 C-0.43254089 44.26125595 -0.41189575 43.09555573 -0.390625 41.89453125 C-0.38496521 40.70018967 -0.37930542 39.50584808 -0.37347412 38.27531433 C-0.35105175 34.45397153 -0.30084195 30.63356025 -0.25 26.8125 C-0.2299427 24.2246229 -0.2116906 21.63673113 -0.1953125 19.04882812 C-0.15116734 12.69885885 -0.08209721 6.34958745 0 0 Z " fill="#FFD96A" transform="translate(249,364)"/>
<path d="M0 0 C3.96 0 7.92 0 12 0 C12.07435222 4.75053511 12.12869691 9.50072887 12.16479492 14.25170898 C12.17984876 15.86667789 12.20029648 17.48160613 12.22631836 19.09643555 C12.26285286 21.42246555 12.27976015 23.74795341 12.29296875 26.07421875 C12.30845261 26.79212082 12.32393646 27.51002289 12.33988953 28.24967957 C12.34135499 32.64963175 11.86381182 35.58566025 9 39 C5.4375 39.4375 5.4375 39.4375 2 39 C0 37 0 37 -0.22705078 33.37646484 C-0.22673357 31.82125311 -0.21540299 30.26601949 -0.1953125 28.7109375 C-0.1924826 27.89251373 -0.18965271 27.07408997 -0.18673706 26.23086548 C-0.17552532 23.61209607 -0.15041929 20.99366636 -0.125 18.375 C-0.11497147 16.60156743 -0.1058454 14.82812951 -0.09765625 13.0546875 C-0.07558278 8.70299374 -0.04104644 4.3515545 0 0 Z " fill="#FFDA6B" transform="translate(319,364)"/>
<path d="M0 0 C3.96 0 7.92 0 12 0 C12.04943465 4.78717542 12.08573582 9.57420227 12.10986328 14.36157227 C12.11992142 15.99017932 12.13356958 17.61876832 12.15087891 19.24731445 C12.17513574 21.58809872 12.18648483 23.92864424 12.1953125 26.26953125 C12.20563507 26.99775589 12.21595764 27.72598053 12.22659302 28.47627258 C12.22742249 32.21275069 12.12883296 33.80675056 10 37 C6.5625 37.4375 6.5625 37.4375 3 37 C0.34472056 34.58244433 0.01152877 33.11791581 -0.34057617 29.51660156 C-0.34010423 28.14118457 -0.32333368 26.76570685 -0.29296875 25.390625 C-0.28872391 24.66381531 -0.28447906 23.93700562 -0.28010559 23.18817139 C-0.2633613 20.87506496 -0.22571885 18.56284145 -0.1875 16.25 C-0.17244758 14.67839803 -0.15876015 13.10678236 -0.14648438 11.53515625 C-0.11347195 7.68976585 -0.06172056 3.84503244 0 0 Z " fill="#FFD96A" transform="translate(225,364)"/>
</svg>
