<?xml version="1.0" encoding="UTF-8"?>
<svg version="1.1" xmlns="http://www.w3.org/2000/svg" width="512" height="512">
<path d="M0 0 C1.44831034 -0.01265991 1.44831034 -0.01265991 2.92587948 -0.02557558 C3.98899632 -0.01956553 5.05211317 -0.01355549 6.14744568 -0.00736332 C7.83870622 -0.01544163 7.83870622 -0.01544163 9.56413364 -0.02368313 C13.36211457 -0.03805079 17.15975128 -0.03083718 20.95774841 -0.023736 C23.67250987 -0.02778956 26.38725346 -0.03629607 29.102005 -0.04453373 C35.72208555 -0.06175331 42.34207132 -0.06255529 48.96216846 -0.05732083 C54.34108618 -0.05328404 59.71997583 -0.05471682 65.09889221 -0.06006908 C65.86361928 -0.06081751 66.62834634 -0.06156593 67.41624695 -0.06233703 C68.96963716 -0.06386846 70.52302737 -0.06540681 72.07641757 -0.066952 C86.65229778 -0.08068826 101.22812436 -0.07523127 115.80400336 -0.06376678 C129.14874986 -0.05383141 142.49335778 -0.0667783 155.83808291 -0.09070098 C169.53056709 -0.11506274 183.22298663 -0.12470718 196.91549206 -0.11804825 C204.60679339 -0.11454974 212.29798807 -0.11682966 219.98927307 -0.13429928 C226.5361572 -0.14898474 233.08285958 -0.14970482 239.62974 -0.13222837 C242.97201126 -0.12368568 246.31368904 -0.12379505 249.65598679 -0.13687992 C253.27438256 -0.14996855 256.8918825 -0.1386495 260.51023865 -0.12088871 C261.57335549 -0.13049372 262.63647234 -0.14009872 263.73180485 -0.14999479 C265.18011519 -0.13527335 265.18011519 -0.13527335 266.65768433 -0.12025452 C267.91116999 -0.12009351 267.91116999 -0.12009351 269.1899786 -0.11992925 C271.32884216 0.38031673 271.32884216 0.38031673 273.13250828 2.21628994 C274.8195829 5.26800881 274.25735678 7.09480346 273.32884216 10.38031673 C271.32884216 12.38031673 271.32884216 12.38031673 269.26585388 12.60736752 C268.43843689 12.59689388 267.6110199 12.58642025 266.75852966 12.57562923 C265.86263123 12.56918392 264.96673279 12.56273861 264.04368591 12.55609798 C263.10653748 12.53934017 262.16938904 12.52258236 261.20384216 12.50531673 C260.25895935 12.4962933 259.31407654 12.48726986 258.34056091 12.47797298 C256.00306924 12.45436196 253.66608093 12.4214319 251.32884216 12.38031673 C251.34044373 13.58687923 251.35204529 14.79344173 251.36399841 16.03656673 C251.37338552 17.65114851 251.38248472 19.26573197 251.39134216 20.88031673 C251.39972107 21.67180111 251.40809998 22.46328548 251.41673279 23.27875423 C251.42156677 24.45824642 251.42156677 24.45824642 251.42649841 25.66156673 C251.43435364 26.72987728 251.43435364 26.72987728 251.44236755 27.81976986 C251.28476933 31.37437239 250.79898079 34.85346366 250.32884216 38.38031673 C251.42758415 38.37032398 251.42758415 38.37032398 252.54852295 38.36012936 C259.44941019 38.3000344 266.35025836 38.25435057 273.25133991 38.22488022 C276.79934152 38.2092198 280.34712704 38.18797523 283.89500427 38.15399837 C287.97323184 38.11518666 292.05123218 38.10061071 296.12962341 38.08734798 C298.0422271 38.0641222 298.0422271 38.0641222 299.99346924 38.04042721 C301.17446701 38.04020061 302.35546478 38.03997402 303.57225037 38.03974056 C304.61371719 38.03307873 305.65518402 38.02641689 306.72821045 38.01955318 C309.32884216 38.38031673 309.32884216 38.38031673 311.16564941 39.76964474 C313.94455721 43.61759597 312.60458259 49.52240161 311.9450531 53.96625423 C311.42915982 56.62345798 310.837538 59.24875162 310.20384216 61.88031673 C309.86280457 63.31806454 309.86280457 63.31806454 309.51487732 64.78485775 C302.9067308 91.89895112 291.79238493 117.03051808 272.32884216 137.38031673 C271.64434998 138.13957455 270.95985779 138.89883236 270.25462341 139.68109798 C264.08351677 146.28566498 257.0639841 150.83180404 249.32884216 155.38031673 C248.50770935 155.86371517 247.68657654 156.34711361 246.84056091 156.84516048 C242.96292888 158.9413588 239.27863135 160.43457699 234.99290466 161.45062923 C225.51848647 163.57594699 225.51848647 163.57594699 218.63743591 169.89984798 C216.85038804 173.28789604 215.45388411 176.8158926 214.11155701 180.39984798 C205.81848929 201.38343042 186.6536858 222.98361408 167.32884216 234.38031673 C166.66884216 234.38031673 166.00884216 234.38031673 165.32884216 234.38031673 C167.55102688 260.44732635 172.60464621 282.97365937 184.32884216 306.38031673 C185.19162781 306.39489925 186.05441345 306.40948177 186.94334412 306.42450619 C190.14733864 306.48559427 193.35068842 306.55975222 196.55418396 306.64276791 C197.94013594 306.67600222 199.32622277 306.70403899 200.71238708 306.72675228 C202.7059106 306.7603229 204.69905957 306.81419674 206.69212341 306.86859798 C207.89135437 306.89478207 209.09058533 306.92096615 210.32615662 306.94794369 C213.32884216 307.38031673 213.32884216 307.38031673 215.22532654 308.41547298 C216.99392093 311.56451008 216.69430244 314.81776316 216.62181091 318.32953548 C216.61756607 319.10215221 216.61332123 319.87476894 216.60894775 320.6707983 C216.59216399 323.13682666 216.55451363 325.60203569 216.51634216 328.06781673 C216.50129487 329.74033097 216.48760654 331.41285802 216.47532654 333.08539486 C216.44226163 337.18401751 216.39048245 341.28202824 216.32884216 345.38031673 C216.97434021 345.35936947 217.61983826 345.3384222 218.28489685 345.31684017 C221.21605284 345.23357468 224.14695993 345.18162467 227.07884216 345.13031673 C228.09462341 345.09680111 229.11040466 345.06328548 230.15696716 345.02875423 C231.13665466 345.01586361 232.11634216 345.00297298 233.12571716 344.98969173 C234.02644958 344.96874447 234.92718201 344.9477972 235.85520935 344.92621517 C238.32884216 345.38031673 238.32884216 345.38031673 240.62962341 346.90180111 C242.98553891 350.3381882 242.830736 353.41228657 242.71946716 357.42719173 C242.71380737 358.19839352 242.70814758 358.9695953 242.70231628 359.76416683 C242.67997806 362.22018953 242.62978979 364.67473729 242.57884216 367.13031673 C242.55877371 368.79826437 242.54052353 370.46623494 242.52415466 372.13422298 C242.48012209 376.21681997 242.41111499 380.29831854 242.32884216 384.38031673 C243.19162781 384.35936947 244.05441345 384.3384222 244.94334412 384.31684017 C248.14691727 384.24863771 251.35012032 384.1985036 254.55418396 384.16059017 C255.94037555 384.14048399 257.32648241 384.11319429 258.71238708 384.07855892 C260.70526123 384.03000448 262.69875606 384.00947702 264.69212341 383.98969173 C265.89135437 383.96874447 267.09058533 383.9477972 268.32615662 383.92621517 C271.32884216 384.38031673 271.32884216 384.38031673 273.25535583 386.2094183 C274.76840237 389.26923403 274.24046292 391.15458176 273.32884216 394.38031673 C270.85952838 396.84963051 270.17814114 396.63127 266.78073215 396.63479233 C265.81718298 396.64062452 264.8536338 396.64645671 263.86088616 396.65246564 C262.79485647 396.64868632 261.72882678 396.64490699 260.63049316 396.64101315 C259.50384056 396.64483869 258.37718796 396.64866424 257.21639436 396.65260571 C253.41537014 396.66298078 249.61449571 396.65893502 245.8134613 396.65497494 C243.09885213 396.65822342 240.38425145 396.66443599 237.66964722 396.67046261 C231.04610343 396.68323676 224.42260013 396.68499993 217.79904611 396.68266235 C212.41724925 396.68088204 207.03546473 396.68262264 201.65366936 396.68688679 C200.8888068 396.68748198 200.12394425 396.68807717 199.33590404 396.68869039 C197.7822723 396.68990209 196.22864056 396.69111623 194.67500883 396.69233277 C180.09246755 396.70321879 165.50994937 396.70104081 150.92740678 396.69494792 C137.57615437 396.6897779 124.2249749 396.70103454 110.87373693 396.72004614 C97.17677189 396.73940107 83.47984141 396.74768466 69.7828626 396.74392289 C62.0882095 396.74200726 54.3936185 396.74453345 46.69897652 396.75863743 C40.14843718 396.7705224 33.59799816 396.77198872 27.04745752 396.75984726 C23.70324943 396.75393805 20.35937635 396.75452715 17.01515579 396.76484966 C13.39465575 396.77522259 9.77465616 396.76729257 6.1541748 396.75453854 C5.09037584 396.76191282 4.02657687 396.76928711 2.93054157 396.77688485 C1.96438465 396.76967831 0.99822772 396.76247177 0.00279331 396.75504684 C-0.83340587 396.75510186 -1.66960505 396.75515688 -2.53114361 396.75521356 C-5.19220718 396.28903709 -6.0778019 395.53368086 -7.67115784 393.38031673 C-8.05180985 390.33510064 -8.29657153 388.32194928 -6.56251526 385.71112728 C-3.74007199 383.7251794 -1.45226797 384.04257293 1.96556091 384.08734798 C3.26429138 384.09701595 4.56302185 384.10668392 5.90110779 384.11664486 C7.27285855 384.14171089 8.64460334 384.16710573 10.01634216 384.19281673 C11.3997914 384.20786654 12.78325617 384.22155443 14.16673279 384.23383236 C17.55449423 384.2692445 20.94147356 384.3186362 24.32884216 384.38031673 C24.29742126 382.82135677 24.29742126 382.82135677 24.2653656 381.23090267 C24.19288542 377.36955231 24.14701385 373.5082619 24.1091156 369.64643002 C24.08901824 367.97607971 24.06173533 366.30579961 24.02708435 364.63568783 C23.97848097 362.23267953 23.95585561 359.8306024 23.93821716 357.42719173 C23.91757202 356.6822546 23.89692688 355.93731747 23.87565613 355.16980648 C23.87419007 351.77099397 24.08541961 349.73537791 26.02806091 346.90180111 C28.78544646 345.07836873 30.24870643 344.91333683 33.53196716 344.98969173 C35.00149841 345.00902767 35.00149841 345.00902767 36.50071716 345.02875423 C38.02438904 345.07902767 38.02438904 345.07902767 39.57884216 345.13031673 C40.61009216 345.14836361 41.64134216 345.16641048 42.70384216 345.18500423 C45.2464528 345.23208962 47.78717378 345.29783623 50.32884216 345.38031673 C50.31313171 344.33577328 50.29742126 343.29122982 50.28123474 342.21503353 C50.22694519 338.34060022 50.19249586 334.46620054 50.16404724 330.59149837 C50.14895833 328.91435753 50.12848469 327.23725616 50.1025238 325.56024837 C50.06614406 323.1499117 50.0491173 320.74009655 50.03587341 318.32953548 C50.02038956 317.57943707 50.0049057 316.82933865 49.98895264 316.05650997 C49.98802774 313.19724116 50.01307188 310.9425555 51.43235779 308.41547298 C54.27851449 306.861958 56.73814143 306.93906566 59.96556091 306.86859798 C61.91365662 306.81542416 61.91365662 306.81542416 63.90110779 306.76117611 C65.27284734 306.73807623 66.64459227 306.71529383 68.01634216 306.69281673 C69.39983823 306.65964131 70.78330345 306.62515143 72.16673279 306.58930111 C75.55402099 306.50668432 78.94104573 306.43757616 82.32884216 306.38031673 C94.04014663 283.16577667 99.25054665 260.20416455 101.32884216 234.38031673 C100.63274841 234.1444183 99.93665466 233.90851986 99.21946716 233.66547298 C95.80047047 232.14540553 93.00374656 230.1107197 90.07884216 227.81781673 C89.50528992 227.36873959 88.93173767 226.91966244 88.34080505 226.45697689 C75.64301019 216.36207874 65.9574526 203.70163143 57.57884216 189.88031673 C57.21008972 189.27502132 56.84133728 188.66972591 56.46141052 188.04608822 C54.55310118 184.80713611 52.97337801 181.60819792 51.62962341 178.09516048 C48.37761524 169.56484762 48.37761524 169.56484762 41.31712341 164.28656673 C37.46829917 162.94415672 33.53267231 161.97513171 29.57688904 161.00336361 C7.39543261 154.85576622 -11.94004308 134.40271603 -23.01881409 115.02289486 C-34.44529338 94.5828849 -45.47776327 70.02527455 -45.92115784 46.19281673 C-45.94693909 45.35363705 -45.97272034 44.51445736 -45.99928284 43.64984798 C-45.58501863 40.78452057 -44.97247417 40.10628012 -42.67115784 38.38031673 C-40.07052612 38.01955318 -40.07052612 38.01955318 -36.91456604 38.03974056 C-35.73356827 38.03996716 -34.5525705 38.04019375 -33.33578491 38.04042721 C-32.06071579 38.05591106 -30.78564667 38.07139492 -29.47193909 38.08734798 C-28.16661728 38.09159283 -26.86129547 38.09583767 -25.51641846 38.10021114 C-22.04910505 38.11165584 -18.58216971 38.14111919 -15.11500549 38.17432308 C-11.57583226 38.2050324 -8.03659783 38.21871828 -4.49732971 38.23383236 C2.44488271 38.26598969 9.38684428 38.3171812 16.32884216 38.38031673 C16.0843634 36.54630306 16.0843634 36.54630306 15.83494568 34.67523861 C15.4579013 31.65289806 15.20876202 28.71121583 15.23118591 25.66156673 C15.23440857 24.87523861 15.23763123 24.08891048 15.24095154 23.27875423 C15.2535199 22.09152767 15.2535199 22.09152767 15.26634216 20.88031673 C15.27085388 20.05789486 15.2753656 19.23547298 15.28001404 18.38812923 C15.29165727 16.38549277 15.30958661 14.38289447 15.32884216 12.38031673 C14.73869324 12.39602718 14.14854431 12.41173763 13.54051208 12.42792416 C10.86588631 12.49029612 8.19141352 12.52931331 5.51634216 12.56781673 C4.58757263 12.59295345 3.6588031 12.61809017 2.70188904 12.64398861 C1.80921326 12.65365658 0.91653748 12.66332455 -0.00318909 12.67328548 C-1.23645935 12.69685116 -1.23645935 12.69685116 -2.49464417 12.72089291 C-5.19964952 12.29761949 -6.06052458 11.56305203 -7.67115784 9.38031673 C-8.31280116 4.24717011 -8.31280116 4.24717011 -6.4396677 1.71658653 C-4.15486992 -0.00978567 -2.84860935 0.00350812 0 0 Z M-31.67115784 51.38031673 C-26.30261837 83.59155356 -13.14519819 116.64273778 13.35618591 137.31000423 C24.98415506 145.79080505 24.98415506 145.79080505 38.32884216 149.38031673 C37.65827152 145.74102226 36.74242149 142.26088763 35.65696716 138.72406673 C26.8624449 109.7744533 21.60456431 81.31037175 17.32884216 51.38031673 C1.15884216 51.38031673 -15.01115784 51.38031673 -31.67115784 51.38031673 Z M249.32884216 51.38031673 C248.46259216 57.25844173 247.59634216 63.13656673 246.70384216 69.19281673 C242.93489022 93.96595252 237.56729388 117.81893927 230.08152771 141.76264095 C229.3552443 144.28849589 228.80461534 146.79671361 228.32884216 149.38031673 C239.04271238 148.12742037 248.29747695 141.21964259 256.32884216 134.38031673 C257.05458435 133.79894955 257.78032654 133.21758236 258.52806091 132.61859798 C280.96922458 113.93721043 293.27414932 82.44129539 298.32884216 54.38031673 C298.32884216 53.39031673 298.32884216 52.40031673 298.32884216 51.38031673 C282.15884216 51.38031673 265.98884216 51.38031673 249.32884216 51.38031673 Z M132.32884216 63.38031673 C132.07715271 63.88482357 131.82546326 64.38933041 131.56614685 64.90912533 C130.41587619 67.19754188 129.2476534 69.47631801 128.07884216 71.75531673 C127.68309998 72.54937923 127.28735779 73.34344173 126.87962341 74.16156673 C126.48645935 74.92211361 126.09329529 75.68266048 125.68821716 76.46625423 C125.33211365 77.16798763 124.97601013 77.86972103 124.6091156 78.59271908 C122.64053926 81.34136819 120.44574985 82.11390551 117.22239685 82.88275814 C116.48924255 82.9979681 115.75608826 83.11317806 115.00071716 83.23187923 C114.20149841 83.36078548 113.40227966 83.48969173 112.57884216 83.62250423 C111.34134216 83.81199642 111.34134216 83.81199642 110.07884216 84.00531673 C109.23837341 84.13937923 108.39790466 84.27344173 107.53196716 84.41156673 C105.46518716 84.74037264 103.39713055 85.06113643 101.32884216 85.38031673 C104.89466268 89.7430553 108.51528362 93.5768976 112.91087341 97.11859798 C114.32884216 98.38031673 114.32884216 98.38031673 115.32884216 100.38031673 C115.71962009 108.19587519 114.55684292 115.6724191 113.32884216 123.38031673 C114.39102966 122.80281673 115.45321716 122.22531673 116.54759216 121.63031673 C117.97422384 120.87945796 119.40133301 120.12950594 120.82884216 119.38031673 C121.52493591 118.99875423 122.22102966 118.61719173 122.93821716 118.22406673 C127.79116831 115.7077217 131.86082902 114.3216501 137.32884216 115.38031673 C140.31697755 116.45593572 143.04742242 117.85568665 145.82884216 119.38031673 C146.55587341 119.76187923 147.28290466 120.14344173 148.03196716 120.53656673 C149.80533481 121.46991813 151.56824298 122.42309776 153.32884216 123.38031673 C153.18446716 122.4741058 153.04009216 121.56789486 152.89134216 120.63422298 C150.12583464 102.48557989 150.12583464 102.48557989 152.82884216 97.75531673 C155.6465299 95.07851338 158.53944789 92.51788705 161.52415466 90.02875423 C163.54656472 88.31399342 163.54656472 88.31399342 165.32884216 85.38031673 C164.41388977 85.26140072 164.41388977 85.26140072 163.48045349 85.14008236 C160.69429386 84.75677033 157.91926335 84.31922462 155.14134216 83.88031673 C154.18163513 83.75656673 153.2219281 83.63281673 152.23313904 83.50531673 C145.26598373 82.34814215 145.26598373 82.34814215 142.63621521 79.63226986 C141.3476275 77.59748038 140.31015302 75.57794834 139.32884216 73.38031673 C138.80677185 72.40062923 138.28470154 71.42094173 137.74681091 70.41156673 C137.34075623 69.57625423 136.93470154 68.74094173 136.51634216 67.88031673 C136.09739685 67.02437923 135.67845154 66.16844173 135.24681091 65.28656673 C134.94388123 64.65750423 134.64095154 64.02844173 134.32884216 63.38031673 C133.66884216 63.38031673 133.00884216 63.38031673 132.32884216 63.38031673 Z " fill="#FFDA6A" transform="translate(122.67115783691406,57.619683265686035)"/>
<path d="M0 0 C28.38 0 56.76 0 86 0 C82.81495844 3.98130195 80.96236854 5.98604223 76.9375 8.6875 C75.65166016 9.55955078 75.65166016 9.55955078 74.33984375 10.44921875 C73.56769531 10.96097656 72.79554688 11.47273438 72 12 C71.01 12.66 70.02 13.32 69 14 C66.75932312 14.30780029 66.75932312 14.30780029 64.1081543 14.38574219 C63.11248947 14.41786804 62.11682465 14.4499939 61.09098816 14.48309326 C56.50266796 14.5726775 51.91492165 14.65425882 47.32592773 14.70019531 C44.91960723 14.73313428 42.51347506 14.78747655 40.1081543 14.86425781 C15.51626247 15.64446819 15.51626247 15.64446819 5.41723633 6.55175781 C3 4 3 4 0 0 Z " fill="#FFBF41" transform="translate(213,268)"/>
</svg>
