<?xml version="1.0" encoding="UTF-8"?>
<svg version="1.1" xmlns="http://www.w3.org/2000/svg" width="512" height="512">
<path d="M0 0 C1.19367188 0.42410156 2.38734375 0.84820313 3.6171875 1.28515625 C12.30588372 4.69789361 19.5757559 9.45031587 27 15 C24.74376669 18.46282764 22.48129421 21.77125658 19.75 24.875 C19.22921875 25.47054688 18.7084375 26.06609375 18.171875 26.6796875 C17.78515625 27.11539062 17.3984375 27.55109375 17 28 C16.00355469 27.42378906 15.00710937 26.84757812 13.98046875 26.25390625 C-5.54310861 15.11649249 -24.68102298 9.19273325 -47.4375 14 C-67.50633012 20.24038075 -83.2822207 32.91775745 -93.23828125 51.421875 C-101.46093897 68.12243924 -103.04927622 88.71812586 -97.37890625 106.51953125 C-89.48782192 126.43725403 -76.53458025 140.42050839 -56.98828125 149.75 C-39.2136848 157.18512531 -19.60976759 156.75065922 -1.75 149.75 C17.23793126 141.22584806 30.53150102 127.523761 38 108 C44.45937898 88.41921589 42.98737703 68.61841237 34 50 C32.22530764 47.26601447 30.37692069 44.67700206 28.35546875 42.12109375 C27 40 27 40 27 36 C29.08203125 33.859375 29.08203125 33.859375 31.8125 31.75 C32.70582031 31.04359375 33.59914062 30.3371875 34.51953125 29.609375 C37 28 37 28 40 28 C41.6082731 30.01570228 42.96041204 31.9448226 44.3125 34.125 C44.70840332 34.75519043 45.10430664 35.38538086 45.51220703 36.03466797 C58.64929519 57.50311289 62.02666327 81.61261411 56.50048828 106.01464844 C53.53393396 117.78246294 47.81008803 129.70308996 40 139 C41.45745424 142.36335594 43.31117854 144.54534005 45.9140625 147.109375 C46.67460937 147.86347656 47.43515625 148.61757812 48.21875 149.39453125 C49.0128125 150.17183594 49.806875 150.94914063 50.625 151.75 C51.42679688 152.54277344 52.22859375 153.33554688 53.0546875 154.15234375 C55.03202846 156.10614493 57.01388909 158.05512103 59 160 C62.56349894 158.28263966 65.60112312 156.1936545 68.8125 153.875 C95.78108113 134.96978319 128.32896476 127.50283332 161 133.125 C180.34983941 136.95739538 198.34006261 144.77141979 213.58203125 157.34765625 C216.06231959 159.37613711 216.06231959 159.37613711 220 159 C222.21335524 157.33973252 222.21335524 157.33973252 224.328125 155.0625 C225.12734375 154.25039062 225.9265625 153.43828125 226.75 152.6015625 C227.575 151.74304688 228.4 150.88453125 229.25 150 C230.51070313 148.71222656 230.51070313 148.71222656 231.796875 147.3984375 C233.87381504 145.27429428 235.94087223 143.14139163 238 141 C236.70304802 137.6480476 235.36305136 134.90828574 233.25 132 C219.98703538 112.39669131 216.26843228 88.34553824 220.51953125 65.29858398 C224.21083211 47.51378212 233.28890296 32.72875134 246 20 C246.804375 19.18402344 247.60875 18.36804688 248.4375 17.52734375 C266.6696526 0.04486847 289.5692373 -4.65580932 314.00390625 -4.33203125 C334.54973264 -3.6581703 352.99369117 5.17569495 368 19 C368.6290625 19.54914062 369.258125 20.09828125 369.90625 20.6640625 C385.0085433 34.59936041 394.4399083 56.14251112 395.37890625 76.453125 C395.71287188 89.17142676 395.32297841 100.96030311 391 113 C390.57589844 114.19367188 390.15179688 115.38734375 389.71484375 116.6171875 C380.87411849 139.12532925 363.66231904 155.57190486 341.875 165.375 C319.80639581 174.30635214 295.19598476 174.62829266 273.140625 165.45703125 C265.61182879 161.9641942 258.378499 158.35840817 252 153 C248.63664406 154.45745424 246.45465995 156.31117854 243.890625 158.9140625 C243.13652344 159.67460937 242.38242187 160.43515625 241.60546875 161.21875 C240.82816406 162.0128125 240.05085938 162.806875 239.25 163.625 C238.45722656 164.42679688 237.66445313 165.22859375 236.84765625 166.0546875 C234.89385507 168.03202846 232.94487897 170.01388909 231 172 C232.71736034 175.56349894 234.8063455 178.60112312 237.125 181.8125 C256.03021681 208.78108113 263.49716668 241.32896476 257.875 274 C254.04260462 293.34983941 246.22858021 311.34006261 233.65234375 326.58203125 C231.62386289 329.06231959 231.62386289 329.06231959 232 333 C233.66026748 335.21335524 233.66026748 335.21335524 235.9375 337.328125 C236.74960937 338.12734375 237.56171875 338.9265625 238.3984375 339.75 C239.25695312 340.575 240.11546875 341.4 241 342.25 C242.28777344 343.51070313 242.28777344 343.51070313 243.6015625 344.796875 C245.72570572 346.87381504 247.85860837 348.94087223 250 351 C253.3519524 349.70304802 256.09171426 348.36305136 259 346.25 C270.78164497 338.27892007 285.65622177 332.61583305 300 332 C301.59134766 331.92265625 301.59134766 331.92265625 303.21484375 331.84375 C329.91502628 331.17134247 352.24196539 340.82557849 371.5625 359.125 C388.77465109 376.77474815 395.62695558 399.35849008 395.47827148 423.67919922 C395.01133886 445.6385451 386.8688656 464.85981875 372 481 C371.45085937 481.6290625 370.90171875 482.258125 370.3359375 482.90625 C356.40063959 498.0085433 334.85748888 507.4399083 314.546875 508.37890625 C301.82857324 508.71287188 290.03969689 508.32297841 278 504 C276.80632812 503.57589844 275.61265625 503.15179688 274.3828125 502.71484375 C251.87467075 493.87411849 235.42809514 476.66231904 225.625 454.875 C222.25198048 446.52677669 219.38017379 438.09078444 220 429 C222.9615696 427.5192152 225.83506295 427.64685963 229.125 427.4375 C230.40632813 427.35371094 231.68765625 427.26992188 233.0078125 427.18359375 C233.99523437 427.12300781 234.98265625 427.06242187 236 427 C236.23783203 428.28970703 236.23783203 428.28970703 236.48046875 429.60546875 C240.3375368 449.14652621 248.32127949 465.8499929 264.6953125 478 C282.85829849 490.00516453 301.15026879 492.98114536 322.58984375 490.6015625 C340.48949399 486.82029208 357.21547035 474.90491257 367.1328125 459.73828125 C377.93700369 441.99153867 381.40418332 421.35128055 376.5 401 C370.30962487 381.56610455 357.8189043 365.89418267 339.65625 356.21875 C321.19306501 347.73566501 302.04246242 346.70424155 282.76953125 353.06640625 C264.42393734 360.25749933 250.18519566 372.820943 242.125 390.875 C239.04549743 398.06252782 237.26702697 405.27716893 236 413 C234.2709226 413.02725341 232.54171824 413.04650987 230.8125 413.0625 C229.84957031 413.07410156 228.88664062 413.08570313 227.89453125 413.09765625 C225.14423487 413.00486622 222.67520409 412.62111685 220 412 C219.49884523 395.58718116 227.4505297 377.39562761 238 365 C236.54254576 361.63664406 234.68882146 359.45465995 232.0859375 356.890625 C230.94511719 355.75947266 230.94511719 355.75947266 229.78125 354.60546875 C228.9871875 353.82816406 228.193125 353.05085938 227.375 352.25 C226.57320313 351.45722656 225.77140625 350.66445313 224.9453125 349.84765625 C222.96797154 347.89385507 220.98611091 345.94487897 219 344 C215.43650106 345.71736034 212.39887688 347.8063455 209.1875 350.125 C182.21891887 369.03021681 149.67103524 376.49716668 117 370.875 C97.65016059 367.04260462 79.65993739 359.22858021 64.41796875 346.65234375 C61.93768041 344.62386289 61.93768041 344.62386289 58 345 C55.78664476 346.66026748 55.78664476 346.66026748 53.671875 348.9375 C52.87265625 349.74960937 52.0734375 350.56171875 51.25 351.3984375 C50.425 352.25695312 49.6 353.11546875 48.75 354 C47.90953125 354.85851562 47.0690625 355.71703125 46.203125 356.6015625 C44.12618496 358.72570572 42.05912777 360.85860837 40 363 C41.29695198 366.3519524 42.63694864 369.09171426 44.75 372 C52.72107993 383.78164497 58.38416695 398.65622177 59 413 C59.0515625 414.06089844 59.103125 415.12179687 59.15625 416.21484375 C59.7488778 439.74710596 52.65655138 462.38060958 36.25244141 479.70288086 C34.84752391 481.14757815 33.42395701 482.57406527 32 484 C31.195625 484.81597656 30.39125 485.63195312 29.5625 486.47265625 C11.3303474 503.95513153 -11.5692373 508.65580932 -36.00390625 508.33203125 C-56.54973264 507.6581703 -74.99369117 498.82430505 -90 485 C-90.94359375 484.17628906 -90.94359375 484.17628906 -91.90625 483.3359375 C-107.0085433 469.40063959 -116.4399083 447.85748888 -117.37890625 427.546875 C-117.71287188 414.82857324 -117.32297841 403.03969689 -113 391 C-112.57589844 389.80632812 -112.15179688 388.61265625 -111.71484375 387.3828125 C-102.87411849 364.87467075 -85.66231904 348.42809514 -63.875 338.625 C-41.80639581 329.69364786 -17.19598476 329.37170734 4.859375 338.54296875 C12.38817121 342.0358058 19.621501 345.64159183 26 351 C29.36335594 349.54254576 31.54534005 347.68882146 34.109375 345.0859375 C34.86347656 344.32539063 35.61757812 343.56484375 36.39453125 342.78125 C37.17183594 341.9871875 37.94914063 341.193125 38.75 340.375 C39.54277344 339.57320313 40.33554688 338.77140625 41.15234375 337.9453125 C43.10614493 335.96797154 45.05512103 333.98611091 47 332 C45.28263966 328.43650106 43.1936545 325.39887688 40.875 322.1875 C21.96978319 295.21891887 14.50283332 262.67103524 20.125 230 C23.95739538 210.65016059 31.77141979 192.65993739 44.34765625 177.41796875 C46.37613711 174.93768041 46.37613711 174.93768041 46 171 C44.33973252 168.78664476 44.33973252 168.78664476 42.0625 166.671875 C41.25039062 165.87265625 40.43828125 165.0734375 39.6015625 164.25 C38.74304688 163.425 37.88453125 162.6 37 161.75 C36.14148438 160.90953125 35.28296875 160.0690625 34.3984375 159.203125 C32.27429428 157.12618496 30.14139163 155.05912777 28 153 C24.6480476 154.29695198 21.90828574 155.63694864 19 157.75 C7.21835503 165.72107993 -7.65622177 171.38416695 -22 172 C-23.06089844 172.0515625 -24.12179688 172.103125 -25.21484375 172.15625 C-48.74710596 172.7488778 -71.38060958 165.65655138 -88.70288086 149.25244141 C-90.14757815 147.84752391 -91.57406527 146.42395701 -93 145 C-93.81597656 144.195625 -94.63195312 143.39125 -95.47265625 142.5625 C-112.95513153 124.3303474 -117.65580932 101.4307627 -117.33203125 76.99609375 C-116.68217957 57.18230319 -108.36352025 38.58547638 -95 24 C-94.33742188 23.24589844 -93.67484375 22.49179687 -92.9921875 21.71484375 C-70.0804959 -2.9300201 -31.42467451 -11.28335629 0 0 Z M254 35 C253.39671875 35.60585938 252.7934375 36.21171875 252.171875 36.8359375 C239.83752282 50.14405433 234.60120309 68.59976531 234.78515625 86.40234375 C235.93693923 105.68947324 244.04534986 123.59493369 258 137 C273.97147317 150.79145887 292.97515963 157.25555507 314 156 C334.09062464 153.34494347 350.82255211 144.45503147 364 129 C377.11032321 111.32287145 381.62171953 91.55365817 378.70703125 69.81494141 C375.32893961 51.95736828 364.24992826 35.92363285 350 25 C318.50929759 4.19100299 280.21790899 8.04929231 254 35 Z M71 173 C70.25363281 173.60199219 69.50726563 174.20398438 68.73828125 174.82421875 C49.58694569 190.76695359 37.97267685 215.5712022 35 240 C32.87553471 266.49096399 38.47999555 292.70243329 55 314 C55.42764648 314.55494141 55.85529297 315.10988281 56.29589844 315.68164062 C73.03884717 337.11545079 97.47147505 352.29304526 124.74853516 355.78466797 C155.33156262 358.70965498 182.501313 350.98795097 206.3972168 331.80200195 C226.8333016 314.79933546 239.79213376 290.36153191 243 264 C245.45938477 233.33276638 236.91437801 206.37266578 217.3125 182.8125 C200.00018618 162.79106027 174.4814762 149.71408959 148.04345703 147.78417969 C119.18064075 146.50832297 93.05223452 153.95318075 71 173 Z M-83.52734375 372.14453125 C-98.72471629 389.69473556 -102.36546776 409.46978198 -101 432 C-99.06614303 449.42367207 -87.75553533 465.62959745 -74.828125 476.83203125 C-57.28830151 490.27761417 -37.42937242 494.26662249 -15.70214844 491.73193359 C3.16906033 488.51079777 18.80579932 476.66504464 30.1875 461.7265625 C41.31605133 444.98576761 45.40980573 426.25316715 41.8125 406.4375 C37.27818457 385.91708644 25.62209935 369.38361892 8 358 C-23.22494705 340.89707554 -58.88769106 346.44129643 -83.52734375 372.14453125 Z " fill="#FFDA6A" transform="translate(117,4)"/>
<path d="M0 0 C10.16188862 5.6214703 18.10091404 13.92640361 21.7265625 25.1015625 C24.09644114 36.65647374 23.33041459 48.45103227 16.9609375 58.58984375 C14.76819746 61.64381503 12.71710687 64.0646377 9.7265625 66.37890625 C6.26428002 70.73132479 6.81433942 74.6094837 6.88671875 80.0078125 C6.72551914 89.21493431 6.37025176 96.38901779 -0.4765625 103.1640625 C-6.49016943 108.11507093 -12.82636184 109.99159866 -20.61328125 109.3203125 C-27.72735027 107.9052174 -32.75739875 104.67892166 -37.61328125 99.3203125 C-40.80000018 94.18044325 -41.63734498 89.56141813 -41.75390625 83.59765625 C-41.77324219 82.72947266 -41.79257812 81.86128906 -41.8125 80.96679688 C-41.84642315 79.15712717 -41.86458881 77.34709514 -41.8671875 75.53710938 C-41.90303888 70.1899626 -41.90303888 70.1899626 -44.93359375 66.01171875 C-45.81789063 65.45355469 -46.7021875 64.89539063 -47.61328125 64.3203125 C-54.49868037 55.77679685 -58.35814298 45.65057493 -57.8984375 34.59765625 C-56.38403413 22.50317451 -51.33162421 11.87902369 -41.61328125 4.3203125 C-28.93189262 -3.08252858 -13.96365955 -6.11578351 0 0 Z M-35.42578125 21.0078125 C-39.92431985 26.57694153 -41.95685247 32.07363215 -41.67578125 39.2578125 C-40.70749138 45.87102626 -37.69879764 51.81473806 -32.47265625 56.05859375 C-29.2780615 58.33027363 -29.2780615 58.33027363 -25.61328125 59.3203125 C-25.61328125 51.7303125 -25.61328125 44.1403125 -25.61328125 36.3203125 C-20.33328125 36.3203125 -15.05328125 36.3203125 -9.61328125 36.3203125 C-9.61328125 43.9103125 -9.61328125 51.5003125 -9.61328125 59.3203125 C-3.45015839 57.27777686 -3.45015839 57.27777686 0.63671875 53.0078125 C1.63445312 51.86892578 1.63445312 51.86892578 2.65234375 50.70703125 C7.03386591 44.67750414 7.25166243 38.55520599 6.38671875 31.3203125 C4.24636138 24.48836823 0.4813901 19.14239454 -5.61328125 15.3203125 C-16.25687887 10.13267668 -27.51355307 12.76659354 -35.42578125 21.0078125 Z M-25.61328125 76.3203125 C-26.22180498 84.41214393 -26.22180498 84.41214393 -22.61328125 91.3203125 C-20.23109044 93.06725242 -19.06853592 93.34307523 -16.11328125 93.1953125 C-12.977766 92.09788216 -11.68183573 90.9190427 -9.61328125 88.3203125 C-9.1313285 85.27591115 -9.1313285 85.27591115 -9.36328125 82.0703125 C-9.44578125 80.1728125 -9.52828125 78.2753125 -9.61328125 76.3203125 C-14.89328125 76.3203125 -20.17328125 76.3203125 -25.61328125 76.3203125 Z " fill="#FFDA6A" transform="translate(441.61328125,34.6796875)"/>
<path d="M0 0 C3.32308522 1.94641266 6.09618474 3.82251315 8.8125 6.5625 C9.41707031 7.16191406 10.02164063 7.76132812 10.64453125 8.37890625 C12 10 12 10 12 12 C12.639375 12.268125 13.27875 12.53625 13.9375 12.8125 C16 14 16 14 17 17 C17.66 17.33 18.32 17.66 19 18 C19.66 18.33 20.32 18.66 21 19 C21.495 20.485 21.495 20.485 22 22 C23.31851133 22.69552146 24.65451518 23.35821124 26 24 C27.32807489 25.1586857 28.60858512 26.37302749 29.85058594 27.62353516 C30.59105164 28.36415192 31.33151733 29.10476868 32.09442139 29.86782837 C32.88310608 30.66683563 33.67179077 31.4658429 34.484375 32.2890625 C35.29996887 33.10748627 36.11556274 33.92591003 36.95587158 34.76913452 C39.55864562 37.38309973 42.15437762 40.00393505 44.75 42.625 C46.5138634 44.39889454 48.2781809 46.17233766 50.04296875 47.9453125 C54.36726136 52.29165142 58.6857933 56.64365081 63 61 C61.42400077 64.31115963 59.68825694 66.66702538 57.125 69.3125 C56.44695312 70.03050781 55.76890625 70.74851562 55.0703125 71.48828125 C54.38710937 71.98714844 53.70390625 72.48601562 53 73 C49 72 49 72 42 65 C41.67 76.22 41.34 87.44 41 99 C14.6 99 -11.8 99 -39 99 C-39.33 87.45 -39.66 75.9 -40 64 C-42.97 66.97 -45.94 69.94 -49 73 C-52.66771845 71.16614077 -54.46834996 69.74937171 -57.25 66.875 C-57.95640625 66.15054688 -58.6628125 65.42609375 -59.390625 64.6796875 C-59.92171875 64.12539063 -60.4528125 63.57109375 -61 63 C-59.37641304 58.90379366 -56.43319604 56.16552101 -53.35693359 53.12988281 C-52.49330452 52.26581566 -52.49330452 52.26581566 -51.61222839 51.3842926 C-49.71233463 49.48578963 -47.80546009 47.59446478 -45.8984375 45.703125 C-44.57806566 44.38648418 -43.25813536 43.06940043 -41.93862915 41.75189209 C-38.46765724 38.28854963 -34.9907207 34.83125582 -31.51251221 31.37518311 C-27.96305615 27.8462002 -24.41926799 24.3115358 -20.875 20.77734375 C-13.92220537 13.84598692 -6.96309691 6.92100623 0 0 Z M-14.82250977 35.17211914 C-22.42121916 42.8513857 -24.53133253 49.68305519 -24.66552734 60.39550781 C-24.35492631 67.94437669 -23.63427637 75.47141529 -23 83 C-7.16 83 8.68 83 25 83 C28.18520652 61.19895922 28.18520652 61.19895922 21.23147583 41.06005859 C15.3558045 34.21393803 8.36724878 28.18944998 1 23 C-3.70282231 23 -11.39952757 31.96562851 -14.82250977 35.17211914 Z " fill="#FFDA69" transform="translate(87,365)"/>
<path d="M0 0 C8.8454168 5.39206915 13.83636063 11.74103138 16.53125 21.640625 C17.28125 25.390625 17.28125 25.390625 17.28125 29.390625 C19.92125 29.390625 22.56125 29.390625 25.28125 29.390625 C25.28125 50.510625 25.28125 71.630625 25.28125 93.390625 C-1.11875 93.390625 -27.51875 93.390625 -54.71875 93.390625 C-54.71875 72.270625 -54.71875 51.150625 -54.71875 29.390625 C-52.07875 29.390625 -49.43875 29.390625 -46.71875 29.390625 C-46.8425 27.72 -46.8425 27.72 -46.96875 26.015625 C-46.94166034 18.36279527 -43.59348337 11.45915265 -38.421875 5.921875 C-28.01459946 -3.43512503 -12.83801323 -6.07665959 0 0 Z M-28.03515625 19.0390625 C-30.4125943 22.83302287 -30.71875 24.80393384 -30.71875 29.390625 C-20.15875 29.390625 -9.59875 29.390625 1.28125 29.390625 C-0.87272517 20.17212318 -0.87272517 20.17212318 -7.58203125 14.25 C-14.76423846 11.3613609 -23.13468908 12.90257245 -28.03515625 19.0390625 Z M-38.71875 45.390625 C-38.71875 55.950625 -38.71875 66.510625 -38.71875 77.390625 C-22.87875 77.390625 -7.03875 77.390625 9.28125 77.390625 C9.28125 66.830625 9.28125 56.270625 9.28125 45.390625 C-6.55875 45.390625 -22.39875 45.390625 -38.71875 45.390625 Z " fill="#FFDA6A" transform="translate(102.71875,42.609375)"/>
<path d="M0 0 C8.26977483 6.53677054 13.64449691 15.4987462 15 26 C15.58910156 26.12375 16.17820312 26.2475 16.78515625 26.375 C22.12609363 27.88214282 25.95899855 31.39359296 28.9375 35.9375 C32.28987641 42.57564931 32.21233623 50.31631592 30.37109375 57.4296875 C27.78452699 63.3915499 22.61974758 68.20803287 16.83622742 71.07118225 C13.36335154 72.20849188 10.13639669 72.30289677 6.52270508 72.30639648 C5.78701294 72.31472 5.0513208 72.32304352 4.29333496 72.33161926 C1.8686793 72.35565061 -0.55570673 72.36448438 -2.98046875 72.37109375 C-4.67572608 72.38006776 -6.37098263 72.38918974 -8.0662384 72.39845276 C-11.61945515 72.41492841 -15.17257787 72.42263983 -18.72583008 72.42553711 C-23.25729873 72.43090879 -27.78787083 72.46854401 -32.31908703 72.51428127 C-35.82205853 72.54417458 -39.32481775 72.55126337 -42.82790565 72.55226326 C-44.49712528 72.55644396 -46.1663468 72.56879101 -47.83543968 72.58978081 C-65.38674674 72.79286864 -65.38674674 72.79286864 -73 67 C-78.28010875 61.56662578 -80.60932531 56.21928661 -81.3125 48.625 C-80.56997288 40.01168546 -77.47533414 33.80691255 -71 28 C-68.31256508 26.38547576 -67.2020013 26 -64 26 C-63.938125 25.05125 -63.87625 24.1025 -63.8125 23.125 C-62.40453643 13.57784977 -56.28254232 5.04444647 -48.75 -0.72265625 C-33.4672901 -10.69070582 -14.954337 -10.50102341 0 0 Z M-43 16 C-47.08806537 22.30097825 -49.15230538 27.20634816 -49.0625 34.75 C-49.04896484 36.22726562 -49.04896484 36.22726562 -49.03515625 37.734375 C-49.02355469 38.48203125 -49.01195312 39.2296875 -49 40 C-49.59167969 39.96519531 -50.18335938 39.93039062 -50.79296875 39.89453125 C-55.69023752 39.72676185 -59.08879412 39.68140107 -63 43 C-64.74693992 45.38219081 -65.02276273 46.54474533 -64.875 49.5 C-63.77038829 52.65603346 -62.6281591 53.92573424 -60 56 C-56.76371182 56.60631045 -56.76371182 56.60631045 -53.09179688 56.51757812 C-52.40513443 56.5245874 -51.71847198 56.53159668 -51.01100159 56.53881836 C-48.74650349 56.55639013 -46.48326028 56.54477995 -44.21875 56.53125 C-42.64220948 56.53394519 -41.06567058 56.53782783 -39.48913574 56.54284668 C-36.18709466 56.54874056 -32.88548677 56.54018278 -29.58349609 56.52148438 C-25.3529894 56.49869431 -21.12349772 56.51181807 -16.89302826 56.53577423 C-13.63816697 56.55023551 -10.38354593 56.54562483 -7.12867737 56.53526306 C-5.56897359 56.53259666 -4.00924792 56.53586254 -2.4495697 56.54518127 C-0.26852738 56.55535302 1.91087647 56.53984041 4.09179688 56.51757812 C5.95233704 56.51280457 5.95233704 56.51280457 7.85046387 56.50793457 C11.59038307 55.90478726 12.78449891 55.02845456 15 52 C15.66666667 48.5 15.66666667 48.5 15 45 C13.13291495 42.63502561 11.67938569 41.33969285 9 40 C7.29297265 39.93003986 5.58331997 39.91559846 3.875 39.9375 C2.50988281 39.95103516 2.50988281 39.95103516 1.1171875 39.96484375 C0.06917969 39.98224609 0.06917969 39.98224609 -1 40 C-0.95359375 39.0821875 -0.9071875 38.164375 -0.859375 37.21875 C-0.60205687 28.46993345 -0.81070976 22.67157873 -6.73046875 16.0703125 C-12.13099827 10.87459348 -17.60281956 8.65489921 -24.9375 7.5625 C-31.49234264 8.49890609 -38.40538108 11.14283142 -43 16 Z " fill="#FFDA6A" transform="translate(449,392)"/>
<path d="M0 0 C6.47496935 5.28699977 10.89385341 12.01682002 12.48828125 20.3046875 C13.45098895 30.92603642 11.69688696 39.81059549 4.86328125 48.1796875 C-1.65304959 54.98888714 -9.73881 58.38100539 -19.07421875 58.6171875 C-28.91069917 58.48555577 -36.45265729 55.40153127 -43.56640625 48.59375 C-49.91613191 41.12198447 -51.90948271 33.11373067 -51.78125 23.53125 C-50.98490145 13.99815002 -46.7695639 6.47261734 -39.51171875 0.3046875 C-27.03890251 -7.52359656 -12.53369022 -8.45975359 0 0 Z M-32.88671875 16.8671875 C-35.72230828 21.1205718 -36.1730743 25.3077789 -35.51171875 30.3046875 C-33.72433286 35.12285816 -30.77022475 38.4656835 -26.51171875 41.3046875 C-21.10601385 43.10658913 -17.01109591 42.91460363 -11.82421875 40.8046875 C-7.28590228 37.84853641 -4.22025279 33.56767323 -3.06640625 28.25390625 C-2.74975628 22.81808169 -4.47226641 19.57635024 -7.51171875 15.3046875 C-11.91095849 11.22734335 -15.33406825 9.93442793 -21.38671875 10.0234375 C-26.24148085 10.66597954 -29.5951041 13.31570853 -32.88671875 16.8671875 Z " fill="#FFD96B" transform="translate(275.51171875,229.6953125)"/>
<path d="M0 0 C16.17 0 32.34 0 49 0 C49 5.28 49 10.56 49 16 C43.39 16 37.78 16 32 16 C32 32.17 32 48.34 32 65 C26.72 65 21.44 65 16 65 C16 48.83 16 32.66 16 16 C10.72 16 5.44 16 0 16 C0 10.72 0 5.44 0 0 Z " fill="#FFDA6A" transform="translate(296,224)"/>
<path d="M0 0 C10.89 0 21.78 0 33 0 C33 5.28 33 10.56 33 16 C30.36 16 27.72 16 25 16 C25 26.56 25 37.12 25 48 C27.64 48 30.28 48 33 48 C33 53.28 33 58.56 33 64 C22.11 64 11.22 64 0 64 C0 58.72 0 53.44 0 48 C2.97 48 5.94 48 9 48 C9 37.44 9 26.88 9 16 C6.03 16 3.06 16 0 16 C0 10.72 0 5.44 0 0 Z " fill="#FFD96A" transform="translate(175,224)"/>
<path d="M0 0 C5.61 0 11.22 0 17 0 C17 5.28 17 10.56 17 16 C11.39 16 5.78 16 0 16 C0 10.72 0 5.44 0 0 Z " fill="#FFD96B" transform="translate(264,392)"/>
<path d="M0 0 C5.61 0 11.22 0 17 0 C17 5.28 17 10.56 17 16 C11.39 16 5.78 16 0 16 C0 10.72 0 5.44 0 0 Z " fill="#FFD96B" transform="translate(231,392)"/>
<path d="M0 0 C5.61 0 11.22 0 17 0 C17 5.28 17 10.56 17 16 C11.39 16 5.78 16 0 16 C0 10.72 0 5.44 0 0 Z " fill="#FFD96B" transform="translate(264,104)"/>
<path d="M0 0 C5.61 0 11.22 0 17 0 C17 5.28 17 10.56 17 16 C11.39 16 5.78 16 0 16 C0 10.72 0 5.44 0 0 Z " fill="#FFD96B" transform="translate(231,104)"/>
</svg>
