<?xml version="1.0" encoding="UTF-8"?>
<svg version="1.1" viewBox="0 0 2048 2048" width="1280" height="1280" xmlns="http://www.w3.org/2000/svg">
<path transform="translate(995,51)" d="m0 0h165l9 3 7 5 6 8 3 8 1 11v39l50 1v-48l4-11 8-9 12-6 7-1h89l13 2 11 7 6 8 3 8 1 5v45h65v-41l2-13 6-9 8-7 8-4 7-1h254l13 2 8 4 5 4 6 9 2 5 1 8v43h86l16 3 14 5 13 7 14 11 11 12 8 13 6 12 4 14 2 17v1683l-3 21-6 16-7 13-9 11-6 7-13 10-15 8-18 6-14 2h-1670l-17-3-16-6-12-7-10-8-7-6-11-14-9-17-4-12-2-9-1-9v-1690l3-17 5-14 7-13 10-14 9-9 14-10 14-7 13-4 11-2 786-1 1-48 4-11 8-9 9-5zm42 63-1 1v85h85l1-84-2-2zm263 1v86h25l1-85-1-1zm220 0-1 1v85h191v-86zm-1302 74-28 1-10 4-10 9-6 12-1 5v1682l3 11 6 9 11 8 9 3 713 1h488l463-1 11-4 9-7 6-9 2-5 1-7v-1681l-3-10-6-9-8-7-10-4h-83l-1 41-2 13-7 11-9 6-6 2-8 1h-256l-10-2-10-6-6-8-3-8-1-16-1-34h-65l-1 2v42l-2 10-7 11-9 6-6 2-9 1h-89l-10-2-8-4-8-9-3-7-1-5-1-47h-51v37l-1 12-4 9-6 8-7 4-6 2-11 1h-147l-11-2-9-6-6-7-3-7-1-5-1-46-214-1z" fill="#FDD96C"/>
<path transform="translate(1243,328)" d="m0 0h13l9 3 8 6 5 7 3 8 1 10v56l-1 17h44v-71l1-12 4-9 7-8 10-6 4-1h13l9 3 8 6 6 9 3 11v78h43v-77l2-9 4-8 5-5 5-4 10-4h13l9 3 10 9 6 12 1 10v52l-1 21h55l19 2 13 4 14 7 14 11 9 10 8 13 6 14 3 14v66h77l11 2 10 6 7 9 3 7 1 11-3 10-6 9-7 6-7 3-8 1h-78v44h79l10 2 10 7 6 8 3 7 1 10-2 9-6 10-7 6-9 4-8 1h-77v44h78l10 2 10 6 7 9 3 7 1 11-3 10-6 9-9 7-6 2-7 1h-78v65l-3 14-5 13-6 11-8 10-8 8-10 7-14 7-13 4-16 2-57 1v29l-1 53-3 8-8 10-9 5-13 2-10-2-9-5-7-8-4-9-1-7v-77h-43v76l-2 11-6 10-7 6-10 4-9 1-10-2-10-6-8-11-2-6-1-21v-61h-43v63l-1 19-3 8-7 9-10 6-4 1h-16l-9-4-7-6-6-10-2-11v-76h-60l-14-2-15-5-14-8-10-8-7-7-10-15-5-11-4-14-1-8v-63h-82l-11-4-9-8-6-12-1-9 3-12 6-9 8-6 7-3 7-1h78v-44h-81l-10-3-8-6-6-8-4-13 2-13 6-10 7-6 8-4 6-1h80v-44h-82l-11-4-8-7-6-10-2-11 2-11 6-10 7-6 9-4 6-1h79v-64l3-15 6-15 7-11 8-10 10-9 15-9 18-6 18-2h55v-77l3-12 6-9 10-7zm-81 171-8 2-6 4-5 6-2 7v397l3 8 8 7 9 3h393l9-3 8-7 3-8v-399l-4-8-8-7-7-2z" fill="#FDD96C"/>
<path transform="translate(900,1168)" d="m0 0h886l25 1 10 4 7 6 6 10 2 10v152l-1 14-6 12-8 7-10 4-14 1h-955l-12-1-9-4-8-7-5-8-2-5-1-161 2-13 5-9 9-8 9-4zm-30 64v93h31v-93zm96 0-1 3v90h323l1-2-1-91zm387 0-1 29v64h323l1-1v-91l-5-1zm387 0-1 87 1 6h31l1-1v-91l-7-1z" fill="#FDD96C"/>
<path transform="translate(930,1653)" d="m0 0h785l96 1 9 4 8 6 6 10 2 11v153l-1 12-6 12-8 7-10 4-11 1h-964l-10-2-8-5-5-5-5-7-2-6-1-10v-153l2-11 6-10 9-8 8-3zm60 64-25 1v92h323v-92l-62-1zm392 0-29 1-1 15v76l1 1h322l1-4v-80l-1-8-84-1zm-512 1v92h31v-92zm870 0v92h31l1-1v-90l-1-1z" fill="#FDD96C"/>
<path transform="translate(598,269)" d="m0 0h86l13 2 15 6 12 9 7 7 7 10 5 11 3 11v781l-4 15-7 13-9 10-9 8-14 7-16 4h-92l-15-4-12-6-13-11-8-11-6-12-3-11-1-13v-761l2-14 5-13 6-10 9-10 8-7 14-7 9-3zm4 64-1 34v728l1 4h79l1-1v-764l-1-1z" fill="#FDD96C"/>
<path transform="translate(336,269)" d="m0 0h86l13 2 12 5 11 7 10 9 9 14 5 12 2 12v770l-2 14-5 12-6 10-11 12-14 9-15 5-6 1h-93l-12-3-14-7-10-8-8-9-8-14-4-13-1-7v-773l3-14 8-16 9-11 10-8 16-8 7-2zm4 64-1 1v765h80l1-1v-764l-1-1z" fill="#FDD96C"/>
<path transform="translate(364,1557)" d="m0 0h144l126 1 9 3 6 4 7 8 4 10v265l-4 10-9 10-8 4-4 1-15 1h-379l-9-2-8-5-8-9-4-10v-265l4-10 8-9 12-6zm-88 65-1 61 1 1h63l1-5v-56l-1-1zm128 0-1 61 1 1h64v-62zm128 0v61l1 1h63v-62zm-256 125v63h63l1-1v-61l-1-1zm128 0v63h64v-63zm129 0-1 3v59l1 1h63v-63z" fill="#FDD96C"/>
<path transform="translate(1314,1423)" d="m0 0h494l10 3 8 6 6 8 3 8v149l-3 8-7 9-8 5-6 2-10 1h-482l-12-3-10-7-6-9-2-6-1-11v-131l2-11 5-9 9-8zm38 64v70l1 1h418v-71z" fill="#FDD96C"/>
<path transform="translate(1269,555)" d="m0 0h177l16 4 11 5 10 6 11 9 8 9 8 13 6 14 3 15v173l-4 16-5 12-7 12-12 13-12 9-14 7-14 4-15 2h-161l-17-3-13-5-11-6-10-8-9-9-9-14-5-10-4-15-1-6-1-57 1-116 4-17 8-16 6-9 10-11 12-9 14-7 13-4zm23 63-18 1-6 4-6 7-2 5v163l4 8 8 6 6 2h159l8-3 5-4 4-7 1-4v-161l-4-8-8-7-3-1-48-1z" fill="#FDD96C"/>
<path transform="translate(359,1180)" d="m0 0h13l9 3 9 7 6 10 2 7v41h45l11 2 10 6 7 9 3 8 1 51 42 1 8 3 6 4 8 9 3 7 1 5v7l-3 10-7 10-9 6-7 2-15 1h-28l1 6-1 45-4 9-6 8-8 5-5 2-6 1h-47v41l-3 9-6 9-8 6-10 3h-11l-11-4-7-6-6-10-2-6v-42h-50l-11-4-9-8-6-12-1-6v-47l-4 1h-33l-10-2-10-6-6-7-4-8-1-3v-13l4-9 6-8 11-7 4-1h43v-48l3-10 6-9 8-6 7-3 6-1h47v-43l4-9 6-8 9-6zm-37 132-1 3v86l87 1 2-1v-89z" fill="#FDD96C"/>
<path transform="translate(903,269)" d="m0 0h18l16 2 17 5 16 7 11 7 10 8 9 8 9 11 9 14 8 17 5 19 2 15v15l-3 20-7 21-8 15-12 16-13 13-16 11-16 8-20 6-11 2h-30l-19-4-20-8-15-9-13-11-9-9-11-15-8-15-7-21-2-10-1-10v-17l3-18 4-14 9-19 9-13 7-9h2l2-4 13-11 16-10 19-8 18-4zm2 64-12 3-10 5-9 7-8 9-7 14-2 7-1 15 3 15 6 12 9 11 10 7 11 5 8 2h20l12-4 11-6 9-8 9-14 4-13 1-7v-8l-3-14-7-14-11-12-14-8-9-3-7-1z" fill="#FDD96C"/>
</svg>
