<?xml version="1.0" encoding="UTF-8"?>
<svg version="1.1" xmlns="http://www.w3.org/2000/svg" width="512" height="512">
<path d="M0 0 C3.4375 0.875 3.4375 0.875 4.63520908 2.44616032 C5.75225312 5.82787737 5.72327535 9.08926288 5.71165466 12.61143494 C5.71689134 13.39536686 5.72212802 14.17929878 5.72752339 14.98698622 C5.7425366 17.61629425 5.74322882 20.2454079 5.74389648 22.87475586 C5.75151698 24.75883819 5.75994428 26.6429174 5.76911926 28.5269928 C5.79107945 33.64676907 5.79986498 38.76648561 5.80494571 43.88630366 C5.80858686 47.0837969 5.81482561 50.28127442 5.8219471 53.47876167 C5.84644491 64.63029799 5.85949464 75.78178776 5.86303711 86.93334961 C5.86667473 97.33422356 5.89658552 107.73480284 5.93844169 118.13558668 C5.97310505 127.06137194 5.98858485 135.98705934 5.98928314 144.91291147 C5.99007718 150.24572873 5.99887413 155.57824576 6.02728081 160.91099358 C6.05339431 165.92535299 6.05570428 170.93916179 6.03962517 175.95355797 C6.03780543 177.79462634 6.04454851 179.63572589 6.06044388 181.47672653 C6.08081413 183.98900117 6.07040766 186.49933277 6.05223083 189.01158142 C6.0654308 189.74135081 6.07863077 190.47112019 6.09223074 191.2230038 C6.02737533 195.14320671 5.55949502 196.72835513 3.01651096 199.78516483 C1.00489105 201.41522927 -0.91367378 202.85865199 -3.125 204.1875 C-8.01958572 207.54652942 -9.74138347 212.41165041 -11.5625 217.875 C-12.20981551 224.21869196 -10.65484179 229.38654541 -7.5625 234.875 C-3.51702145 239.54359729 1.05741093 242.4740515 7.26953125 243.2109375 C13.89300454 243.2977458 19.02871999 242.92529573 24.4375 238.875 C29.19247234 234.22569371 32.26787087 229.13608371 32.53515625 222.421875 C32.17528155 216.6989896 31.10183452 211.39886978 27.4375 206.875 C24.65387008 204.58307697 21.80293494 202.53519648 18.80078125 200.5390625 C16.4375 198.875 16.4375 198.875 15.4375 196.875 C15.33764736 194.3650249 15.29852323 191.8826765 15.30378723 189.37234497 C15.30152167 188.58941633 15.29925612 187.80648769 15.29692191 186.99983394 C15.29056415 184.36201645 15.29141241 181.72425011 15.29223633 179.08642578 C15.28924593 177.20101861 15.28584368 175.31561205 15.28205872 173.4302063 C15.27320208 168.29798516 15.2708799 163.16578068 15.27024293 158.03355265 C15.2692951 153.75409228 15.26561824 149.47463582 15.26207083 145.19517696 C15.25391985 135.10098185 15.25148718 125.00679567 15.25219727 114.91259766 C15.25279815 104.4891307 15.2422457 94.06571548 15.2264536 83.64226162 C15.21339112 74.70295216 15.20801283 65.76365964 15.20865268 56.8243407 C15.20890806 51.48101096 15.20603491 46.13772716 15.19547462 40.79440689 C15.18581543 35.76954931 15.18569946 30.74478181 15.19299126 25.71992111 C15.19403984 23.87360757 15.19165809 22.02728849 15.1856308 20.1809845 C15.17794637 17.66442348 15.18253203 15.14817628 15.19026184 12.63162231 C15.18511828 11.89757585 15.17997471 11.16352938 15.17467529 10.40723908 C15.21964108 3.80196296 15.21964108 3.80196296 17.4375 0.875 C20.8125 -0.125 20.8125 -0.125 24.4375 -0.125 C28.76486967 3.11885986 30.74890208 7.93094136 33.09454346 12.66096497 C33.54715192 13.55782522 33.99976038 14.45468548 34.46608424 15.37872332 C35.98145661 18.38647964 37.4853234 21.39984028 38.98925781 24.41333008 C40.07293176 26.57034731 41.15726815 28.72703185 42.24221802 30.88340759 C44.88170467 36.13452591 47.51355298 41.38942751 50.14141181 46.64637069 C52.27753661 50.91945293 54.41633495 55.19118625 56.55702972 59.46198082 C63.28882007 72.8928886 70.01112234 86.32850307 76.72634515 99.76770141 C82.02318163 110.36735725 87.33453595 120.95966169 92.65263692 131.54866222 C98.11456151 142.4244106 103.56605785 153.30532856 109.00655627 164.19181174 C112.060615 170.30250558 115.11886319 176.41101607 118.18820953 182.51404762 C121.0739619 188.25228681 123.94512317 193.99767542 126.80651474 199.74810219 C127.85945749 201.85845385 128.91719533 203.96642078 129.98003769 206.07180405 C131.42918582 208.94427984 132.8608404 211.82482865 134.28839111 214.70808411 C134.92630486 215.95741949 134.92630486 215.95741949 135.57710576 217.23199397 C138.24846259 222.68981277 139.6103903 227.15288611 137.70348358 233.20436764 C137.35688942 233.89110341 137.01029526 234.57783918 136.65319824 235.28538513 C136.257733 236.08593826 135.86226776 236.88649139 135.45481873 237.71130371 C135.01533401 238.5651062 134.5758493 239.41890869 134.12304688 240.29858398 C133.66462906 241.2164418 133.20621124 242.13429962 132.73390198 243.07997131 C131.22120198 246.10050961 129.6889337 249.11065335 128.15625 252.12109375 C127.10127728 254.21797842 126.0475424 256.31548629 124.99499512 258.41358948 C122.22569306 263.92550772 119.43967548 269.42880891 116.65008545 274.93048096 C113.80475154 280.54945516 110.97531684 286.176421 108.14453125 291.80273438 C102.59104756 302.8347 97.01987112 313.85762708 91.4375 324.875 C92.05794189 324.88958252 92.67838379 324.90416504 93.31762695 324.91918945 C96.12904633 324.99366588 98.93927749 325.09032564 101.75 325.1875 C102.72646484 325.21005859 103.70292969 325.23261719 104.70898438 325.25585938 C105.64677734 325.29130859 106.58457031 325.32675781 107.55078125 325.36328125 C108.41485596 325.38946533 109.27893066 325.41564941 110.16918945 325.44262695 C112.86954909 325.95735485 113.7818242 326.7182356 115.4375 328.875 C115.8117218 330.77209473 115.8117218 330.77209473 115.80981445 332.93164062 C115.81604324 333.74258179 115.82227203 334.55352295 115.82868958 335.38903809 C115.81487495 336.69693298 115.81487495 336.69693298 115.80078125 338.03125 C115.80152901 339.37926697 115.80152901 339.37926697 115.80229187 340.7545166 C115.79995175 342.65423799 115.79022688 344.5539625 115.77368164 346.45361328 C115.75009007 349.36388836 115.753121 352.27324736 115.75976562 355.18359375 C115.7541888 357.0286513 115.7470789 358.87370499 115.73828125 360.71875 C115.73919266 361.59067993 115.74010406 362.46260986 115.74104309 363.36096191 C115.73151108 364.17190308 115.72197906 364.98284424 115.7121582 365.81835938 C115.70755081 366.53100952 115.70294342 367.24365967 115.69819641 367.97790527 C115.4375 369.875 115.4375 369.875 113.4375 372.875 C110.81052936 373.09637393 108.42856036 373.15662025 105.8125 373.0625 C105.10609375 373.04896484 104.3996875 373.03542969 103.671875 373.02148438 C101.92675872 372.9861104 100.18203392 372.93230221 98.4375 372.875 C98.45415459 373.87311958 98.45415459 373.87311958 98.47114563 374.8914032 C98.58177659 381.81800919 98.65718339 388.74436418 98.7121582 395.67163086 C98.73730001 398.2566955 98.77141815 400.84168907 98.81469727 403.42651367 C98.87535922 407.14259374 98.90371419 410.85773386 98.92578125 414.57421875 C98.95158768 415.72959641 98.9773941 416.88497406 99.00398254 418.07536316 C99.00710734 427.0176567 99.00710734 427.0176567 96.07104492 430.14379883 C93.4375 431.875 93.4375 431.875 90.8125 431.875 C88.4375 430.875 88.4375 430.875 85.4375 427.875 C85.4375 409.725 85.4375 391.575 85.4375 372.875 C35.9375 372.875 -13.5625 372.875 -64.5625 372.875 C-64.5625 391.025 -64.5625 409.175 -64.5625 427.875 C-69.5625 431.875 -69.5625 431.875 -72.1875 431.875 C-75.10314752 430.64735894 -75.93711828 429.56930628 -77.5625 426.875 C-77.92326355 424.34393311 -77.92326355 424.34393311 -77.90307617 421.46386719 C-77.90273628 419.84263947 -77.90273628 419.84263947 -77.90238953 418.18865967 C-77.88690567 417.02812073 -77.87142181 415.86758179 -77.85546875 414.671875 C-77.85122391 413.47894836 -77.84697906 412.28602173 -77.84260559 411.0569458 C-77.82581023 407.24606781 -77.78815518 403.43571822 -77.75 399.625 C-77.73495433 397.0416743 -77.72126572 394.45834032 -77.70898438 391.875 C-77.67590381 385.54148632 -77.62569524 379.20828091 -77.5625 372.875 C-78.62210938 372.90980469 -79.68171875 372.94460938 -80.7734375 372.98046875 C-82.16144252 373.00860399 -83.54946463 373.03590443 -84.9375 373.0625 C-85.98550781 373.10020508 -85.98550781 373.10020508 -87.0546875 373.13867188 C-89.0859375 373.16796875 -89.0859375 373.16796875 -92.5625 372.875 C-94.58788151 369.83692773 -94.81509698 369.23068826 -94.8371582 365.81835938 C-94.85145622 364.60194763 -94.85145622 364.60194763 -94.86604309 363.36096191 C-94.86513168 362.48903198 -94.86422028 361.61710205 -94.86328125 360.71875 C-94.86756638 359.82007202 -94.8718515 358.92139404 -94.87626648 357.9954834 C-94.88200843 356.09579308 -94.88251103 354.19608077 -94.87817383 352.29638672 C-94.87501196 349.38601319 -94.89848096 346.47665421 -94.92382812 343.56640625 C-94.9261009 341.72135545 -94.92680472 339.87630191 -94.92578125 338.03125 C-94.934991 337.15932007 -94.94420074 336.28739014 -94.95368958 335.38903809 C-94.94746078 334.57809692 -94.94123199 333.76715576 -94.93481445 332.93164062 C-94.93544388 332.21899048 -94.9360733 331.50634033 -94.9367218 330.77209473 C-94.43676144 328.23757599 -93.57661917 327.47249417 -91.5625 325.875 C-89.29418945 325.44262695 -89.29418945 325.44262695 -86.67578125 325.36328125 C-85.2690918 325.31010742 -85.2690918 325.31010742 -83.83398438 325.25585938 C-82.85751953 325.23330078 -81.88105469 325.21074219 -80.875 325.1875 C-79.88693359 325.15333984 -78.89886719 325.11917969 -77.88085938 325.08398438 C-75.44151947 325.00149462 -73.00253937 324.93234932 -70.5625 324.875 C-71.44572937 323.13185768 -71.44572937 323.13185768 -72.34680176 321.35350037 C-77.89474936 310.39952333 -83.42788545 299.43817776 -88.94661713 288.46945095 C-91.78431204 282.83058724 -94.62715552 277.19444589 -97.48193359 271.56420898 C-100.23689705 266.13035402 -102.97811349 260.68976796 -105.70994568 255.24424934 C-106.75444661 253.16817861 -107.80387246 251.09457811 -108.85829163 249.02352715 C-110.33466926 246.1216045 -111.79327004 243.21138153 -113.24804688 240.29858398 C-113.68753159 239.44478149 -114.1270163 238.590979 -114.57981873 237.71130371 C-114.97528397 236.91075058 -115.37074921 236.11019745 -115.77819824 235.28538513 C-116.29808949 234.25528147 -116.29808949 234.25528147 -116.82848358 233.20436764 C-119.09052965 226.02586758 -116.58544974 220.92003312 -113.36869812 214.61869812 C-112.6919617 213.25202042 -112.6919617 213.25202042 -112.00155383 211.85773307 C-110.48783125 208.80940784 -108.95431524 205.771491 -107.4206543 202.7331543 C-106.33075965 200.5487909 -105.24207469 198.36382358 -104.1545105 196.17829895 C-101.50517922 190.86251584 -98.84289399 185.5533468 -96.17445072 180.24714293 C-93.06785781 174.06837933 -89.97577294 167.88239557 -86.88417754 161.69611809 C-81.36869867 150.66097163 -75.83958663 139.63271253 -70.30297852 128.6081543 C-64.92901006 117.90742654 -59.56546736 107.20155661 -54.21313477 96.48999023 C-47.45433572 82.96373418 -40.68641322 69.44208313 -33.91086751 55.9242081 C-31.75017613 51.61274345 -29.59276488 47.2996468 -27.43643761 42.98599815 C-24.5362611 37.18480964 -21.62729579 31.38808061 -18.71238327 25.59428215 C-17.64173553 23.46309849 -16.57381978 21.33053993 -15.50878716 19.19654465 C-14.05896698 16.29272239 -12.59945648 13.39398511 -11.13725281 10.49638367 C-10.5025177 9.21659867 -10.5025177 9.21659867 -9.85495967 7.91095942 C-9.26601459 6.75149089 -9.26601459 6.75149089 -8.66517162 5.56859875 C-8.32911913 4.89876939 -7.99306664 4.22894003 -7.64683074 3.53881282 C-5.4956862 0.23806543 -3.82488639 -0.13420654 0 0 Z M-8.5625 34.875 C-21.32502669 59.53477311 -34.00204807 84.2368455 -46.57934666 108.99164295 C-52.42159379 120.48554583 -58.2907381 131.96412426 -64.22583008 143.41040039 C-69.40036649 153.3900592 -74.52188301 163.39486935 -79.58213276 173.43299121 C-82.26235171 178.74528832 -84.96682374 184.04157322 -87.73526192 189.30851173 C-90.34394257 194.27350805 -92.87990593 199.26940331 -95.36593056 204.29687691 C-96.28714672 206.12918144 -97.23356479 207.94907922 -98.20730972 209.75401688 C-103.45718975 219.07404835 -103.45718975 219.07404835 -104.06963909 229.41780603 C-102.29502717 234.62572944 -99.68197234 239.27155287 -96.77195179 243.92232764 C-95.31826523 246.26931955 -94.12487481 248.69499561 -92.96165466 251.19694519 C-92.26606642 252.59087299 -91.56852515 253.98382817 -90.86889648 255.37573242 C-90.27253812 256.56862995 -90.27253812 256.56862995 -89.66413212 257.78562641 C-88.42249137 260.26818301 -87.17814226 262.74936886 -85.93359375 265.23046875 C-85.14829433 266.79959061 -84.36317924 268.36880475 -83.57824707 269.93811035 C-80.72104528 275.64734872 -77.86032633 281.35482638 -75 287.0625 C-68.585625 299.870625 -62.17125 312.67875 -55.5625 325.875 C-12.0025 325.875 31.5575 325.875 76.4375 325.875 C84.46975365 310.65607739 84.46975365 310.65607739 92.27734375 295.328125 C92.76981094 294.34414734 93.26227814 293.36016968 93.76966858 292.34637451 C94.79461004 290.29716146 95.81857609 288.24746024 96.84155273 286.19726562 C98.36730002 283.14042693 99.89730112 280.08574481 101.42773438 277.03125 C106.51222533 266.86614121 111.53252915 256.67306923 116.44140625 246.421875 C116.88596664 245.49401184 117.33052704 244.56614868 117.78855896 243.61016846 C119.01536467 241.03612521 120.23943925 238.46257331 121.4375 235.875 C121.98718737 234.91330091 121.98718737 234.91330091 122.54797953 233.93217355 C124.88915093 229.5882947 124.88915093 229.5882947 125.17641121 224.78538859 C124.36112712 222.58173026 123.38141218 220.57612912 122.27398682 218.50364685 C121.88538349 217.71191497 121.49678016 216.9201831 121.09640098 216.10445935 C119.78906471 213.46183569 118.43469058 210.84642835 117.07910156 208.22827148 C116.13096957 206.3368039 115.18583161 204.44383297 114.24346924 202.54948425 C111.67850414 197.41467594 109.07214662 192.30191398 106.45788288 187.19206882 C103.73228223 181.84713273 101.04517823 176.48291742 98.35394287 171.12062073 C93.25271431 160.97100369 88.1170671 150.83921782 82.96884704 140.71337038 C77.10912675 129.1839391 71.28800819 117.63517728 65.47006273 106.08462417 C53.50205794 82.32631328 41.48574488 58.59270853 29.4375 34.875 C29.1075 34.875 28.7775 34.875 28.4375 34.875 C28.20366875 55.05917143 28.02744518 75.24306721 27.91937828 95.42831326 C27.86786186 104.80122145 27.79765699 114.17328704 27.68310547 123.5456543 C27.58328344 131.71679621 27.51888317 139.88732782 27.49661505 148.05906254 C27.48360176 152.38443234 27.45312956 156.70805656 27.38019943 161.03286552 C27.31202849 165.10869166 27.29143936 169.18206357 27.30642319 173.25840569 C27.30368469 174.74960196 27.28395705 176.24088505 27.24544525 177.73158646 C26.96304364 186.21642015 26.96304364 186.21642015 30.63240433 193.63194466 C33.24463517 196.01265526 33.24463517 196.01265526 35.990839 197.92071629 C40.69061377 201.67468682 42.58017276 207.30301827 44.4375 212.875 C45.32000835 224.46107386 44.9572732 234.55609894 37.67578125 244.2109375 C31.56658421 250.87776916 23.43978033 255.40858076 14.37109375 256.11328125 C3.45523451 256.34501457 -4.42932497 254.84014586 -12.9375 247.75 C-19.67403277 241.28121495 -23.61605391 233.44559978 -23.85546875 224.07421875 C-23.9587143 212.11838424 -21.8781826 204.73425999 -13.5625 195.78515625 C-11.5625 193.875 -11.5625 193.875 -9.46756363 192.64831066 C-7.28998165 190.97880826 -7.28998165 190.97880826 -7.07030869 188.0695467 C-7.07399586 186.92191443 -7.07768303 185.77428217 -7.08148193 184.59187317 C-7.07598328 183.27514114 -7.07048462 181.95840912 -7.06481934 180.60177612 C-7.07897608 179.13921757 -7.09351532 177.67666267 -7.10839844 176.21411133 C-7.10952651 174.67674285 -7.10889384 173.13937222 -7.10662842 171.602005 C-7.10547876 167.42444189 -7.12902838 163.24733635 -7.15692425 159.06987977 C-7.18189624 154.70568286 -7.18427657 150.34147596 -7.18902588 145.97721863 C-7.20146805 137.71113038 -7.23430637 129.44525325 -7.27442384 121.17925805 C-7.319103 111.76948197 -7.34111887 102.3596959 -7.36120558 92.94984019 C-7.40303798 73.59144035 -7.47341407 54.23323713 -7.5625 34.875 C-7.8925 34.875 -8.2225 34.875 -8.5625 34.875 Z M-82.5625 338.875 C-82.5625 346.135 -82.5625 353.395 -82.5625 360.875 C-21.1825 360.875 40.1975 360.875 103.4375 360.875 C103.4375 353.615 103.4375 346.355 103.4375 338.875 C42.0575 338.875 -19.3225 338.875 -82.5625 338.875 Z " fill="#FFDA6A" transform="translate(245.5625,75.125)"/>
<path d="M0 0 C3.9896893 3.73257599 5.94334913 6.85837282 8 12 C76.805 12.495 76.805 12.495 147 13 C147 8.71 147 4.42 147 0 C148.9609375 -3.27099609 148.9609375 -3.27099609 152 -5 C154.89772309 -5.66081353 157.66122531 -5.70204701 160.625 -5.6640625 C161.4495166 -5.66884613 162.2740332 -5.67362976 163.12353516 -5.67855835 C164.86167313 -5.68195122 166.59987544 -5.67279153 168.33789062 -5.65185547 C170.99233825 -5.62507729 173.64255825 -5.65161996 176.296875 -5.68359375 C177.98959263 -5.68028954 179.68230763 -5.67388306 181.375 -5.6640625 C182.16471191 -5.67418365 182.95442383 -5.68430481 183.76806641 -5.69473267 C187.5637242 -5.61435536 189.68528414 -5.17905027 193.0390625 -3.27099609 C195 0 195 0 195 13 C240.87 12.67 286.74 12.34 334 12 C335.32 9.36 336.64 6.72 338 4 C342.09510253 -1.07155034 347.61935895 -3.93486914 354 -5 C361.49769392 -5.35295849 367.25764145 -3.8879157 373 1 C378.55318173 6.30582397 381.01653985 11.12084418 381.3125 18.875 C381.12468626 26.69274684 378.64356798 32.48184464 373 38 C365.7501089 42.44073564 358.84277063 44.39621764 350.43359375 42.38671875 C343.96742497 40.14577171 339.75394033 36.72689193 336 31 C335.34 29.35 334.68 27.7 334 26 C303.97 26 273.94 26 243 26 C251.91 29.96 251.91 29.96 261 34 C264.51120024 35.87961065 267.87886998 37.72804697 271.25 39.8125 C272.49620117 40.57324829 272.49620117 40.57324829 273.76757812 41.34936523 C285.96301053 48.93148687 296.62903831 58.11795508 307 68 C307.77859375 68.72574219 308.5571875 69.45148438 309.359375 70.19921875 C337.02374153 96.73542849 354.08973617 133.7519925 361 171 C361.19480957 172.03205566 361.19480957 172.03205566 361.39355469 173.08496094 C362.97633064 181.74367643 363.24034762 190.21395925 363 199 C363.96421875 198.95359375 364.9284375 198.9071875 365.921875 198.859375 C367.18515625 198.82328125 368.4484375 198.7871875 369.75 198.75 C371.00296875 198.70359375 372.2559375 198.6571875 373.546875 198.609375 C377 199 377 199 379.18481445 200.4597168 C381.8690859 204.21625269 381.5560765 207.52392147 381.49609375 212.03515625 C381.49754898 212.91022324 381.49900421 213.78529022 381.50050354 214.68687439 C381.49884598 216.53355241 381.48730062 218.38024444 381.46655273 220.22680664 C381.43756561 223.05609638 381.44595258 225.88351589 381.45898438 228.71289062 C381.45274777 230.50782162 381.44435744 232.30274669 381.43359375 234.09765625 C381.43652939 234.94457535 381.43946503 235.79149445 381.44248962 236.66407776 C381.34808043 242.52692997 381.34808043 242.52692997 379.73402405 244.7205658 C377.60967099 246.28800079 376.47372009 246.38969736 373.8515625 246.41992188 C373.02060059 246.43583374 372.18963867 246.45174561 371.33349609 246.46813965 C370.43969238 246.46834106 369.54588867 246.46854248 368.625 246.46875 C367.24368896 246.48017029 367.24368896 246.48017029 365.83447266 246.49182129 C363.8877229 246.50262557 361.94091517 246.50547406 359.99414062 246.50097656 C357.01074001 246.5000035 354.02990455 246.54163508 351.046875 246.5859375 C349.15625538 246.59114383 347.26562679 246.5938327 345.375 246.59375 C344.48119629 246.61014526 343.58739258 246.62654053 342.66650391 246.64343262 C336.5907736 246.57539433 336.5907736 246.57539433 333.93676758 243.99047852 C332.7320127 240.14449401 332.58906768 236.54760563 332.63671875 232.55859375 C332.63622025 231.75390152 332.63572174 230.94920929 332.63520813 230.12013245 C332.6375414 228.42487102 332.64722578 226.72960566 332.66381836 225.03442383 C332.6874539 222.4425557 332.68436843 219.85171451 332.67773438 217.25976562 C332.68331034 215.60936888 332.69041971 213.95897646 332.69921875 212.30859375 C332.69830734 211.53559433 332.69739594 210.76259491 332.69645691 209.96617126 C332.78698178 203.08728496 332.78698178 203.08728496 335 200 C338.00313748 198.49843126 340.79067522 198.90718796 344.125 198.9375 C345.40632813 198.94652344 346.68765625 198.95554688 348.0078125 198.96484375 C349.48894531 198.98224609 349.48894531 198.98224609 351 199 C346.84547772 157.39276944 333.93484231 118.75292629 306 87 C305.17242187 86.03964844 304.34484375 85.07929687 303.4921875 84.08984375 C284.53098759 62.46195134 259.79487665 47.03917303 233 37 C231.81277344 36.54882812 230.62554687 36.09765625 229.40234375 35.6328125 C218.20827275 31.64112827 206.6273715 29.35638768 195 27 C195.04640625 27.81984375 195.0928125 28.6396875 195.140625 29.484375 C195.17671875 30.56203125 195.2128125 31.6396875 195.25 32.75 C195.29640625 33.81734375 195.3428125 34.8846875 195.390625 35.984375 C195 39 195 39 193.53808594 41.15527344 C189.79817342 43.8735092 186.51652394 43.57469474 182 43.53125 C181.12730469 43.5350769 180.25460937 43.53890381 179.35546875 43.54284668 C177.51300908 43.5455649 175.67051076 43.53820994 173.828125 43.52148438 C171.00954066 43.50007248 168.19350515 43.52128801 165.375 43.546875 C163.58332771 43.54423171 161.79165701 43.53910669 160 43.53125 C159.15824219 43.53934692 158.31648437 43.54744385 157.44921875 43.55578613 C153.74926007 43.496555 151.6114363 43.3943389 148.453125 41.35742188 C146.56825023 38.29956725 146.59495264 36.31608933 146.75 32.75 C146.78609375 31.67234375 146.8221875 30.5946875 146.859375 29.484375 C146.90578125 28.66453125 146.9521875 27.8446875 147 27 C111.28121835 34.74474164 79.52397207 46.07404992 52 71 C51.10925781 71.77085938 50.21851563 72.54171875 49.30078125 73.3359375 C12.41754013 105.53110969 -3.83278872 151.54324374 -9 199 C-8.02417969 198.97679687 -7.04835938 198.95359375 -6.04296875 198.9296875 C-4.77066406 198.91164062 -3.49835938 198.89359375 -2.1875 198.875 C-0.92292969 198.85179687 0.34164062 198.82859375 1.64453125 198.8046875 C5 199 5 199 8 201 C9.25315817 204.7594745 9.1817264 208.29281278 9.203125 212.2109375 C9.20882507 213.01608795 9.21452515 213.8212384 9.22039795 214.65078735 C9.22983936 216.35376678 9.23637852 218.0567644 9.24023438 219.75976562 C9.24993801 222.35839873 9.28096784 224.95624003 9.3125 227.5546875 C9.31903067 229.21093281 9.32428089 230.86718377 9.328125 232.5234375 C9.3404718 233.29754974 9.3528186 234.07166199 9.36553955 234.86923218 C9.352255 238.10375337 9.03052456 240.90225444 8.06542969 243.99267578 C5.23461908 246.74384893 3.18577406 246.60029338 -0.66650391 246.64343262 C-2.00720947 246.61883972 -2.00720947 246.61883972 -3.375 246.59375 C-4.75631104 246.59381042 -4.75631104 246.59381042 -6.16552734 246.59387207 C-8.11237411 246.5885109 -10.05921989 246.57090267 -12.00585938 246.54199219 C-14.98895263 246.50015494 -17.96978806 246.5009203 -20.953125 246.5078125 C-22.84376572 246.49731962 -24.73439478 246.48438099 -26.625 246.46875 C-27.51880371 246.46854858 -28.41260742 246.46834717 -29.33349609 246.46813965 C-30.16445801 246.45222778 -30.99541992 246.43631592 -31.8515625 246.41992188 C-32.58197754 246.41150269 -33.31239258 246.4030835 -34.06494141 246.39440918 C-36.59493953 245.87873772 -37.47909791 245.06703145 -39 243 C-39.31071747 239.96322957 -39.44412524 237.13594581 -39.43359375 234.09765625 C-39.4388356 233.22354599 -39.44407745 232.34943573 -39.44947815 231.44883728 C-39.45590058 229.60042381 -39.45455848 227.75196948 -39.44604492 225.90356445 C-39.43754134 223.07624416 -39.46628148 220.25094839 -39.49804688 217.42382812 C-39.49965915 215.62760477 -39.49908085 213.83137784 -39.49609375 212.03515625 C-39.50732773 211.19026138 -39.51856171 210.34536652 -39.53013611 209.47486877 C-39.48473827 205.64768222 -39.45511933 203.63692221 -37.18481445 200.4597168 C-34.00592864 198.3358417 -31.52389585 198.61022608 -27.75 198.75 C-26.48671875 198.78609375 -25.2234375 198.8221875 -23.921875 198.859375 C-22.95765625 198.90578125 -21.9934375 198.9521875 -21 199 C-21.06960937 197.90171875 -21.06960937 197.90171875 -21.140625 196.78125 C-22.69089601 150.2731198 0.68868906 104.64712704 31.57470703 71.29980469 C50.73373604 50.96656971 73.63721954 37.27234687 99 26 C68.97 26 38.94 26 8 26 C6.68 28.64 5.36 31.28 4 34 C-0.4362078 39.37626135 -6.35815771 42.32978748 -13.19140625 43.31640625 C-20.39110532 43.70456394 -25.87101676 41.01645586 -31.8125 37.1875 C-36.88074926 32.11925074 -39.11428826 26.35224752 -39.25 19.25 C-39.13643961 12.21957962 -37.55627355 7.33633574 -32.6875 2.1875 C-23.42345338 -6.37442941 -10.39422756 -7.42763471 0 0 Z M-24.8125 12.6875 C-26.56934427 16.10872305 -26.78220664 19.2951849 -26 23 C-24.24700706 26.0190434 -22.16977599 28.41511201 -19 30 C-14.76609838 30.40710593 -12.48411648 30.25575965 -8.6875 28.25 C-5.11882003 25.26226793 -4.22020439 23.68823369 -3.625 19.125 C-4.10458455 15.12846204 -5.46739433 13.09540692 -8 10 C-13.94559496 5.63989703 -19.91209989 8.12505852 -24.8125 12.6875 Z M160 8 C160 15.26 160 22.52 160 30 C167.26 30 174.52 30 182 30 C182 22.74 182 15.48 182 8 C174.74 8 167.48 8 160 8 Z M348 12 C345.64757653 15.20785018 345.5315791 18.09649252 346 22 C347.63435405 25.03522895 349.055553 27.28352297 351.8125 29.375 C355.10975883 30.31707395 357.5812599 30.41260656 361 30 C363.97239241 28.21523759 366.42604027 26.14791945 368 23 C368.49337839 18.06621607 368.52463704 15.93080765 366.0625 11.5625 C362.60758589 8.6716535 360.63024803 7.97494115 356.21875 7.76171875 C352.64482569 8.14553809 350.62355372 9.63240274 348 12 Z M-26 212 C-26 219.26 -26 226.52 -26 234 C-18.74 234 -11.48 234 -4 234 C-4 226.74 -4 219.48 -4 212 C-11.26 212 -18.52 212 -26 212 Z M346 212 C346 219.26 346 226.52 346 234 C353.26 234 360.52 234 368 234 C368 226.74 368 219.48 368 212 C360.74 212 353.48 212 346 212 Z " fill="#FFDA6A" transform="translate(85,10)"/>
</svg>
