<?xml version="1.0" encoding="UTF-8"?>
<svg version="1.1" viewBox="0 0 2048 2048" width="1280" height="1280" xmlns="http://www.w3.org/2000/svg">
<path transform="translate(404,80)" d="m0 0h17l18 2 21 5 20 8 15 8 17 12 12 11 9 9 12 16 10 17 8 19 5 13 499 1 10 3 10 7 7 8 4 8 2 9v10l-3 10-5 9-8 8-12 6-5 1-18 1h-109l1 594h154l1-10 7-29 6-18 9-22 10-19 9-15 13-18 9-11 9-10 7-8 8-7 11-10 20-15 16-10 22-12 23-10 19-6 26-6 19-3 9-1h48l28 4 25 6 27 9 24 11 19 11 12 8 12 9 11 9 12 11 15 15 9 11 12 16 12 19 12 23 8 19 7 21 7 30 1 8h199l-1-85-20-7-17-8-18-12-13-11-12-12-13-17-9-16-6-13-6-18-4-20-1-8v-28l3-19 5-19 10-23 8-13 12-16 12-13 13-11 18-12 19-9 18-6h2v-198h-124v79l-1 11-4 10-7 9-8 6-10 4-6 1h-10l-13-4-9-7-6-7-4-8-2-8v-253l3-10 7-11 7-6 9-5 15-2 12 2 10 5 5 4 6 8 4 8 2 12v82h171l12 4 9 7 7 9 4 10 1 8v240l12 3 21 9 15 9 12 9 10 9 6 5 9 11 9 12 9 16 5 11 8 24 4 19v37l-6 25-5 15-7 16-9 15-10 13-9 10-9 9-16 12-16 9-15 7-17 6-1 384 12 3 17 7 15 8 15 11 13 11 12 13 10 14 8 14 7 15 6 18 5 24v34l-5 24-6 18-8 16-9 14-9 11-6 7-11 9-1 4 12 11 9 11 10 14 10 19 9 25 5 24v33l-5 24-7 20-9 17-10 14-9 10-4 5-11 9-1 3 4 2 13 13 13 17 10 17 8 20 5 18 3 15v35l-6 26-6 18-9 19-12 18-9 11-10 11-11 9-12 9-18 10-16 7-19 5-19 3-172 1-1 36-2 13-4 8-6 8-9 6-12 5h-415l-16-8-6-5-7-11-3-10-1-42-1095-1-11-4-8-6-8-9-4-10-1-5-1-139-18-6-21-10-12-8-10-8-10-9-10-10-12-16-9-16-6-13-6-18-5-22v-40l6-25 6-17 8-16 6-10 12-16 12-13 13-11 15-10 17-9 17-6 8-2-1-122-8-3-19-8-17-9-14-10-12-11-12-12-11-15-10-17-8-20-5-18-3-14v-41l6-24 7-19 11-21 14-19 19-19 15-11 19-11 21-8 7-1v-98l-43-1-11-4-8-6-7-8-4-8-2-9v-413l4-12 7-9 8-7 9-4 4-1 43-1 1-239 3-10 7-10 9-8 12-5 106-1 3-11 6-15 10-19 14-19 18-18 13-10 15-9 14-7 21-7 20-4zm-204 201v193l50 1 10 3 10 6 7 8 5 12 1 7v401l-1 13-4 10-7 9-8 6-8 3-6 1-49 1v98l8 3 20 8 15 8 13 9 11 9 13 13 12 16 10 17 8 19 5 17 3 16 1 11v16l-2 21-5 20-5 14-8 17-7 11-8 11-9 10-12 12-15 11-16 9-18 8-13 4-1 1v123l20 7 16 8 12 7 12 9 10 9 12 12 13 18 11 21 7 20 4 17 2 19v15l-2 21-5 20-8 21-8 15-10 14-8 10-13 13-13 10-15 9-16 8-20 7-1 1v94h467l1-1v-94l-198-1-11-2-10-5-7-6-6-10-3-12v-678l4-11 6-9 9-7 10-4 5-1 201-1v-769h-101l-4 10-6 16-10 19-10 14-11 12-5 5-11 10-15 10-19 10-17 6-20 5-16 2h-24l-25-4-16-5-17-7-16-9-17-13-18-18-10-13-11-19-8-20-4-11zm548 0v769l199 1 10 2 10 5 3 3h2l2 4 6 9 2 6 1 7v667l-2 16-6 11-4 5-10 6-10 3-9 1-194 1v95h499l1-1 1-51 4-11 6-9 9-7 9-4 8-1h401l15 2 10 5 9 9 5 10 2 12 1 46h157l20-2 16-6 10-6 10-8 8-8 9-14 6-14 4-20v-13l-3-16-5-13-9-14-10-10-11-7-12-6-16-4-23-2-12-5-7-5-7-10-4-12v-13l4-12 6-8 8-7 9-4 25-7 21-9 15-9 12-11 7-8 6-10 4-12 2-12v-12l-3-15-5-14-9-14-10-11-13-9-12-6-15-4-21-2-11-4-9-6-7-10-4-12v-13l4-12 7-9 7-6 9-4 28-7 15-6 15-8 10-8 10-10 8-14 4-12 2-12v-12l-3-16-5-14-9-14-10-11-13-9-15-7-13-3-20-2-11-4-6-4-5-5-6-9-3-12-1-258h-199l-1 1-4 22-5 19-6 18-10 23-11 21-12 18-12 16-10 11-7 8-12 12-11 9-13 10-15 10-16 9-15 8-23 9-18 6-21 5-27 4-10 1h-38l-25-3-24-5-20-6-19-7-25-12-17-10-16-11-11-9-14-12-14-14-7-8-9-11-13-18-11-19-8-16-7-16-9-27-5-22-3-14-203-1-11-4-8-6-6-7-4-8-2-9-1-639z" fill="#FED96E"/>
<path transform="translate(513,1130)" d="m0 0h390l1 7v578l-2 2h-306l-84-1v-585z" fill="#020202"/>
<path transform="translate(1359,715)" d="m0 0h27l22 3 22 5 21 8 16 8 14 8 17 13 13 12 11 11v2h2l12 16 8 13 12 23 9 27 4 18 2 16 1 20-2 23-4 22-6 21-10 23-8 14-9 13-11 14-20 20-14 11-19 12-16 8-18 7-17 5-23 4-11 1h-23l-18-2-25-5-18-6-18-8-16-9-17-12-14-12-10-10-7-8-9-12-12-19-11-23-8-25-4-22-2-22 1-24 3-22 6-23 8-20 11-21 8-12 10-13 15-16 12-11 15-11 15-9 16-8 19-7 19-5 18-3z" fill="#020202"/>
<path transform="translate(1514)" d="m0 0h19l14 7 8 7 6 10 2 6 1 8v402l-1 11-5 12-9 10-8 5-11 3h-14l-11-4-8-6-7-8-4-8-2-8v-166h-174l-11-1-12-5-10-8-13-13-8-7-19-19-8-7-12-12-8-7-13-13-8-7-17-17-8-7-18-18-8-7-11-11-8-7-9-9-7-12-2-7v-13l3-10 6-10 9-8 11-5 6-1h9l12 3 11 7 10 10 8 7 15 15 8 7 17 17 8 7 12 12 8 7 14 14 8 7 15 15 2 1v2l4 2 17 17 8 7 4 3 159 1v-167l3-10 6-10 9-8z" fill="#FED96E"/>
<path transform="translate(751,1208)" d="m0 0h11l10 3 10 6 7 7 7 14 1 4v12l-3 10-6 10-12 16-28 36-30 39-7 9 4 1h76l10 2 11 6 7 7 6 10 3 10v12l-3 10-8 12-14 18-13 17-14 18-12 16-12 15-12 16-12 15-12 16-12 15-12 16-11 14-8 7-10 5-7 2h-13l-11-4-9-6-7-8-5-11-1-4v-14l4-11 8-12 14-18 10-13 14-18 10-13 14-18 20-26 1-2h-82l-13-4-8-6-8-9-5-11-1-5v-13l4-11 6-9 14-18 12-16 11-14 14-18 10-13 14-18 30-39 14-18 8-10 5-6 11-7z" fill="#FED96E"/>
<path transform="translate(1329,1887)" d="m0 0h211l107 1 1 1v78l-1 1h-318l-1-1v-79z" fill="#020202"/>
<path transform="translate(125,554)" d="m0 0h78l1 4v210l-1 107h-78l-1-1v-319z" fill="#020202"/>
<path transform="translate(1882,554)" d="m0 0h11l14 2 14 5 12 7 10 8 9 10 9 16 5 16 2 12v9l-3 16-4 12-6 11-7 9-11 11-13 8-11 5-15 3h-19l-15-3-12-5-12-7-12-11-9-13-6-12-4-17-1-16 3-18 6-15 9-14 12-12 14-9 13-5z" fill="#020202"/>
<path transform="translate(148,1129)" d="m0 0h22l14 3 12 5 10 6 10 8 10 13 6 10 5 14 3 16v9l-3 17-5 13-6 11-9 11-10 9-14 8-15 5-5 1h-25l-16-4-16-8-10-8-8-8-9-14-5-12-3-13-1-16 3-19 6-15 7-11 11-12 12-9 13-6z" fill="#020202"/>
<path transform="translate(401,161)" d="m0 0h21l14 3 12 5 10 6 10 8 10 13 6 10 5 14 3 16v9l-4 20-5 13-8 12-9 10-10 8-16 8-14 4h-26l-17-4-15-8-10-8-8-8-9-14-5-12-3-13-1-16 3-19 6-15 7-11 12-13 10-7 14-7z" fill="#020202"/>
<path transform="translate(160,1562)" d="m0 0 18 2 12 4 12 6 11 8v2l4 2 9 12 6 10 5 14 3 16v9l-4 20-5 12-9 14-5 6h-2v2l-12 9-16 8-16 4h-20l-15-3-11-4-14-9-10-9-9-12-7-14-4-17-1-16 3-18 6-15 9-14 12-12 13-8 14-6 10-2z" fill="#020202"/>
</svg>
