<?xml version="1.0" encoding="UTF-8"?>
<svg version="1.1" xmlns="http://www.w3.org/2000/svg" width="600" height="139">
<path d="M0 0 C198 0 396 0 600 0 C600 45.87 600 91.74 600 139 C402 139 204 139 0 139 C0 93.13 0 47.26 0 0 Z " fill="#060606" transform="translate(0,0)"/>
<path d="M0 0 C-0.33 2.31 -0.66 4.62 -1 7 C2.0745356 6.2236068 2.0745356 6.2236068 4 4 C5.32407669 3.31513275 6.65909241 2.65129797 8 2 C9.0209375 1.195625 9.0209375 1.195625 10.0625 0.375 C15.10540823 -1.98551024 20.8715003 -2.05036272 26.1640625 -0.2734375 C30.10705168 1.79033982 32.18170501 4.01149271 34 8 C34.3958657 11.01301709 34.34976295 13.98513283 34.29296875 17.01953125 C34.28872391 17.87810226 34.28447906 18.73667328 34.28010559 19.6212616 C34.26336995 22.35199914 34.22572766 25.08198712 34.1875 27.8125 C34.17244653 29.6686091 34.15875928 31.52472982 34.14648438 33.38085938 C34.11348323 37.92085985 34.06173659 42.46030302 34 47 C30.04 47 26.08 47 22 47 C21.98541748 45.98574951 21.97083496 44.97149902 21.95581055 43.92651367 C21.89783747 40.16345971 21.82060541 36.40100479 21.73754883 32.63842773 C21.70429464 31.00994591 21.67626416 29.38134869 21.65356445 27.75268555 C21.62002643 25.41144639 21.56771415 23.07126514 21.51171875 20.73046875 C21.50532883 20.00224411 21.4989389 19.27401947 21.49235535 18.52372742 C21.40757481 15.60916197 21.33518805 13.50019604 19.68676758 11.0402832 C16.80735363 9.26445706 14.27201328 9.64942715 11 10 C9.1624525 10.97228778 9.1624525 10.97228778 8 13 C7.66911188 15.64916014 7.51156506 18.07693956 7.48828125 20.73046875 C7.47033005 21.48088943 7.45237885 22.23131012 7.43388367 23.00447083 C7.37974813 25.3987569 7.34587584 27.79284331 7.3125 30.1875 C7.27932964 31.81187677 7.24484024 33.43622717 7.20898438 35.06054688 C7.1240203 39.04022056 7.05722535 43.0198347 7 47 C2.71 47 -1.58 47 -6 47 C-6.01981934 45.95021973 -6.03963867 44.90043945 -6.06005859 43.81884766 C-6.13602198 39.93106739 -6.22475298 36.04366597 -6.31738281 32.15625 C-6.35571104 30.47240671 -6.39055712 28.78848045 -6.421875 27.10449219 C-6.46744287 24.68654694 -6.52544923 22.26917472 -6.5859375 19.8515625 C-6.59748871 19.0963028 -6.60903992 18.34104309 -6.62094116 17.56289673 C-6.60330066 13.32174802 -6.60330066 13.32174802 -9 10 C-14.0437819 9.37185683 -14.0437819 9.37185683 -18.59130859 11.03955078 C-20.74420545 14.03569666 -20.48048377 17.17078905 -20.51171875 20.73046875 C-20.52966995 21.48088943 -20.54762115 22.23131012 -20.56611633 23.00447083 C-20.62025187 25.3987569 -20.65412416 27.79284331 -20.6875 30.1875 C-20.72067036 31.81187677 -20.75515976 33.43622717 -20.79101562 35.06054688 C-20.8759797 39.04022056 -20.94277465 43.0198347 -21 47 C-24.96 47 -28.92 47 -33 47 C-33 31.49 -33 15.98 -33 0 C-29.04 0 -25.08 0 -21 0 C-20.67 0.99 -20.34 1.98 -20 3 C-19.236875 2.34 -18.47375 1.68 -17.6875 1 C-12.5947736 -2.44794634 -5.62759308 -1.87586436 0 0 Z " fill="#FCFBFC" transform="translate(410,61)"/>
<path d="M0 0 C4.62 0 9.24 0 14 0 C14.33 8.58 14.66 17.16 15 26 C16.629375 23.9375 18.25875 21.875 19.9375 19.75 C20.48567383 19.0688916 21.03384766 18.3877832 21.59863281 17.68603516 C23.99805877 14.68551248 26.23675749 11.7213107 28.171875 8.3984375 C33.02721062 0.5132219 33.02721062 0.5132219 36.94824219 -0.50683594 C41.69296418 -1.0216842 46.28428369 -0.62490474 51 0 C49.6765115 2.8561761 48.19106962 5.16371497 46.171875 7.57421875 C45.61886719 8.24259766 45.06585938 8.91097656 44.49609375 9.59960938 C43.34807335 10.97235413 42.19964756 12.34475999 41.05078125 13.71679688 C37.0109284 18.60100696 33.42148153 23.66500598 30 29 C30.34667725 29.53254395 30.69335449 30.06508789 31.05053711 30.61376953 C34.46938067 35.8666596 37.88512436 41.12155203 41.29785156 46.37841797 C42.36436675 48.02102268 43.43135005 49.66332365 44.49902344 51.30517578 C45.77249329 53.26446506 47.04303089 55.22561708 48.3125 57.1875 C49.03050781 58.29480469 49.74851563 59.40210938 50.48828125 60.54296875 C52 63 52 63 52 64 C46.67834677 64.95076683 41.20734118 65.86111204 36 64 C31.79173529 60.3430093 29.47351297 55.10709724 27.09228516 50.16015625 C25.30442842 46.62440382 23.15566224 43.32035667 21 40 C17.63590427 41.6050489 15.78042752 42.62202875 14 46 C13.5013038 49.07741162 13.39762178 52.13697485 13.3125 55.25 C13.27833984 56.09046875 13.24417969 56.9309375 13.20898438 57.796875 C13.12676432 59.86412204 13.06169843 61.93203874 13 64 C8.71 64 4.42 64 0 64 C0 42.88 0 21.76 0 0 Z " fill="#F7F7F7" transform="translate(44,44)"/>
<path d="M0 0 C4.29 0 8.58 0 13 0 C13.33 11.55 13.66 23.1 14 35 C15.835625 32.525 17.67125 30.05 19.5625 27.5 C25.79450937 19.73429409 25.79450937 19.73429409 31.203125 19.00390625 C34.8606253 18.90067209 38.40316613 19.32839202 42 20 C37.43492321 26.40900977 32.33082532 32.2190161 27 38 C28.40027202 41.85926498 30.20863803 45.06740822 32.4765625 48.484375 C33.146875 49.50144531 33.8171875 50.51851562 34.5078125 51.56640625 C35.20648438 52.61699219 35.90515625 53.66757813 36.625 54.75 C38.01498421 56.84765865 39.40311404 58.9465477 40.7890625 61.046875 C41.40475098 61.97338867 42.02043945 62.89990234 42.65478516 63.85449219 C44 66 44 66 44 67 C38.94841375 68.10439537 33.87545307 69.08538488 29 67 C23.99428593 62.05982719 20.94602062 55.30770881 18 49 C15.9631205 50.2673336 15.9631205 50.2673336 14 52 C13.54218098 54.68528464 13.30527696 56.99651714 13.25 59.6875 C13.22035156 60.38939453 13.19070313 61.09128906 13.16015625 61.81445312 C13.08962967 63.54235424 13.04252932 65.2711832 13 67 C8.71 67 4.42 67 0 67 C0 44.89 0 22.78 0 0 Z " fill="#F9F9F9" transform="translate(278,41)"/>
<path d="M0 0 C4.66936367 2.64568073 7.23427458 6.21248474 9.39453125 11.1171875 C9.77816958 13.85054433 9.97642989 16.19250459 9.96875 18.9140625 C9.98291458 19.62951233 9.99707916 20.34496216 10.01167297 21.08209229 C10.05324052 23.34394761 10.0687527 25.60500572 10.08203125 27.8671875 C10.11115025 30.14328224 10.14570553 32.41918009 10.18452454 34.69512939 C10.2069035 36.10515383 10.22278861 37.51530017 10.23136902 38.92547607 C10.26453253 41.93264895 10.43516387 44.23908536 11.39453125 47.1171875 C6.77453125 47.1171875 2.15453125 47.1171875 -2.60546875 47.1171875 C-2.60546875 46.1271875 -2.60546875 45.1371875 -2.60546875 44.1171875 C-3.42337891 44.5503125 -3.42337891 44.5503125 -4.2578125 44.9921875 C-9.74542014 47.69377895 -14.47573073 49.2621763 -20.60546875 48.1171875 C-25.57648365 45.58478368 -29.09977442 42.12857616 -31.60546875 37.1171875 C-32.0654209 32.42567552 -31.72773261 28.79527045 -29.10546875 24.76171875 C-24.94779181 20.20343231 -19.90144333 18.30296138 -13.83984375 17.8125 C-10.41263915 17.80556234 -7.02491046 17.89546578 -3.60546875 18.1171875 C-3.88697962 16.80247182 -4.18100214 15.49042983 -4.48046875 14.1796875 C-4.64289063 13.44878906 -4.8053125 12.71789062 -4.97265625 11.96484375 C-5.43508398 9.91018456 -5.43508398 9.91018456 -7.60546875 9.1171875 C-11.65688994 8.85858615 -13.14884544 8.81277196 -16.60546875 11.1171875 C-16.93546875 12.1071875 -17.26546875 13.0971875 -17.60546875 14.1171875 C-21.89546875 14.1171875 -26.18546875 14.1171875 -30.60546875 14.1171875 C-29.57713965 7.94721292 -28.87954 5.70775418 -24.08984375 1.91796875 C-17.18836275 -2.35794883 -7.57093173 -2.56526322 0 0 Z " fill="#F7F7F7" transform="translate(483.60546875,60.8828125)"/>
<path d="M0 0 C4.18728261 1.93622467 6.93381793 4.34331847 9.453125 8.2734375 C10.62708668 11.79532254 10.64776424 14.71050198 10.734375 18.42578125 C10.76198914 19.4705941 10.76198914 19.4705941 10.79016113 20.53651428 C10.84882817 22.76123739 10.90166831 24.98603665 10.953125 27.2109375 C11.02095628 30.13687454 11.09465549 33.06257864 11.171875 35.98828125 C11.20216797 37.28886475 11.23246094 38.58944824 11.26367188 39.92944336 C11.41351947 42.57436933 11.66914761 44.7632022 12.453125 47.2734375 C10.32874161 47.35422391 8.2034927 47.41252891 6.078125 47.4609375 C4.89476562 47.49574219 3.71140625 47.53054687 2.4921875 47.56640625 C0.98785156 47.42138672 0.98785156 47.42138672 -0.546875 47.2734375 C-1.206875 46.2834375 -1.866875 45.2934375 -2.546875 44.2734375 C-3.68125 44.9334375 -4.815625 45.5934375 -5.984375 46.2734375 C-10.55462762 48.53834145 -14.50962722 49.19864628 -19.546875 48.2734375 C-23.87312881 46.06949688 -27.18701723 43.53933423 -29.546875 39.2734375 C-30.19010358 34.48174595 -30.08225672 30.03254887 -28.671875 25.3984375 C-24.12141906 20.84798156 -19.20972617 18.494192 -12.77734375 17.9609375 C-9.35238755 17.9609375 -5.96414608 18.05185652 -2.546875 18.2734375 C-2.82838587 16.95872182 -3.12240839 15.64667983 -3.421875 14.3359375 C-3.58429688 13.60503906 -3.74671875 12.87414062 -3.9140625 12.12109375 C-4.37649023 10.06643456 -4.37649023 10.06643456 -6.546875 9.2734375 C-10.74342589 8.83260758 -10.74342589 8.83260758 -14.359375 10.6484375 C-15.61674673 12.27430547 -15.61674673 12.27430547 -16.546875 14.2734375 C-20.506875 14.2734375 -24.466875 14.2734375 -28.546875 14.2734375 C-28.30270062 10.12247296 -27.98142506 7.81972901 -25.359375 4.5234375 C-17.86108005 -1.47519846 -9.25949945 -2.64151365 0 0 Z " fill="#F8F8F8" transform="translate(128.546875,60.7265625)"/>
<path d="M0 0 C3.04835026 2.12911382 4.64858931 4.49601895 6.3125 7.8125 C6.72900391 11.22241211 6.72900391 11.22241211 6.7890625 15.08984375 C6.80464203 15.77881241 6.82022156 16.46778107 6.83627319 17.17762756 C6.88355542 19.36840694 6.9114525 21.55887441 6.9375 23.75 C6.97418477 25.93732932 7.01500982 28.12448976 7.06015015 30.31166077 C7.0995095 32.29869888 7.12746139 34.2859533 7.15478516 36.27319336 C7.26055818 40.24285289 7.26055818 40.24285289 8.3125 45.8125 C4.0225 45.8125 -0.2675 45.8125 -4.6875 45.8125 C-5.0175 45.1525 -5.3475 44.4925 -5.6875 43.8125 C-9.23268884 45.21009905 -9.23268884 45.21009905 -12.6875 46.8125 C-19.02948106 47.63766482 -23.81875633 47.07200301 -29.05859375 43.29296875 C-32.65657348 40.02286247 -33.82791667 36.53882568 -34.125 31.8125 C-33.92035349 26.71582744 -31.47993735 23.48544152 -27.8125 20.0625 C-22.74814145 17.08346556 -18.11661636 16.57798837 -12.3125 16.6875 C-11.06726563 16.70554687 -9.82203125 16.72359375 -8.5390625 16.7421875 C-7.59804687 16.76539062 -6.65703125 16.78859375 -5.6875 16.8125 C-6.81447043 11.84338634 -6.81447043 11.84338634 -9.6875 7.8125 C-13.14519191 7.22907647 -13.14519191 7.22907647 -16.6875 7.8125 C-17.11804688 8.64007813 -17.54859375 9.46765625 -17.9921875 10.3203125 C-18.55164063 11.14273438 -19.11109375 11.96515625 -19.6875 12.8125 C-22.82421875 13.30078125 -22.82421875 13.30078125 -26.375 13.125 C-27.55449219 13.07988281 -28.73398438 13.03476563 -29.94921875 12.98828125 C-30.85285156 12.93027344 -31.75648438 12.87226562 -32.6875 12.8125 C-32.01280024 7.92092674 -31.18213948 5.4042128 -27.6875 1.8125 C-20.13424896 -3.47477573 -8.09268896 -4.80738879 0 0 Z " fill="#F9F9F9" transform="translate(211.6875,62.1875)"/>
<path d="M0 0 C5.26434426 1.50409836 5.26434426 1.50409836 7.625 2.75 C9.01154399 5.7211657 8.45835937 7.6858017 7.625 10.75 C12.35638437 8.27478503 16.73050741 5.76019624 20.875 2.375 C24.27212273 -0.24179355 24.27212273 -0.24179355 27.3125 -0.3125 C29.93711716 0.89340518 32.30005001 2.0228943 34.625 3.75 C34.625 4.74 34.625 5.73 34.625 6.75 C35.34945312 6.316875 36.07390625 5.88375 36.8203125 5.4375 C37.78710938 4.880625 38.75390625 4.32375 39.75 3.75 C40.70132813 3.193125 41.65265625 2.63625 42.6328125 2.0625 C45.89015122 0.63369346 48.1087829 0.49958691 51.625 0.75 C52.12 2.73 52.12 2.73 52.625 4.75 C47.48214286 9.17857143 47.48214286 9.17857143 43.625 9.75 C43.625 10.41 43.625 11.07 43.625 11.75 C45.30529297 10.90115234 45.30529297 10.90115234 47.01953125 10.03515625 C48.49213422 9.29416494 49.96479341 8.55328534 51.4375 7.8125 C52.17548828 7.43931641 52.91347656 7.06613281 53.67382812 6.68164062 C54.74213867 6.14506836 54.74213867 6.14506836 55.83203125 5.59765625 C56.81393433 5.1027771 56.81393433 5.1027771 57.81567383 4.59790039 C59.625 3.75 59.625 3.75 62.625 2.75 C62.625 4.07 62.625 5.39 62.625 6.75 C60.44530767 8.07716357 58.25768379 9.38640322 56.0625 10.6875 C55.14887695 11.24727539 55.14887695 11.24727539 54.21679688 11.81835938 C49.95743013 14.31989223 46.55427567 15.350329 41.625 15.75 C39.625 12.75 39.625 12.75 39.625 9.75 C36.16 12.225 36.16 12.225 32.625 14.75 C34.935 15.08 37.245 15.41 39.625 15.75 C39.625 19.71 39.625 23.67 39.625 27.75 C37.41145833 27.91276042 35.19791667 28.07552083 32.984375 28.23828125 C30.02189533 28.88080581 28.76079071 29.57670057 26.625 31.75 C26.19785919 34.31494618 26.0202377 36.47322205 26.015625 39.04296875 C25.99908875 39.74899734 25.98255249 40.45502594 25.96551514 41.18244934 C25.91698712 43.43422092 25.89565562 45.68531709 25.875 47.9375 C25.84684401 49.46552886 25.81691709 50.99352619 25.78515625 52.52148438 C25.71122806 56.26426728 25.66168377 60.00667424 25.625 63.75 C21.335 63.75 17.045 63.75 12.625 63.75 C12.625 47.91 12.625 32.07 12.625 15.75 C18.565 15.255 18.565 15.255 24.625 14.75 C25.615 13.76 26.605 12.77 27.625 11.75 C27.13 11.255 27.13 11.255 26.625 10.75 C25.7175 11.41 24.81 12.07 23.875 12.75 C20.625 14.75 20.625 14.75 16.625 14.75 C15.965 14.09 15.305 13.43 14.625 12.75 C14.068125 13.08 13.51125 13.41 12.9375 13.75 C10.27236676 14.90249005 8.50106851 15.05274405 5.625 14.75 C3.4864515 12.6114515 3.19844937 11.61724686 2.625 8.75 C2.10550781 9.19472656 1.58601563 9.63945313 1.05078125 10.09765625 C-4.71633791 14.77744425 -4.71633791 14.77744425 -8.375 14.625 C-9.365 14.191875 -9.365 14.191875 -10.375 13.75 C-9.89853853 8.74715458 -8.44211438 5.71920685 -5.375 1.75 C-2.375 -0.25 -2.375 -0.25 0 0 Z " fill="#ED0C97" transform="translate(489.375,44.25)"/>
<path d="M0 0 C4.29 0 8.58 0 13 0 C13.01458252 1.04454346 13.02916504 2.08908691 13.04418945 3.1652832 C13.10215551 7.04014345 13.17938774 10.91442151 13.26245117 14.78881836 C13.29570863 16.46580559 13.32373808 18.14290497 13.34643555 19.82006836 C13.37996737 22.23079225 13.43227978 24.64048762 13.48828125 27.05078125 C13.49467117 27.80087967 13.5010611 28.55097809 13.50764465 29.32380676 C13.61052917 33.41176439 13.61052917 33.41176439 15.40869141 36.98779297 C17.50899894 38.32376643 18.62641419 38.19954167 21.0625 37.8125 C22.10083984 37.66748047 22.10083984 37.66748047 23.16015625 37.51953125 C25.22835788 37.0972017 25.22835788 37.0972017 27 35 C27.24529581 32.42420615 27.37341793 29.94770993 27.4140625 27.3671875 C27.43342865 26.61535187 27.4527948 25.86351624 27.4727478 25.08889771 C27.53259147 22.68438101 27.57894726 20.27981656 27.625 17.875 C27.66317546 16.24607272 27.70222693 14.61716572 27.7421875 12.98828125 C27.83829666 8.99235194 27.92230941 4.99632813 28 1 C32.29 1 36.58 1 41 1 C41 16.51 41 32.02 41 48 C37.04 48 33.08 48 29 48 C29 46.68 29 45.36 29 44 C28.32517578 44.54140625 28.32517578 44.54140625 27.63671875 45.09375 C21.89622988 49.23518485 16.98992901 50.12395489 10 49 C4.9833808 46.8109298 3.10442564 43.97539445 0.82702637 39.24316406 C-0.54133155 35.53173306 -0.49586256 32.04004262 -0.390625 28.125 C-0.38496521 27.31506592 -0.37930542 26.50513184 -0.37347412 25.6706543 C-0.3512902 23.11313833 -0.30113203 20.55708409 -0.25 18 C-0.22991157 16.25392665 -0.21166493 14.50783108 -0.1953125 12.76171875 C-0.15148505 8.50725925 -0.08258721 4.25387643 0 0 Z " fill="#F7F7F7" transform="translate(326,60)"/>
<path d="M0 0 C4.20261675 1.69893018 6.41945133 4.3135019 9 8 C10.27385127 11.8215538 10.12353188 15.4068447 10.09765625 19.38671875 C10.0962413 20.20372757 10.09482635 21.02073639 10.09336853 21.86250305 C10.08777294 24.47087268 10.07522129 27.07915634 10.0625 29.6875 C10.05748443 31.45637897 10.05292162 33.22525928 10.04882812 34.99414062 C10.03780496 39.32946019 10.02054338 43.66471552 10 48 C5.71 48 1.42 48 -3 48 C-3.01458252 46.95021973 -3.02916504 45.90043945 -3.04418945 44.81884766 C-3.10207993 40.93096526 -3.17931206 37.04366774 -3.26245117 33.15625 C-3.29574435 31.47242715 -3.32376256 29.78849152 -3.34643555 28.10449219 C-3.37990205 25.68635914 -3.43221036 23.26926376 -3.48828125 20.8515625 C-3.49467117 20.0963028 -3.5010611 19.34104309 -3.50764465 18.56289673 C-3.53980318 16.21354099 -3.53980318 16.21354099 -4 13 C-7.68717438 10.54188375 -9.64345704 10.68881836 -14 11 C-14.99 11.66 -15.98 12.32 -17 13 C-17.33784096 15.68784817 -17.48892244 18.1571425 -17.51171875 20.8515625 C-17.52966995 21.62559418 -17.54762115 22.39962585 -17.56611633 23.19711304 C-17.62036392 25.67301967 -17.65416009 28.14873203 -17.6875 30.625 C-17.72066046 32.30211046 -17.75514893 33.97919523 -17.79101562 35.65625 C-17.87609817 39.77069341 -17.94283953 43.88507777 -18 48 C-22.29 48 -26.58 48 -31 48 C-31 32.49 -31 16.98 -31 1 C-27.04 1 -23.08 1 -19 1 C-19 2.32 -19 3.64 -19 5 C-18.55011719 4.6390625 -18.10023438 4.278125 -17.63671875 3.90625 C-11.87484271 -0.25061447 -7.00952413 -1.00293506 0 0 Z " fill="#F8F8F8" transform="translate(259,60)"/>
<path d="M0 0 C1.39299349 6.05753167 0.43066877 9.77358651 -1.9375 15.4375 C-2.22818359 16.16904297 -2.51886719 16.90058594 -2.81835938 17.65429688 C-3.53111567 19.44202989 -4.26356755 21.22188918 -5 23 C-4.5153125 22.35933594 -4.030625 21.71867187 -3.53125 21.05859375 C7.78895252 6.45117857 7.78895252 6.45117857 13.61328125 5.6328125 C14.40089844 5.75398438 15.18851562 5.87515625 16 6 C18.72657944 10.08986916 18.49350101 13.19906246 18 18 C17.24658243 21.1125771 16.19148551 24.06823407 15.0625 27.0625 C12.95088379 32.7702329 11.54513613 37.92069705 11 44 C8.61435923 43.42415568 6.33317216 42.77772405 4 42 C-1.29656168 41.49279394 -5.62108758 41.25947296 -10.375 43.8125 C-11.24125 44.534375 -12.1075 45.25625 -13 46 C-16.57367654 48.38245103 -17.56828236 49 -22 49 C-21.42069642 45.55852163 -20.55370829 42.73943598 -18.99609375 39.62109375 C-18.58858887 38.7911792 -18.18108398 37.96126465 -17.76123047 37.10620117 C-17.32439941 36.22552979 -16.88756836 35.3448584 -16.4375 34.4375 C-11.42519634 24.15219475 -7.10489514 13.67502061 -3 3 C-7.53929929 5.46227674 -11.3598704 7.926304 -15.1875 11.4375 C-16.00605469 12.17871094 -16.82460938 12.91992188 -17.66796875 13.68359375 C-21.96664488 17.95346803 -24.42792011 20.85014116 -25 27 C-26.32 26.34 -27.64 25.68 -29 25 C-29.11890018 19.53059193 -27.51112238 17.01810593 -23.875 12.9375 C-20.12673785 9.02264843 -16.30116866 5.30190726 -12 2 C-11.175 1.360625 -10.35 0.72125 -9.5 0.0625 C-6.06306151 -1.39819886 -3.58486214 -0.77320556 0 0 Z " fill="#F00094" transform="translate(430,19)"/>
<path d="M0 0 C0 3.96 0 7.92 0 12 C-2.21354167 12.16276042 -4.42708333 12.32552083 -6.640625 12.48828125 C-9.60310467 13.13080581 -10.86420929 13.82670057 -13 16 C-13.42714081 18.56494618 -13.6047623 20.72322205 -13.609375 23.29296875 C-13.62591125 23.99899734 -13.64244751 24.70502594 -13.65948486 25.43244934 C-13.70801288 27.68422092 -13.72934438 29.93531709 -13.75 32.1875 C-13.77815599 33.71552886 -13.80808291 35.24352619 -13.83984375 36.77148438 C-13.91377194 40.51426728 -13.96331623 44.25667424 -14 48 C-17.96 48 -21.92 48 -26 48 C-26 32.49 -26 16.98 -26 1 C-22.04 1 -18.08 1 -14 1 C-13.67 1.99 -13.34 2.98 -13 4 C-12.34 3.34 -11.68 2.68 -11 2 C-6.98141147 -0.67905902 -4.74694284 -0.32182663 0 0 Z " fill="#FDFDFD" transform="translate(175,60)"/>
<path d="M0 0 C0 3.96 0 7.92 0 12 C-2.21354167 12.16276042 -4.42708333 12.32552083 -6.640625 12.48828125 C-9.60310467 13.13080581 -10.86420929 13.82670057 -13 16 C-13.42714081 18.56494618 -13.6047623 20.72322205 -13.609375 23.29296875 C-13.62591125 23.99899734 -13.64244751 24.70502594 -13.65948486 25.43244934 C-13.70801288 27.68422092 -13.72934438 29.93531709 -13.75 32.1875 C-13.77815599 33.71552886 -13.80808291 35.24352619 -13.83984375 36.77148438 C-13.91377194 40.51426728 -13.96331623 44.25667424 -14 48 C-17.96 48 -21.92 48 -26 48 C-26 32.49 -26 16.98 -26 1 C-22.7 1 -19.4 1 -16 1 C-16.6496875 1.98226562 -16.6496875 1.98226562 -17.3125 2.984375 C-21.4859879 9.82425795 -23.670124 15.93420734 -22 24 C-21.01 24.66 -20.02 25.32 -19 26 C-18.62875 24.824375 -18.2575 23.64875 -17.875 22.4375 C-16.36423727 17.93398825 -14.7161976 13.49096908 -13 9.0625 C-12.7510498 8.39984131 -12.50209961 7.73718262 -12.24560547 7.05444336 C-9.59880293 0.32997025 -6.96590017 -0.26286416 0 0 Z " fill="#FEFAFD" transform="translate(529,60)"/>
<path d="M0 0 C-0.92229692 5.97428152 -2.44906192 11.45658805 -4.5625 17.125 C-6.44139229 22.18695687 -7.67720903 26.62015055 -8 32 C-8.94101562 31.95359375 -9.88203125 31.9071875 -10.8515625 31.859375 C-20.26591925 31.43220375 -20.26591925 31.43220375 -28 36 C-29.485 36.495 -29.485 36.495 -31 37 C-29.51381255 32.709233 -27.26820078 29.21280613 -24.625 25.5625 C-24.1916333 24.96066895 -23.7582666 24.35883789 -23.31176758 23.73876953 C-19.94349971 19.13596735 -16.38400148 14.71755358 -12.6875 10.375 C-12.19652832 9.79564697 -11.70555664 9.21629395 -11.19970703 8.61938477 C-3.72610534 0 -3.72610534 0 0 0 Z " fill="#0D070B" transform="translate(445,29)"/>
<path d="M0 0 C1.32 0.33 2.64 0.66 4 1 C3.40822718 4.91697251 2.23709361 7.8289213 0.25 11.25 C-0.23984375 12.12140625 -0.7296875 12.9928125 -1.234375 13.890625 C-3 16 -3 16 -5.703125 16.796875 C-6.46109375 16.86390625 -7.2190625 16.9309375 -8 17 C-10 14 -10 14 -10 11 C-10.88042969 11.5053125 -11.76085937 12.010625 -12.66796875 12.53125 C-13.84083511 13.18805516 -15.01402972 13.84427443 -16.1875 14.5 C-17.33605469 15.1496875 -18.48460937 15.799375 -19.66796875 16.46875 C-22.85521279 17.93346238 -24.57204549 18.63322783 -28 18 C-30.22038744 14.66941883 -30.70223318 13.86228249 -30 10 C-28.34223467 7.25039612 -26.51464815 5.00492218 -24 3 C-20.625 2.5625 -20.625 2.5625 -18 3 C-17.67 4.32 -17.34 5.64 -17 7 C-22.14285714 11.42857143 -22.14285714 11.42857143 -26 12 C-26 12.66 -26 13.32 -26 14 C-23.36992225 12.73888071 -20.74623869 11.46675409 -18.125 10.1875 C-17.37863281 9.83107422 -16.63226563 9.47464844 -15.86328125 9.10742188 C-15.14785156 8.75615234 -14.43242187 8.40488281 -13.6953125 8.04296875 C-13.03547363 7.72352295 -12.37563477 7.40407715 -11.69580078 7.07495117 C-9.67807583 5.95670383 -9.67807583 5.95670383 -8 3 C-6.68 3.33 -5.36 3.66 -4 4 C-4 5.32 -4 6.64 -4 8 C-2.68 5.36 -1.36 2.72 0 0 Z " fill="#EE0093" transform="translate(476,42)"/>
<path d="M0 0 C0.77303488 8.03956273 0.77303488 8.03956273 -2.0625 11.5625 C-5.68781215 13.33658892 -8.01010782 13.51720825 -12 13 C-13.9375 11.875 -13.9375 11.875 -15 10 C-15.5625 7.0625 -15.5625 7.0625 -15 4 C-10.37705751 -0.50440551 -6.07004263 -0.48560341 0 0 Z " fill="#141414" transform="translate(206,86)"/>
<path d="M0 0 C1.49080078 0.02707031 1.49080078 0.02707031 3.01171875 0.0546875 C3.77097656 0.07789062 4.53023438 0.10109375 5.3125 0.125 C5.91800459 7.39105505 5.91800459 7.39105505 3.25 10.625 C-0.37891808 12.47806455 -2.66240253 12.64677189 -6.6875 12.125 C-8.6875 11.0625 -8.6875 11.0625 -9.6875 9.125 C-9.5625 5.5625 -9.5625 5.5625 -8.6875 2.125 C-5.26655758 -0.15562828 -4.00562778 -0.09425007 0 0 Z " fill="#0B0B0B" transform="translate(474.6875,86.875)"/>
<path d="M0 0 C0.36794425 7.4815331 0.36794425 7.4815331 -1.375 9.9375 C-4.99091806 12.30175412 -7.68818403 12.30258358 -12 12 C-13.9375 10.8125 -13.9375 10.8125 -15 9 C-15.56114721 5.8736084 -15.25613705 4.45128908 -13.6875 1.6875 C-9.40525166 -1.00135361 -4.92480563 -0.30567759 0 0 Z " fill="#0A0A0A" transform="translate(126,87)"/>
<path d="M0 0 C0.66 0 1.32 0 2 0 C4.48351814 5.55139349 3.85330338 10.16524985 3 16 C2.67 16 2.34 16 2 16 C2 12.7 2 9.4 2 6 C-0.64 6 -3.28 6 -6 6 C-4 4 -2 2 0 0 Z " fill="#1B1318" transform="translate(527,54)"/>
<path d="M0 0 C0.33 0.99 0.66 1.98 1 3 C-0.5625 5 -0.5625 5 -3 7 C-6.75 7.25 -6.75 7.25 -10 7 C-9.01 6.34 -8.02 5.68 -7 5 C-5.76779826 4.12927928 -4.53869541 3.25415898 -3.3125 2.375 C-2.37857422 1.70597656 -2.37857422 1.70597656 -1.42578125 1.0234375 C-0.95527344 0.68570313 -0.48476563 0.34796875 0 0 Z " fill="#1B0412" transform="translate(517,53)"/>
</svg>
